SplineFontDB: 3.0
FontName: Muktamsiddham
FullName: Muktamsiddham
FamilyName: Muktamsiddham
Weight: Medium
Copyright: Copyright (c) 2010, MihailJP (http://twitter.com/MihailJP), with Reserved Font Name Muktamsiddham.\nCopyright (c) 1999 by George Williams, with Reserved Font Name Peignot.\nThe Latin alphabet glyphs are based on Peignot.sfd which was originally created by George Williams; emboldened and added some accented glyphs by MihailJP.
UComments: "This file is to be added to the Muktamsiddham outline file." 
Version: 0.1.0
ItalicAngle: 0
UnderlinePosition: -100
UnderlineWidth: 50
Ascent: 800
Descent: 200
LayerCount: 2
Layer: 0 0 "Background"  1
Layer: 1 0 "Foreground"  0
NeedsXUIDChange: 1
XUID: [1021 631 1514651636 4419751]
FSType: 8
OS2Version: 4
OS2_WeightWidthSlopeOnly: 0
OS2_UseTypoMetrics: 1
CreationTime: 1274207482
ModificationTime: 1288031627
PfmFamily: 17
TTFWeight: 500
TTFWidth: 5
LineGap: 90
VLineGap: 0
OS2TypoAscent: 0
OS2TypoAOffset: 1
OS2TypoDescent: 0
OS2TypoDOffset: 1
OS2TypoLinegap: 90
OS2WinAscent: 0
OS2WinAOffset: 1
OS2WinDescent: 0
OS2WinDOffset: 1
HheadAscent: 0
HheadAOffset: 1
HheadDescent: 0
HheadDOffset: 1
OS2Vendor: 'PfEd'
Lookup: 4 0 0 "'frac' +ZZwwgTBuUgZlcAAA in +MOkwxjDzZYdbVwAA lookup 1"  {"'frac' +ZZwwgTBuUgZlcAAA in +MOkwxjDzZYdbVwAA lookup 1-1"  } ['frac' ('latn' <'dflt' > ) ]
Lookup: 4 0 1 "'liga' +ahluljBuVAhbVwAA in +MOkwxjDzZYdbVwAA lookup 1"  {"'liga' +ahluljBuVAhbVwAA in +MOkwxjDzZYdbVwAA lookup 1-1"  } ['liga' ('latn' <'dflt' > ) ]
Lookup: 258 0 0 "'kern' +aipm+DBNMKsw/DDLMPMwsAAA in +MOkwxjDzZYdbVwAA lookup 0"  {"'kern' +aipm+DBNMKsw/DDLMPMwsAAA in +MOkwxjDzZYdbVwAA lookup 0-1" [150,15,0] } ['kern' ('latn' <'dflt' > ) ]
MarkAttachClasses: 1
DEI: 91125
KernClass2: 12 8 "'kern' +aipm+DBNMKsw/DDLMPMwsAAA in +MOkwxjDzZYdbVwAA lookup 0-1" 
 33 f fdotaccent slong slongdotaccent
 66 Ldotbelow Ldotbelowmacron L Lslash Lcaron Lacute Lcommaaccent Ldot
 12 P Pdotaccent
 51 Tdotbelow T Tcaron Tcedilla Tdotaccent Tcommaaccent

StartChar: A
Encoding: 1 65 1
Width: 703
Flags: W
HStem: 0 21G<87.7593 118.663 588.63 635.513> 0 21G<87.7593 118.663 588.63 635.513> 189 65<251.712 455.258>
LayerCount: 2
Fore
SplineSet
354.484 496.052 m 1x20
 352.293 493.581 349.702 488.671 347.858 484.265 c 2
 252.857 257.286 l 2
 251.682 254.473 251.721 254.05 251.712 254.017 c 2
 252.56 254 l 1
 448.844 254 l 2
 453.942 254 455.056 254.821 455.269 254.909 c 0
 455.232 255.051 455.14 255.489 454.803 256.306 c 2
 359.779 486.341 l 2
 357.182 492.626 355.542 494.728 354.484 496.052 c 1x20
244.207 189 m 2
 232.193 189 219.137 178.511 217.4 174.165 c 2
 145.131 15.0527 l 1
 144.963 14.748 l 2
 137.216 0.65332 122.584 0 114.743 0 c 2
 98.7432 0 l 2
 76.7754 0 78.4648 21.1367 80.2568 26.3506 c 2
 80.3457 26.6104 l 1
 80.4492 26.8643 l 2
 168.783 237.043 343.422 642.818 346.149 649.518 c 2
 346.231 649.728 l 1
 346.326 649.939 l 2
 350.18 658.552 355.655 663.739 361.726 666 c 0
 378.223 672.143 388.141 656.53 391.809 646.494 c 2
 652.058 29.7188 l 2
 654.695 23.0684 655.051 19.8545 655.058 16.959 c 0
 655.094 0.947266 638.396 0 632.63 0 c 2xa0
 588.63 1 l 2
 569.156 1 560.138 11.0195 554.031 23.9795 c 2
 487.165 178.854 l 2
 483.277 187.693 471.976 189 462.416 189 c 2
 244.207 189 l 2
EndSplineSet
EndChar

StartChar: a
Encoding: 2 97 2
Width: 491
Flags: W
HStem: 0 21G<69.6602 91.0708 383.074 432.436> 0 21G<69.6602 91.0708 383.074 432.436> 108 50<157.826 302.541>
VStem: 59.1729 52.1221<0.859691 23.8438> 356.267 94.0654<2.42188 77.6712>
LayerCount: 2
Fore
SplineSet
326.852 99.4541 m 1xb8
 325.341 103.057 312.859 108 306.626 108 c 2
 149.739 108 l 0
 145.43 108 137.75 100.347 137.314 98.9521 c 1
 111.295 23.8438 l 1
 107.557 12.4395 99.4023 0 82.7393 0 c 0
 56.5811 0 56.251 24.0723 59.1729 33.3867 c 1
 177.176 397.707 l 1
 185.061 419.726 201.542 431.415 217.665 436.63 c 0
 251.885 447.698 290.211 433.517 301.282 409.758 c 1
 448.077 36.8887 l 1
 450.146 31.9443 450.258 28.4814 450.332 26.4072 c 0
 450.844 12.0547 440.133 0 424.739 0 c 0
 392.739 0 l 0
 373.409 0 360.814 11.1201 356.267 23.6074 c 1
 344.586 54.708 335.894 78.5059 326.852 99.4541 c 1xb8
158.297 167.06 m 0
 156.364 160.78 157.561 158.746 157.826 158 c 2
 302.541 158 l 1
 227.904 337.564 l 1
 224.444 345.679 221.705 347.982 220.805 348.751 c 1
 218.838 346.668 217.449 343.705 216.406 340.262 c 1
 158.297 167.06 l 0
EndSplineSet
EndChar

StartChar: I
Encoding: 5 73 5
Width: 267
Flags: W
HStem: 0 21G<141.315 189.781> 0 21G<141.315 189.781> 630 20G<139.356 191.629>
VStem: 119.068 91<6.51394 649.549>
LayerCount: 2
Fore
SplineSet
119.068 26.373 m 0xb0
 119.068 623.813 l 2
 119.068 642.576 132.645 650 146.068 650 c 0
 183.068 650 l 0
 200.19 650 210.068 637.812 210.068 623.806 c 0
 210.068 26.1943 l 0
 210.068 7.42578 196.493 0 183.068 0 c 0
 146.068 0 l 0
 136.562 0 129.93 1.49609 125.248 6.17871 c 0
 117.895 13.3105 119.068 21.7285 119.068 26.373 c 0xb0
EndSplineSet
EndChar

StartChar: i
Encoding: 6 105 6
Width: 202
Flags: W
HStem: 0 21G<79.3149 122.781> 0 21G<79.3149 122.781> 415 20G<81.6396 124.734> 479 88<63.4105 138.5>
VStem: 57.0684 88<6.50871 427.901 485.342 560.715>
LayerCount: 2
Fore
SplineSet
101.068 479 m 0x38
 74.0938 479 57.0684 501.061 57.0684 523 c 0
 57.0684 549.975 79.1299 567 101.068 567 c 0
 126.985 567 145.068 545.203 145.068 523 c 0
 145.068 495.772 121.966 479 101.068 479 c 0x38
57.0684 26.0576 m 0
 57.0684 407.955 l 2
 57.0684 417.305 59.335 423.771 63.7695 428.105 c 0
 70.7676 435.269 79.2109 435 84.0684 435 c 0
 116.068 435 l 0
 133.399 435 143.068 422.58 143.068 408.23 c 0
 143.068 25.8135 l 0
 143.068 7.31738 129.493 0 116.068 0 c 0
 84.0684 0 l 0xb8
 74.5615 0 67.9297 1.49609 63.248 6.17871 c 0
 55.8945 13.1992 57.0684 21.4863 57.0684 26.0576 c 0
EndSplineSet
EndChar

StartChar: U
Encoding: 9 85 9
Width: 648
Flags: W
HStem: -11 58<294.34 453.699> 630 20G<139.288 192.053 544.427 581.542>
VStem: 119 92.5517<132.847 649.307> 529.851 63.1494<124.017 650>
LayerCount: 2
Fore
SplineSet
376.517 47 m 0
 466.795 47 529.851 115.013 529.851 204.768 c 2
 529.851 623.867 l 0
 529.851 639.504 537.854 650 551 650 c 0
 573 650 l 0
 590.083 650 593 633.021 593 623.793 c 0
 593 203.51 l 0
 593 94.5303 539.556 -11 355.368 -11 c 0
 186.839 -11 119 101.134 119 227.775 c 0
 119 623.793 l 0
 119 642.57 132.575 650 146 650 c 0
 183 650 l 0
 201.106 650 211.552 637.841 211.552 623.867 c 0
 211.552 228.965 l 0
 211.552 107.295 287.385 47 376.517 47 c 0
EndSplineSet
EndChar

StartChar: u
Encoding: 10 117 10
Width: 420
Flags: W
HStem: -3 57<173.605 290.475> 415 20G<73.2876 120.561 338.058 352.604>
VStem: 53 86<90.077 434.555> 320 50<85.8028 434.733>
LayerCount: 2
Fore
SplineSet
370 158.62 m 0
 370 60.0684 308.796 -3 229 -3 c 0
 125.158 -3 53 67.4824 53 147.145 c 0
 53 409.179 l 0
 53 427.68 66.5752 435 80 435 c 0
 112 435 l 0
 129.122 435 139 423.064 139 409.347 c 0
 139 148.062 l 0
 139 103.406 173.83 54 230 54 c 0
 301.693 54 320 107.649 320 180.366 c 0
 320 413.147 l 0
 320 427.19 332.115 435 344 435 c 0
 361.208 435 370 424.577 370 413.004 c 0
 370 158.62 l 0
EndSplineSet
EndChar

StartChar: E
Encoding: 21 69 21
Width: 576
Flags: W
HStem: 0 61<201.068 537.068> 301 61<201.08 510.048> 589 61<201.068 526.068>
VStem: 110.068 91<61 301 362.004 589>
LayerCount: 2
Fore
SplineSet
201.068 584.211 m 0
 201.068 374.451 l 2
 201.068 368.037 210.602 362 217.068 362 c 0
 472.068 362 l 0
 482.031 362 510.068 363.924 510.068 341 c 0
 510.068 324 l 0
 510.068 300.626 482.562 301 477.068 301 c 0
 223.068 301 l 0
 205.657 301 201.245 296.006 201.068 294.771 c 1
 201.068 65.7998 l 0
 201.068 59.623 205.566 61 223.068 61 c 0
 504.068 61 l 0
 514.739 61 537.068 57.4326 537.068 39 c 0
 537.068 21 l 0
 537.068 -5.89746 501.365 0 498.068 0 c 0
 137.068 0 l 0
 127.562 0 120.93 1.49609 116.248 6.17871 c 0
 108.895 13.3105 110.068 21.7285 110.068 26.373 c 0
 110.068 623.813 l 0
 110.068 642.576 123.645 650 137.068 650 c 0
 488.068 650 l 0
 498.954 650 526.068 650.487 526.068 628 c 0
 526.068 611 l 0
 526.068 587.259 497.595 589 493.068 589 c 0
 223.068 589 l 0
 217.506 589 214.558 589.183 212.366 589.188 c 0
 199.976 589.212 201.068 588.396 201.068 584.211 c 0
EndSplineSet
EndChar

StartChar: e
Encoding: 22 101 22
Width: 380
Flags: W
HStem: 0 52<137 335.265> 198 53<137 302.733> 385 51<137.705 343.096>
VStem: 50 87<53.2111 198.001 250.975 381.939>
LayerCount: 2
Fore
SplineSet
124.179 435.998 m 1
 196.557 434.98 240.468 436 312 436 c 0
 331.804 436 343.087 423.477 343.495 410.822 c 0
 344.03 394.202 328.436 385 313 385 c 0
 253.711 385 223.549 383.022 164.918 384 c 1
 149.314 384 137 369.952 137 357.958 c 0
 137 262.161 l 0
 137 249.758 138.954 251 146 251 c 0
 191.635 251 227.951 250 277 250 c 0
 295.221 250 303.061 235.357 303.246 224.959 c 0
 303.524 209.375 290.131 199 275 199 c 0
 226.119 199 201.228 198 155 198 c 0
 139.146 198 137 193.18 137 183.025 c 0
 137 71.6543 l 0
 137 52.4111 142.038 52 160 52 c 0
 205.592 52 251.955 51 308 51 c 0
 327.168 51 335.553 36.7832 335.746 25.959 c 0
 336.018 10.7988 323.389 0 309 0 c 0
 126 0 l 0
 80.8936 0 50 25.3721 50 65.9736 c 0
 50 356.641 l 0
 50 399.8 74.04 437.063 124.179 435.998 c 1
EndSplineSet
EndChar

StartChar: O
Encoding: 23 79 23
Width: 762
Flags: W
HStem: -14 52<308.878 487.36> 624 48<312.869 481.791>
VStem: 60 108<210.979 449.753> 629 102<208.953 446.565>
LayerCount: 2
Fore
SplineSet
399.17 624 m 0
 271.749 624 168 493.382 168 331 c 0
 168 152.784 268.355 38 399.17 38 c 0
 532.988 38 629 162.587 629 331 c 0
 629 497.59 522.208 624 399.17 624 c 0
396.024 -14 m 0
 203.992 -14 60 141.71 60 329 c 0
 60 520.305 207.993 672 396.024 672 c 0
 587.031 672 731 516.271 731 329 c 0
 731 137.707 583.033 -14 396.024 -14 c 0
EndSplineSet
EndChar

StartChar: o
Encoding: 24 111 24
Width: 539
Flags: W
HStem: -6 47<203.616 333.647> 402 46<203.597 333.582>
VStem: 42 87<124.619 315.223> 409 86<127.147 317.767>
LayerCount: 2
Fore
SplineSet
267.948 -6 m 0
 135.701 -6 42 98.8154 42 221 c 0
 42 348.198 139.592 448 267.948 448 c 0
 401.22 448 495 344.188 495 221 c 0
 495 94.751 397.408 -6 267.948 -6 c 0
269.052 402 m 0
 191.857 402 129 321.816 129 221.026 c 0
 129 116.169 195.05 41 269.052 41 c 0
 346.324 41 409 120.282 409 221.026 c 0
 409 325.936 342.988 402 269.052 402 c 0
EndSplineSet
EndChar

StartChar: K
Encoding: 29 75 29
Width: 551
Flags: W
HStem: 0 21G<141.315 190.247 481.322 540.074> 0 21G<141.315 190.247 481.322 540.074> 630 20G<139.356 192.245 475.664 503.908>
VStem: 119.068 92.875<6.51394 312.71 343.857 649.285>
LayerCount: 2
Fore
SplineSet
212.011 622.982 m 1xb0
 210.962 343.857 l 2
 211.424 344.314 211.651 344.552 212.055 345.054 c 1
 454.127 637.829 l 1
 461.024 647.49 470.259 650 481.068 650 c 0
 501.068 650 l 0
 506.747 650 510.902 648.361 513.691 646.398 c 0
 526.014 637.985 518.289 624.311 514.105 618.9 c 1
 425.427 506.102 377.008 446.817 297.67 356.839 c 1
 293.943 352.342 295.417 348.296 297.811 345.264 c 1
 551.04 39.8057 l 1
 556.859 32.2803 559.335 25.5488 559.367 19.4834 c 0
 559.442 4.74902 545.079 0 535.068 0 c 0
 491.068 0 l 0
 471.575 0 461.462 10.876 454.816 18.8682 c 0
 210.874 312.71 l 1
 210.88 284.141 211.701 84.1582 211.943 27.0205 c 1
 211.943 7.63672 197.425 0 183.068 0 c 0
 146.068 0 l 0
 136.562 0 129.93 1.49609 125.248 6.17871 c 0
 117.895 13.3105 119.068 21.7285 119.068 26.373 c 0
 119.068 623.813 l 0
 119.068 642.576 132.645 650 146.068 650 c 0
 183.068 650 l 0
 201.422 650 212.011 637.452 212.011 622.982 c 1xb0
EndSplineSet
EndChar

StartChar: k
Encoding: 30 107 30
Width: 428
Flags: W
HStem: 0 21G<72.3149 111.817 325.224 364.028> 0 21G<72.3149 111.817 325.224 364.028> 415 20G<336.567 347.07> 692 20G<70.1846 118.579>
VStem: 50.0684 88.6341<7.29789 208.07 219.127 711.09>
LayerCount: 2
Fore
SplineSet
138.702 219.127 m 1xb8
 139.97 221.104 141.479 223.112 143.229 225.162 c 2
 308.883 419.071 l 2
 318.48 430.729 331.066 435 342.068 435 c 0
 352.071 435 356.844 432.702 360.196 430.153 c 0
 374.755 419.576 362.45 404.917 361.067 403.232 c 0
 316.95 343.731 279.469 303.635 227.462 245.42 c 0
 220.045 237.116 221.396 232.974 223.41 230.064 c 2
 383.169 37.1387 l 2
 388.924 29.3486 391.124 24.0137 391.145 18.4932 c 0
 391.214 -0.0869141 368.988 0 359.068 0 c 2
 334.068 0 l 2
 316.379 0 302.783 6.31836 293.399 18.0732 c 2
 143.082 202.014 l 2
 141.399 204.073 139.938 206.088 138.702 208.07 c 1
 138.702 27 l 2
 138.702 17.8271 136.172 11.375 131.688 7.0957 c 0
 124.028 -0.21582 114.566 0 109.068 0 c 2
 77.0684 0 l 2
 67.5615 0 60.9297 1.49609 56.248 6.17871 c 0
 48.8945 13.3213 50.0684 21.752 50.0684 26.4033 c 2
 50.0684 684 l 2
 50.0684 703.977 63.3008 712 77.0684 712 c 2
 109.068 712 l 2
 128.09 712 138.702 699.009 138.702 684 c 2
 138.702 219.127 l 1xb8
EndSplineSet
EndChar

StartChar: G
Encoding: 31 71 31
Width: 725
Flags: W
HStem: -14 56<307.172 524.663> 619 53<309.008 498.6>
VStem: 60 106<211.349 449.331> 587 91<102.562 284.242>
LayerCount: 2
Fore
SplineSet
397.494 42 m 0
 526.671 42 521.273 63.4551 577.311 102.226 c 0
 588.017 109.363 587 119.467 587 137 c 0
 587 264 l 0
 587 273.614 589.228 280.119 593.554 284.446 c 0
 600.764 291.655 609.274 291 614 291 c 0
 651 291 l 0
 667.462 291 678 279.625 678 264 c 0
 678 204.416 678.992 143.604 677.984 117.393 c 1
 676.73 102.358 672.312 87.8994 657.68 77.7695 c 0
 555.802 7.56836 507.805 -14 394.327 -14 c 0
 201.967 -14 60 141.816 60 329 c 0
 60 520.214 205.975 672 394.327 672 c 0
 507.742 672 597.212 631.405 647.652 548.017 c 1
 654.238 536.163 659.195 515.829 644.3 506.52 c 0
 644.104 506.397 l 1
 627.69 497.165 l 1
 627.472 497.056 l 0
 616.178 491.408 608.189 491.885 602.448 495.051 c 0
 592.568 500.501 591.947 509.64 591.23 512.863 c 1
 582.369 553.631 503.368 619 398.55 619 c 0
 258.469 619 166 493.542 166 330.983 c 0
 166 152.974 266.701 42 397.494 42 c 0
EndSplineSet
EndChar

StartChar: g
Encoding: 32 103 32
Width: 518
Flags: W
HStem: -6 47<216.004 362.323> 402 46<215.967 347.915>
VStem: 53 87<127.107 315.223> 378 87<-165.319 11.3652 69.4208 223.412>
LayerCount: 2
Fore
SplineSet
377.928 11.3652 m 1
 375.368 11.4785 369.731 9.83789 366.956 8.80762 c 0
 343.496 -2.01758 316.086 -6 281.632 -6 c 0
 146.701 -6 53 98.8154 53 221 c 0
 53 348.198 150.592 448 281.632 448 c 0
 372.803 448 420.21 393.798 433.597 370.113 c 1
 443.782 353.816 431.396 338.558 421.856 333.259 c 0
 421.409 333.01 l 1
 420.939 332.809 l 0
 416.4 330.863 401.845 323.413 389.827 340.238 c 1
 373.417 363.827 333.525 402 282.763 402 c 0
 203.613 402 140 321.816 140 221.026 c 0
 140 116.169 206.887 41 282.763 41 c 0
 329.777 41 354.824 54.8105 370.03 69.1719 c 1
 375.276 74.418 378 83.749 378 92 c 0
 378 196 l 0
 378 216.094 391.554 224 406 224 c 0
 438 224 l 0
 455.33 224 465 211.009 465 196 c 0
 465 -146 l 0
 465 -165.346 451.425 -173 438 -173 c 0
 406 -173 l 0
 395.629 -173 388.536 -170.729 383.916 -165.657 c 0
 377.353 -158.454 378 -150.521 378 -146 c 0
 378 10 l 0
 378 10.6826 377.952 11.0928 377.928 11.3652 c 1
EndSplineSet
EndChar

StartChar: C
Encoding: 35 67 35
Width: 709
Flags: W
HStem: -14 56<307.492 503.006> 619 53<309.332 499.098>
VStem: 60 106<211.349 449.331>
LayerCount: 2
Fore
SplineSet
601.117 164.269 m 0
 609.04 176.051 623.175 179.284 634.869 171.099 c 0
 644.38 163.965 647.434 160.864 655.548 153.561 c 1
 671.82 140.001 655.449 115.312 654.487 113.708 c 1
 594.444 21.0088 508.693 -14 394.846 -14 c 0
 202.02 -14 60 141.816 60 329 c 0
 60 520.214 206.038 672 394.846 672 c 0
 508.536 672 597.212 631.405 647.652 548.017 c 1
 654.238 536.163 659.195 515.829 644.3 506.52 c 0
 644.104 506.397 l 1
 627.69 497.165 l 1
 627.472 497.056 l 0
 616.178 491.408 608.189 491.885 602.448 495.051 c 0
 592.568 500.501 591.947 509.64 591.23 512.863 c 1
 582.369 553.631 504.152 619 399.08 619 c 0
 258.659 619 166 493.542 166 330.983 c 0
 166 152.974 266.911 42 398.021 42 c 0
 524.143 42 578.104 119.808 587.47 134.225 c 1
 590.809 140.3 595.039 155.229 601.117 164.269 c 0
EndSplineSet
EndChar

StartChar: c
Encoding: 36 99 36
Width: 501
Flags: W
HStem: -6 47<214.635 358.158> 402 46<214.59 346.484>
VStem: 51 87<127.107 315.223>
LayerCount: 2
Fore
SplineSet
411.758 125.318 m 0
 421.085 129.305 429.325 125.325 434.332 123.015 c 0
 450.071 115.145 452.578 97.3564 446.683 87.0391 c 0
 446.477 86.6777 l 1
 446.24 86.335 l 0
 423.809 53.7061 392.119 -6 280.853 -6 c 0
 144.701 -6 51 98.8154 51 221 c 0
 51 348.198 148.592 448 280.853 448 c 0
 370.803 448 418.21 393.798 431.597 370.113 c 1
 441.782 353.816 429.396 338.558 419.856 333.259 c 0
 419.409 333.01 l 1
 418.939 332.809 l 0
 414.4 330.863 399.845 323.413 387.827 340.238 c 1
 371.417 363.827 332.859 402 281.997 402 c 0
 201.957 402 138 321.816 138 221.026 c 0
 138 116.169 205.267 41 281.997 41 c 0
 361.413 41 382.019 83.1699 399.434 113.162 c 1
 403.147 119.104 406.938 123.258 411.758 125.318 c 0
EndSplineSet
EndChar

StartChar: J
Encoding: 37 74 37
Width: 286
Flags: W
HStem: -2 61<42 125.079> 630 20G<158.288 210.561>
VStem: 138 91<71.2156 649.55>
LayerCount: 2
Fore
SplineSet
229 623.804 m 0
 229 124.131 l 2
 229 70.7334 182.447 -2 75 -2 c 0
 63.1777 -2 42 1.88965 42 20 c 0
 42 37 l 0
 42 63.6182 76.7578 59 81 59 c 0
 123.64 59 138 92.8838 138 126.709 c 0
 138 623.884 l 0
 138 642.597 151.575 650 165 650 c 0
 202 650 l 0
 219.122 650 229 637.812 229 623.804 c 0
EndSplineSet
EndChar

StartChar: j
Encoding: 38 106 38
Width: 202
Flags: W
HStem: -198 52<-51.3654 34.5096> 415 20G<79.4399 122.015> 479 88<63.3419 138.432>
VStem: 58 86<-123.723 427.579 484.786 561.252>
LayerCount: 2
Fore
SplineSet
0 -146 m 0
 27.6924 -146 58 -104.081 58 -61 c 2
 58 409.047 l 0
 58 428.726 73.8799 435 85 435 c 0
 117 435 l 0
 127.029 435 133.513 432.195 137.608 427.904 c 0
 144.501 420.987 144 413.173 144 408.837 c 0
 144 -28 l 0
 144 -172.409 47.0352 -198 7 -198 c 0
 -4.6543 -198 -24.625 -198.073 -30.9609 -196.806 c 0
 -31.3584 -196.727 l 1
 -31.7471 -196.615 l 0
 -43.8701 -193.151 -53 -182.165 -53 -165 c 0
 -53 -139.235 -22.6875 -144.836 -20.9268 -145.057 c 1
 -8.78711 -146.16 -9.64551 -146 0 -146 c 0
101 479 m 0
 74.0254 479 57 501.061 57 523 c 0
 57 549.975 79.0605 567 101 567 c 0
 126.916 567 145 545.203 145 523 c 0
 145 495.772 121.897 479 101 479 c 0
EndSplineSet
EndChar

StartChar: T
Encoding: 47 84 47
Width: 487
Flags: W
HStem: 0 21G<246.761 300.333> 0 21G<246.761 300.333> 589 61<49 210.481 312.909 472>
VStem: 210.54 102.166<283.771 589.095> 217.562 108.147<6.51288 326.506>
LayerCount: 2
Fore
SplineSet
225.672 6.17871 m 0xa8
 216.022 13.2881 217.562 21.6797 217.562 26.3096 c 2xa8
 210.54 584.166 l 0
 210.54 589.136 210.481 589.082 210.481 589.097 c 1
 205.125 588.942 206.515 589 204.926 589 c 0
 82 589 l 0
 70.8291 589 49 591.897 49 611 c 0
 49 628 l 0
 49 654.618 83.7578 650 88 650 c 0
 434 650 l 0
 444.885 650 472 650.487 472 628 c 0
 472 611 l 0
 472 587.285 443.734 589 440 589 c 0
 337.405 589 l 0
 331.16 589 327.85 589.183 325.389 589.188 c 0
 311.479 589.212 312.706 588.388 312.706 584.164 c 0xb0
 325.71 26.1133 l 0
 325.71 10.1924 310.665 0 290 0 c 0
 253 0 l 0
 240.522 0 231.818 1.49609 225.672 6.17871 c 0xa8
EndSplineSet
EndChar

StartChar: t
Encoding: 48 116 48
Width: 398
Flags: W
HStem: -1 21G<187.893 229.263> -1 21G<187.893 229.263> 383 52<33 160.412 259 378>
VStem: 160.412 98.5882<7.01339 383>
LayerCount: 2
Fore
SplineSet
168.044 5.17871 m 0xb0
 158.962 12.1621 160.412 20.4053 160.412 24.9531 c 2
 160.412 378.251 l 0
 160.412 383.54 160.455 383 154.235 383 c 0
 66 383 l 0
 54.8291 383 33 385.897 33 405 c 0
 33 413 l 0
 33 439.618 67.7578 435 72 435 c 0
 340 435 l 0
 350.885 435 378 435.487 378 413 c 0
 378 405 l 0
 378 381.285 349.734 383 346 383 c 0
 282 383 l 0
 276.552 383 273.56 383.178 271.35 383.187 c 0
 258.147 383.235 259 382.11 259 378.252 c 0
 259 25.0312 l 0
 259 17.166 256.981 11.0488 252.189 6.81348 c 0
 243.863 -0.938477 232.643 -1 225.882 -1 c 0
 193.765 -1 l 0
 182.021 -1 173.829 0.496094 168.044 5.17871 c 0xb0
EndSplineSet
EndChar

StartChar: D
Encoding: 49 68 49
Width: 740
Flags: W
HStem: 0 59<210.075 435.438> 591 59<210.068 434.89>
VStem: 119.068 91<59 591> 587.068 103<218.754 438.324>
LayerCount: 2
Fore
SplineSet
218.068 591 m 0
 212.714 591 210.068 586.784 210.068 583.29 c 2
 210.068 81.167 l 0
 210.068 68.751 219.608 59 224.068 59 c 0
 331.068 59 l 0
 472.933 59 587.068 164.271 587.068 330.782 c 0
 587.068 494.938 465.203 591 335.068 591 c 0
 218.068 591 l 0
119.068 623.813 m 0
 119.068 644.138 136.044 650 146.068 650 c 2
 339.068 650 l 0
 538.461 650 690.068 516.777 690.068 328.881 c 0
 690.068 137.01 524.357 0 330.068 0 c 0
 146.068 0 l 0
 136.562 0 129.93 1.49609 125.248 6.17871 c 0
 117.895 13.3105 119.068 21.7285 119.068 26.373 c 0
 119.068 623.813 l 0
EndSplineSet
EndChar

StartChar: d
Encoding: 50 100 50
Width: 521
Flags: W
HStem: 0 52<241.473 381> 383 52<232.848 381> 692 20G<402.259 449.769>
VStem: 54 91<142.457 296.619> 381 86<52 383 435.003 711.517>
LayerCount: 2
Fore
SplineSet
381 71.8037 m 0
 381 373.569 l 2
 381 381.185 377.944 383 369 383 c 0
 315.34 383 l 0
 220.045 383 145 308.899 145 219.857 c 0
 145 132.354 225.806 52 317 52 c 0
 368 52 l 0
 378.993 52 381 59.4111 381 71.8037 c 0
423 0 m 0
 305 0 l 2
 144.416 0 54 98.6152 54 227.538 c 0
 54 360.579 182.665 435 320.993 435 c 0
 372 435 l 0
 379.666 435 381 439.047 381 443 c 0
 381 684 l 0
 381 705.08 396.518 712 408 712 c 0
 440 712 l 0
 459.538 712 467 698.023 467 684 c 0
 467 41.7783 l 0
 467 10.4082 458.297 0 423 0 c 0
EndSplineSet
EndChar

StartChar: N
Encoding: 51 78 51
Width: 699
Flags: W
HStem: 0 21G<129.302 174.587> 0 21G<129.302 174.587> 630 20G<131.413 138.555 175.025 191.317 591.417 631.542>
VStem: 119 68<0 526.957> 576.82 66.1799<186.852 649.988>
LayerCount: 2
Fore
SplineSet
608.004 3.99414 m 1xb8
 199.043 513.943 l 2
 193.374 521.415 189.981 525.018 187.76 527.191 c 1
 187.08 522.181 187 517.484 187 513 c 0
 187 27 l 0
 187 11.9775 181.174 0 168 0 c 0
 138 0 l 0
 120.604 0 119 16.3555 119 26.1943 c 0
 119 623.806 l 0
 119 638.381 124.826 650 138 650 c 0
 138.278 650 l 1
 138.555 649.984 l 0
 157.487 648.933 167.051 650 183 650 c 0
 199.634 650 208.755 639.181 214.525 632.585 c 0
 214.74 632.34 l 1
 574.848 186.821 l 1
 574.94 186.691 l 1
 576.292 190.091 576.82 195.501 576.82 200 c 0
 576.82 623 l 0
 576.82 639.156 584.835 650 598 650 c 0
 623 650 l 0
 640.083 650 643 633.025 643 623.799 c 0
 643 26.0205 l 0
 643 18.6592 645.347 1.69043 634.574 -6.11523 c 0
 621.614 -15.791 611.21 -0.34375 608.004 3.99414 c 1xb8
EndSplineSet
EndChar

StartChar: n
Encoding: 52 110 52
Width: 462
Flags: W
HStem: 415 20G<375.871 393.373>
VStem: 50 53<1.72969 357.868> 358 52<158.548 434.671>
LayerCount: 2
Fore
SplineSet
50 23 m 2
 50 381 l 0
 50 402.698 61.0322 417.571 75.583 426.114 c 0
 105.626 444.781 148.638 435.108 172.769 403.943 c 1
 358 158.548 l 1
 358 405 l 0
 358 422.252 367.741 435 384 435 c 0
 402.745 435 410 419.31 410 405 c 0
 410 29 l 0
 410 16.3447 403.922 8.2002 396.016 3.92578 c 0
 381.506 -3.70215 365.429 2.48242 357.629 11.0762 c 1
 114.551 348.256 l 1
 109.617 354.445 106.098 356.836 104.25 357.903 c 1
 103.366 357.153 103 355.983 103 355 c 0
 103 23 l 0
 103 9.2998 88.874 1.38965 75.7461 1.19531 c 0
 58.8799 0.945312 50 11.8164 50 23 c 2
EndSplineSet
EndChar

StartChar: P
Encoding: 53 80 53
Width: 622
Flags: W
HStem: 0 21G<141.315 189.781> 0 21G<141.315 189.781> 298 52<210.076 416.996> 598 52<210.071 411.341>
VStem: 119.068 91<6.51394 298 350 598> 480.068 99<406.043 537.241>
LayerCount: 2
Fore
SplineSet
146.068 650 m 0xbc
 318.068 650 l 2
 456.402 650 579.068 599.369 579.068 474 c 0
 579.068 362.091 490.341 298 375.168 298 c 0
 216.068 298 l 0
 213.96 298 210.068 291.309 210.068 278.649 c 0
 210.068 26.123 l 0
 210.068 7.40527 196.493 0 183.068 0 c 0
 146.068 0 l 0
 136.562 0 129.93 1.49609 125.248 6.17871 c 0
 117.895 13.3105 119.068 21.7285 119.068 26.373 c 0
 119.068 623.813 l 0
 119.068 644.138 136.044 650 146.068 650 c 0xbc
210.068 363.457 m 0
 210.068 356.736 219.924 350 227.068 350 c 2
 336.713 350 l 0
 419.031 350 480.068 403.474 480.068 467.271 c 0
 480.068 551.493 406.372 598 318.068 598 c 0
 221.068 598 l 0
 213.56 598 210.068 591.525 210.068 591.271 c 0
 210.068 363.457 l 0
EndSplineSet
EndChar

StartChar: p
Encoding: 54 112 54
Width: 510
Flags: W
HStem: 7 52<136.003 278.078> 390 52<136.002 284.871>
VStem: 50.001 86<-169.28 7 59 390> 365.001 91<145.025 309.361>
LayerCount: 2
Fore
SplineSet
136.001 370.196 m 0
 136.001 67.4873 l 2
 136.001 61.208 138.877 59 148.001 59 c 0
 201.837 59 l 0
 296.521 59 365.001 143.821 365.001 222.143 c 0
 365.001 323.211 294.49 390 204.111 390 c 0
 149.001 390 l 0
 138.008 390 136.001 382.589 136.001 370.196 c 0
94.001 442 m 0
 217.754 442 l 2
 372.845 442 456.001 342.94 456.001 214.462 c 0
 456.001 89.4307 336.005 7 196.152 7 c 0
 145.001 7 l 0
 137.335 7 136.001 2.95312 136.001 -1 c 0
 136.001 -149 l 0
 136.001 -170.53 119.603 -176 109.001 -176 c 0
 77.001 -176 l 0
 67.8271 -176 61.375 -173.693 57.0957 -169.608 c 0
 49.7852 -162.63 50.001 -154.009 50.001 -149 c 0
 50.001 399.44 l 0
 50.001 431.492 58.4238 442 94.001 442 c 0
EndSplineSet
EndChar

StartChar: B
Encoding: 55 66 55
Width: 660
Flags: W
HStem: 1 61<210 450.804> 311 61<210 414.53> 597 54<210.001 402.701>
VStem: 119 91<62 311 372.943 597> 466.721 100.279<419.862 540.851> 510 100<111.943 245.302>
LayerCount: 2
Fore
SplineSet
337 311 m 0xf4
 232 311 l 2
 210.194 311 210 303.494 210 295.618 c 0
 210 66.8066 l 0
 210 60.6211 214.498 62 232 62 c 0
 335 62 l 0
 437.767 62 510 96.0537 510 173.521 c 0
 510 258.922 438.342 311 337 311 c 0xf4
225 597 m 0
 211.319 597 210 594.505 210 579.766 c 2
 210 372.943 l 1
 253.809 372.812 279.522 372 345 372 c 0
 412.777 372 466.721 422.688 466.721 478.276 c 0xf8
 466.721 557.354 389.706 597 304 597 c 0
 225 597 l 0
119 624.806 m 0
 119 647.258 137.15 651 146 651 c 2
 348 651 l 0
 469.662 651 567 576.012 567 474.433 c 0xf8
 567 421.274 534.177 372.649 484.514 342.018 c 1
 484.453 341.986 484.68 341.487 485.931 341.214 c 1
 560.331 323.04 610 249.112 610 189.209 c 0xf4
 610 56.3867 500.116 1 379.426 1 c 0
 146 1 l 0
 126.654 1 119 14.1699 119 27.1943 c 0
 119 624.806 l 0
EndSplineSet
EndChar

StartChar: b
Encoding: 56 98 56
Width: 506
Flags: W
HStem: 0 52<136 280.408> 383 52<136 279.736> 692 20G<70.1162 117.665>
VStem: 50 86<52 383 435 711.513> 365 91<135.193 296.93>
LayerCount: 2
Fore
SplineSet
148 383 m 0
 137.072 383 136 379.677 136 373.569 c 2
 136 71.8037 l 0
 136 56.7568 139.61 52 149 52 c 0
 200 52 l 0
 296.298 52 365 122.506 365 219.857 c 0
 365 301.966 292.65 383 201.836 383 c 0
 148 383 l 0
456 227.538 m 0
 456 95.1748 369.017 0 212 0 c 2
 94 0 l 0
 55.3613 0 50 13.6963 50 41.7783 c 0
 50 684 l 0
 50 703.977 63.2324 712 77 712 c 0
 109 712 l 0
 126.33 712 136 699.009 136 684 c 0
 136 443 l 0
 136 437.479 139.096 435 145 435 c 0
 196.151 435 l 0
 340.292 435 456 347.987 456 227.538 c 0
EndSplineSet
EndChar

StartChar: M
Encoding: 57 77 57
Width: 785
Flags: W
HStem: 0 21G<129.302 168.185 674.056 717.504> 0 21G<129.302 168.185 674.056 717.504> 630 20G<131.413 138.499 183.321 201.844 660.094 723.561>
VStem: 119 61.763<0 514.92> 650.916 91.0844<7.29175 528.549>
LayerCount: 2
Fore
SplineSet
650.916 27 m 0xb8
 650.916 521 l 2
 650.916 525.281 650.481 527.467 650.279 528.604 c 1
 648.111 524.462 647.913 523.584 647.133 521.483 c 1
 435.961 6.43652 l 1
 431.942 -4.05078 426.105 -10.3174 419.244 -12.9375 c 0
 402.275 -19.416 392.136 -3.2168 388.435 6.44336 c 1
 180.763 514.92 l 1
 180.763 27 l 0
 180.763 13.252 175.369 0 161 0 c 0
 138 0 l 0
 120.604 0 119 16.3555 119 26.1943 c 0
 119 623.806 l 0
 119 638.381 124.826 650 138 650 c 0
 138.25 650 l 1
 138.499 649.987 l 0
 159.77 648.924 175.477 650 191.165 650 c 0
 212.523 650 226.355 636.777 233.018 621.832 c 1
 431.738 145.714 l 0
 431.893 145.343 471.431 241.281 629.786 624.642 c 1
 637.179 643.119 652.629 650 667.558 650 c 0
 715 650 l 0
 732.122 650 742 637.817 742 623.814 c 0
 742 26.3994 l 0
 742 17.5029 739.693 11.2451 735.608 7.0957 c 0
 728.63 -0.21582 720.009 0 715 0 c 0
 679 0 l 0
 669.111 0 662.213 1.49609 657.343 6.17871 c 0
 649.695 13.5312 650.916 22.2119 650.916 27 c 0xb8
EndSplineSet
EndChar

StartChar: m
Encoding: 58 109 58
Width: 574
Flags: W
HStem: 0 21G<70.0161 81.6602 459.202 502.712> 0 21G<70.0161 81.6602 459.202 502.712> 415 21G<97.2515 129.172 440.513 473.919>
VStem: 50 54<0.474221 366.41> 436 87<6.18497 370.455>
LayerCount: 2
Fore
SplineSet
390.577 391.53 m 1xb8
 402.801 421.328 427.226 433.937 453.8 435 c 1
 494.039 435 523 415.744 523 363.297 c 0
 523 25.8135 l 0
 523 7.31738 509.425 0 496 0 c 0
 464 0 l 0
 454.403 0 447.819 1.49023 443.023 5.85059 c 0
 435.21 12.9541 436 22.0098 436 27 c 0
 436 368 l 0
 436 370.437 435.869 370.489 435.862 370.549 c 1
 433.978 368.317 433.019 366.171 432.335 364.414 c 1
 289.696 14.6416 l 1
 287.52 8.6748 283.859 1.13281 276.001 -2.02832 c 0
 259.848 -8.52539 252.193 8.23047 249.512 14.3574 c 1
 112.708 354.302 l 1
 109.255 362.647 106.371 365.467 105.236 366.505 c 1
 104.385 364.498 104 361.493 104 359 c 0
 104 23 l 0
 104 4.55957 86.3203 0 77 0 c 0
 63.0322 0 50 8.0498 50 22.9473 c 0
 50 373.851 l 0
 50 409.828 80.5029 436 114 436 c 0
 144.345 436 163.737 417.984 174.554 394.005 c 1
 219.049 301.469 244.385 240.901 286.227 143.803 c 1
 286.535 143.145 286.87 142.496 287.036 142.172 c 1
 287.833 143.729 l 1
 390.577 391.53 l 1xb8
EndSplineSet
EndChar

StartChar: Y
Encoding: 59 89 59
Width: 672
Flags: W
HStem: 0 21G<345.823 390.835> 0 21G<345.823 390.835> 631 20G<609.559 616.837>
VStem: 320.059 99.0778<7.29175 335.387>
LayerCount: 2
Fore
SplineSet
415.893 335.938 m 1xb0
 417.572 324.021 419.137 321.896 419.137 310.522 c 2
 419.137 26.3975 l 0
 419.137 17.502 416.473 11.2451 411.753 7.0957 c 0
 403.689 -0.21582 393.729 0 387.94 0 c 0
 350.94 0 l 0
 340.706 0 333.527 1.53418 328.334 5.54492 c 0
 319.184 12.3984 320.059 21.3799 320.059 26.3574 c 0
 320.059 310.576 l 0
 320.059 322.966 307.821 331.935 300.671 340.612 c 1
 199.434 461.203 151.179 518.244 77.7725 620.241 c 1
 59.7979 644.651 87.6924 652.315 92.7002 652.923 c 1
 92.8613 651.64 102.723 659.259 145.037 652.947 c 1
 161.938 651.33 171.75 645.282 179.034 634.877 c 1
 376.256 388.057 l 1
 379.54 384.05 380.371 383.595 380.946 383.101 c 1
 382.87 384.713 384.429 386.568 384.874 387.067 c 1
 572.804 637.812 l 0
 587.381 658.22 606.178 651 612.94 651 c 0
 620.733 651 624.46 648.871 626.793 647.423 c 0
 642.657 637.873 635.579 620.762 631.146 614.315 c 1
 415.893 335.938 l 1xb0
EndSplineSet
EndChar

StartChar: y
Encoding: 60 121 60
Width: 498
Flags: W
HStem: 415 20G<62.3682 107.901 425.432 442.257>
VStem: 401.861 48.7529<416.062 435.821>
LayerCount: 2
Fore
SplineSet
135.619 -181.663 m 0
 120.301 -175.993 123.683 -161.178 127.393 -153.907 c 0
 162.305 -82.207 208.673 12.7725 211.115 19.9688 c 0
 211.255 20.3809 l 1
 211.437 20.7812 l 0
 215.81 30.4512 215.915 29.0029 210.466 39.4434 c 1
 47.8008 401.223 l 1
 45.5156 406.195 44.3555 411.108 44.249 414.752 c 0
 43.8389 428.688 56.7373 435 67.999 435 c 0
 97.999 435 l 0
 117.804 435 126.053 420.912 129.913 412.97 c 1
 263.4 122.859 l 1
 264.729 119.94 265.853 119.329 266.095 119.138 c 1
 267.283 120.41 267.912 121.805 268.302 122.694 c 1
 322.944 249.122 354.475 289.75 401.636 415.512 c 0
 401.74 415.79 l 1
 401.861 416.062 l 0
 407.776 429.371 418.864 437 431.999 437 c 0
 452.516 437 452.445 415.386 450.614 409.186 c 0
 450.516 408.851 l 1
 450.392 408.523 l 0
 392.565 255.401 253.649 -7.53418 187.121 -159.2 c 1
 181.976 -174.012 171.783 -184 155.967 -184 c 0
 147.237 -184 140.974 -183.646 135.619 -181.663 c 0
EndSplineSet
EndChar

StartChar: R
Encoding: 61 82 61
Width: 657
Flags: W
HStem: 0 21G<141.315 190.211 508.283 566.224> 0 21G<141.315 190.211 508.283 566.224> 298 50.3467<383.058 440.655> 598 52<211.802 433.186>
VStem: 119.068 92.7308<6.51394 598> 498.043 100.026<402.228 537.033>
LayerCount: 2
Fore
SplineSet
598.068 474 m 0xbc
 598.068 361.602 498.18 298 399.081 298 c 0
 390.235 298 385.755 297.77 382.924 297.473 c 1
 385.054 294.003 386.224 292.671 387.509 291.063 c 1
 584.22 32.6963 l 1
 599.021 12.6465 570.379 0 562.068 0 c 0
 515.068 0 l 0
 501.498 0 489.091 2.79004 480.937 12.6768 c 1
 244.641 314.664 l 0
 239.042 321.792 237.042 327.815 237.776 333.352 c 0
 240.114 351.006 262.027 349.664 273.093 348.227 c 1
 295.407 344.537 324.157 347.425 363.694 348.347 c 0
 443.507 350.207 498.043 402.037 498.043 466.401 c 0
 498.043 551.184 427.576 598 346.94 598 c 0
 223.504 598 l 0
 215.514 598 211.799 591.482 211.799 591.227 c 0
 211.799 26.126 l 0
 211.799 7.40625 197.354 0 183.068 0 c 0
 146.068 0 l 0
 136.562 0 129.93 1.49609 125.248 6.17871 c 0
 117.895 13.3105 119.068 21.7285 119.068 26.373 c 0
 119.068 623.813 l 0
 119.068 644.138 136.044 650 146.068 650 c 0
 346.94 650 l 0
 474.339 650 598.068 599.334 598.068 474 c 0xbc
EndSplineSet
EndChar

StartChar: r
Encoding: 62 114 62
Width: 447
Flags: W
HStem: 0 21G<72.3149 111.819 324.516 380.187> 0 21G<72.3149 111.819 324.516 380.187> 388 47<138.728 266.072>
VStem: 50.0684 88.6601<7.28778 388> 295.817 91.2512<261.341 360.389>
LayerCount: 2
Fore
SplineSet
150.812 388 m 0xb8
 137.687 388 138.728 387.741 138.728 377.549 c 2
 138.728 26.0068 l 0
 138.728 17.291 136.196 11.1611 131.708 7.0957 c 0
 124.041 -0.21582 114.571 0 109.068 0 c 0
 77.0684 0 l 0
 67.5615 0 60.9297 1.49609 56.248 6.17871 c 0
 48.8945 13.2041 50.0684 21.4971 50.0684 26.0723 c 0
 50.0684 409.203 l 0
 50.0684 427.688 63.6445 435 77.0684 435 c 0
 221.118 435 l 0
 311.423 435 387.068 379.62 387.068 304.021 c 0
 387.068 240.741 312.535 205.008 266.46 200.842 c 1
 389.469 28.1318 l 1
 401.195 10.6934 389.305 0 371.068 0 c 0
 332.068 0 l 0
 316.964 0 305.866 4.1748 298.841 12.6885 c 1
 150.369 207.865 l 1
 144.516 215.888 142.568 220.356 142.851 225.499 c 0
 143.934 245.144 173.262 238.855 176.59 238.687 c 1
 181.335 238.545 184.421 238.537 186.459 238.536 c 0
 247.419 238.508 295.817 254.376 295.817 312.873 c 0
 295.817 356.273 252.087 388 204.64 388 c 0
 150.812 388 l 0xb8
EndSplineSet
EndChar

StartChar: L
Encoding: 63 76 63
Width: 526
Flags: W
HStem: 1 61<213.462 479> 631 20G<143.606 195.145>
VStem: 119 94.4615<61.9859 644.607>
LayerCount: 2
Fore
SplineSet
183 651 m 0
 207.291 651 213.462 635.141 213.462 624.887 c 2
 213.462 66.8359 l 0
 213.462 60.6133 218.536 62 238.282 62 c 0
 446 62 l 0
 457.171 62 479 59.1025 479 40 c 0
 479 23 l 0
 479 -3.41016 445.445 1 441 1 c 0
 146 1 l 0
 126.654 1 119 14.166 119 27.1865 c 0
 119 624.627 l 0
 119 633.848 120.496 640.279 125.179 644.821 c 0
 132.531 652.174 141.212 651 146 651 c 0
 183 651 l 0
EndSplineSet
EndChar

StartChar: l
Encoding: 64 108 64
Width: 217
Flags: W
HStem: 0 52<136 209.901> 692 20G<70.1162 117.665>
VStem: 50 86<53.3026 711.513>
LayerCount: 2
Fore
SplineSet
50 63.1533 m 0
 50 684 l 2
 50 703.977 63.2324 712 77 712 c 0
 109 712 l 0
 126.33 712 136 699.009 136 684 c 0
 136 72.3555 l 0
 136 56.8896 139.61 52 149 52 c 0
 189 52 l 0
 210.5 52 210 29.668 210 27 c 0
 210 20.5195 210.708 0 193 0 c 0
 111 0 l 0
 69.2725 0 50 33.3789 50 63.1533 c 0
EndSplineSet
EndChar

StartChar: V
Encoding: 65 86 65
Width: 716
Flags: W
HStem: 633 20G<640.302 657.574>
LayerCount: 2
Fore
SplineSet
81.0459 616.126 m 1
 73.2686 633.104 86.5264 649.473 100.189 650.945 c 0
 122.405 653.166 132.438 652.81 148.405 650.932 c 0
 148.644 650.903 l 1
 148.881 650.864 l 0
 167.359 647.783 175.761 634.142 180.476 622.827 c 1
 389.334 141.935 l 1
 390.212 140.108 l 1
 391.011 141.861 l 1
 604.006 631.846 l 0
 612.567 652.391 635.366 653 645.237 653 c 0
 669.911 653 670.544 626.161 666.502 616.355 c 1
 394.693 -2.80762 l 0
 390.783 -11.7588 386.859 -17.2988 380.326 -19.9482 c 0
 362.63 -27.126 355.231 -6.7002 352.766 -0.723633 c 1
 81.0459 616.126 l 1
EndSplineSet
EndChar

StartChar: v
Encoding: 66 118 66
Width: 483
Flags: W
HStem: 415 20G<61.4077 106.959 409.432 426.479>
LayerCount: 2
Fore
SplineSet
202.303 26.3057 m 1
 46.5664 402.192 l 2
 44.7852 407.3 43.7607 411.6 43.6807 415.304 c 0
 43.3936 428.71 55.8164 435 66.999 435 c 0
 96.999 435 l 0
 116.919 435 125.272 420.835 129.076 413.062 c 0
 129.214 412.778 l 1
 255.994 103.326 l 1
 256.612 101.642 258.565 100.911 258.787 100.872 c 1
 259.319 101.269 260.271 102.722 260.685 103.661 c 1
 385.762 413.838 l 1
 385.861 414.062 l 0
 391.776 427.371 402.864 435 415.999 435 c 0
 436.96 435 436.498 412.895 434.417 406.927 c 1
 275.764 19.7393 l 1
 271.798 9.90234 263.474 4.46484 256.583 1.94922 c 0
 234.88 -5.97266 211.61 5.73145 202.303 26.3057 c 1
EndSplineSet
EndChar

StartChar: S
Encoding: 71 83 71
Width: 540
Flags: W
HStem: -15 54<198.056 342.705> 614 52<238.183 382.238>
VStem: 92 98<431.743 561.649> 399 99<98.0919 230.516>
LayerCount: 2
Fore
SplineSet
464.766 550.787 m 1
 458.387 545.369 456.454 544.743 452.209 542.924 c 0
 426.746 530.193 418.289 553.87 416.551 556.651 c 1
 392.044 594.879 354.633 614 316.603 614 c 0
 229.238 614 190 555.436 190 489.944 c 0
 190 422.868 247.23 400.511 314.394 374.747 c 1
 411.936 336.576 498 300.323 498 185.621 c 0
 498 65.5488 397.947 -15 274.534 -15 c 0
 191.065 -15 135.219 18.582 99.5977 75.5752 c 1
 92.1562 86.7373 93.3154 100.202 103.588 108.54 c 1
 113.271 116.817 117.06 117.838 122.039 120.683 c 0
 122.642 121.027 l 1
 123.286 121.285 l 0
 135.421 126.139 143.603 118.255 146.809 114.247 c 0
 147.08 113.908 l 1
 147.32 113.547 l 0
 150.551 108.701 152.126 105.106 152.468 104.425 c 1
 174.224 77.3916 211.838 39 260.89 39 c 0
 351.538 39 399 95.4756 399 164.981 c 0
 399 251.416 329.83 271.581 245.854 304.469 c 1
 166.311 339.057 92 376.488 92 480.904 c 0
 92 590.927 193.714 666 313.192 666 c 0
 360.358 666 417.872 653.443 465.705 592.38 c 0
 477.069 579.393 477.411 560.147 464.766 550.787 c 1
EndSplineSet
EndChar

StartChar: s
Encoding: 72 115 72
Width: 390
Flags: W
HStem: 0 51<61.3816 236.778> 387 48<146.704 309.778>
VStem: 47 83<281.141 370.016> 257 85<69.9232 161.897>
LayerCount: 2
Fore
SplineSet
210.793 255.403 m 1
 280.931 236.77 342 209.936 342 119.809 c 0
 342 46.3896 266.64 0 198 0 c 0
 88 0 l 0
 71.832 0 61 12.2139 61 25 c 0
 61 40.2549 73.0098 51 87 51 c 0
 194 51 l 0
 230.301 51 257 86.918 257 122.287 c 0
 257 158.509 218.343 177.367 176.237 189.191 c 1
 106.506 207.711 47 233.587 47 305.732 c 0
 47 377.385 108.176 435 179 435 c 0
 281 435 l 0
 294.334 435 310 427.554 310 412 c 0
 310 396.369 297.571 387 285 387 c 0
 193 387 l 0
 155.99 387 130 354.442 130 320.439 c 0
 130 283.526 169.098 267.39 210.793 255.403 c 1
EndSplineSet
EndChar

StartChar: H
Encoding: 73 72 73
Width: 702
Flags: W
HStem: 0 21G<141.315 186.339 576.358 620.573> 0 21G<141.315 186.339 576.358 620.573> 301 61<211.509 552.638> 630 20G<139.356 189.056 574.001 626.629>
VStem: 119.068 92.4286<8.36034 300.986 362.004 641.967> 552.64 92.4286<7.29175 301 362.001 649.443>
LayerCount: 2
Fore
SplineSet
211.497 623.666 m 0xbc
 211.497 374.552 l 2
 211.497 368.086 221.535 362 228.343 362 c 0
 541.058 362 l 0
 552.674 362 552.64 362.752 552.64 372.631 c 0
 552.64 623.906 l 0
 552.64 642.603 566.934 650 581.068 650 c 0
 618.068 650 l 0
 635.19 650 645.068 637.817 645.068 623.814 c 0
 645.068 26.3994 l 0
 645.068 17.5029 642.763 11.2451 638.678 7.0957 c 0
 631.698 -0.21582 623.077 0 618.068 0 c 0
 581.068 0 l 0
 571.647 0 565.038 1.53418 560.257 5.54492 c 0
 551.834 12.3789 552.64 21.334 552.64 26.2979 c 0
 552.64 292.295 l 0
 552.64 297.089 550.104 301 535.793 301 c 0
 234.661 301 l 0
 216.329 301 211.683 295.969 211.497 294.727 c 1
 211.497 26.376 l 0
 211.497 20.2422 211.848 13.5635 207.34 8.10352 c 0
 200.377 -0.619141 189.609 0 183.068 0 c 0
 146.068 0 l 0
 136.562 0 129.93 1.49609 125.248 6.17871 c 0
 117.895 13.3105 119.068 21.7285 119.068 26.373 c 0
 119.068 623.813 l 0
 119.068 642.576 132.645 650 146.068 650 c 0
 183.068 650 l 0
 195.043 650 201.918 647.096 206.166 642.327 c 0
 213.262 634.635 211.497 627.075 211.497 623.666 c 0xbc
EndSplineSet
EndChar

StartChar: h
Encoding: 74 104 74
Width: 490
Flags: W
HStem: 0 21G<72.3149 111.775 372.233 416.081> 0 21G<72.3149 111.775 372.233 416.081> 198 53<137.167 347.282> 415 20G<369.815 417.941> 692 20G<70.1846 118.433>
VStem: 50.0684 88.1774<7.28808 198 251 711.261> 347.891 89.1774<5.86123 197.093 251.001 434.332>
LayerCount: 2
Fore
SplineSet
347.891 255.742 m 0xbe
 347.891 409.392 l 2
 347.891 427.74 362.562 435 377.068 435 c 0
 409.068 435 l 0
 426.813 435 437.068 423.3 437.068 409.187 c 0
 437.068 25.8135 l 0
 437.068 7.13477 423.093 0 409.068 0 c 0
 377.068 0 l 0
 367.398 0 360.616 1.53418 355.709 5.54492 c 0
 347.064 12.2607 347.891 21.0625 347.891 25.9404 c 0
 347.891 191.346 l 0
 347.891 196.037 347.553 196.541 347.393 197.12 c 1
 345.061 197.82 341.055 198 338.165 198 c 0
 156.617 198 l 0
 138.516 198 137.165 193.427 137.165 182.825 c 1
 138.246 26.0381 l 1
 138.246 17.2646 135.761 11.168 131.34 7.0957 c 0
 123.797 -0.21582 114.481 0 109.068 0 c 0
 77.0684 0 l 0
 67.5615 0 60.9297 1.49609 56.248 6.17871 c 0
 48.8945 13.3213 50.0684 21.752 50.0684 26.4033 c 0
 50.0684 684 l 0
 50.0684 703.977 63.3008 712 77.0684 712 c 0
 109.068 712 l 0
 127.797 712 138.246 699.028 138.246 683.977 c 0
 137.165 262.729 l 0
 137.165 249.694 139.278 251 146.891 251 c 0
 340.326 251 l 0
 346.271 251 346.971 250.993 347.818 251.001 c 1
 347.977 255.847 347.891 254.217 347.891 255.742 c 0xbe
EndSplineSet
EndChar

StartChar: zero
Encoding: 75 48 75
Width: 665
Flags: W
HStem: 11 52<239.697 384.164> 642 51<258.395 402.233>
VStem: 43 102<192.769 456.368> 500 101<246.218 514.6>
LayerCount: 2
Fore
SplineSet
500 354.917 m 0
 500 550.101 426.766 642 338.007 642 c 0
 195.376 642 145 477.062 145 334.618 c 0
 145 204.995 191.889 63 312.396 63 c 0
 440.294 63 500 219.813 500 354.917 c 0
43 324.798 m 0
 43 501.232 156.756 693 328.403 693 c 0
 537.32 693 601 540.602 601 392.804 c 0
 601 206.958 497.902 11 293.188 11 c 0
 120.592 11 43 178.483 43 324.798 c 0
EndSplineSet
EndChar

StartChar: one
Encoding: 76 49 76
Width: 645
Flags: W
HStem: 0 21G<320.247 363.712> 0 21G<320.247 363.712> 579 60.002<240.014 297.656> 629 20G<356.052 365.095>
VStem: 298 86<6.51265 579>
LayerCount: 2
Fore
SplineSet
356.524 649 m 1x18
 357 649 l 2x18
 373.19 649 384 636.888 384 621.837 c 0
 384 26.1924 l 0
 384 7.4248 370.425 0 357 0 c 0
 325 0 l 0
 315.493 0 308.861 1.49609 304.179 6.17871 c 0
 296.826 13.2832 298 21.6709 298 26.2979 c 0
 298 572.236 l 0
 298 579.445 297.324 579 289 579 c 0
 263 579 l 0
 249.586 579 240 587.698 240 600 c 0
 240 617 l 0
 240 637.359 259.744 638.848 263.465 639.002 c 1xa8
 310.703 644.259 315.267 645.071 356.052 648.955 c 0
 356.524 649 l 1x18
EndSplineSet
EndChar

StartChar: two
Encoding: 77 50 77
Width: 665
Flags: W
HStem: 0 70<244.839 549.312> 448 21G<132.63 159.849> 622 48<242.365 400.127>
VStem: 114.011 64<449.285 560.793> 463.011 88<438.387 558.647>
LayerCount: 2
Fore
SplineSet
333 622 m 0
 243.361 622 178.011 573.276 178.011 482 c 0
 178.011 466.702 173.688 448 146.011 448 c 0
 119.249 448 114.011 467.799 114.011 480 c 0
 114.011 601.656 198.605 670 324.199 670 c 0
 446.006 670 551.011 594.826 551.011 488.064 c 0
 551.011 373.854 381.328 219.211 247.048 72.7383 c 1
 244.558 69.8623 244.915 70.0859 244.839 69.9844 c 1
 248.432 69.8662 250.91 70 252.692 70 c 0
 516.011 70 l 0
 534.295 70 552.011 61.2998 552.011 36 c 0
 552.011 10.5488 531.93 0 516.011 0 c 0
 133.011 0 l 0
 118.774 0 108.352 1.45215 100.728 6.92578 c 0
 85.3516 17.6182 93.7988 34.9678 103.107 46.8311 c 1
 254.158 227.061 463.011 401.628 463.011 503.842 c 0
 463.011 551.927 402.641 622 333 622 c 0
EndSplineSet
EndChar

StartChar: three
Encoding: 78 51 78
Width: 665
Flags: W
HStem: 0 21G<190.939 247.359> 0 21G<190.939 247.359> 365 55.1592<338.172 401.882> 593 58<142.93 351.029>
LayerCount: 2
Fore
SplineSet
337.557 593 m 0xb0
 167 593 l 2
 145.833 593 142 614.253 142 623 c 0
 142 640.744 157.459 650 169 650 c 0
 271.167 650 358.499 651 456 651 c 0
 477.181 651 487.075 651.007 495.135 645.57 c 0
 511.643 634.908 495.186 617.812 491.049 612.529 c 1
 342.548 424.999 l 1
 338.172 420.159 l 1
 344.957 419.887 343.922 420 345.953 420 c 0
 382.271 420 397.288 416.093 420 416.093 c 0
 448.129 416.093 501 383.793 501 334.047 c 0
 501 290.448 473.181 246.108 449.888 217.669 c 1
 389.231 139.663 353.164 94.5137 279.695 20.2041 c 1
 262.786 3.48145 258.718 0 236 0 c 0
 196 0 l 0
 185.879 0 178.139 0.379883 171.828 4.85059 c 0
 157.29 14.8721 168.664 30.959 175.028 39.0869 c 0
 374.456 271.294 l 1
 381.205 279.809 402.848 303.727 406.084 327.339 c 0
 408.187 343.021 389.346 365 348.351 365 c 0
 289.498 365 275.517 362 228 362 c 0
 219.318 362 206.725 361.632 197.886 367.642 c 0
 184.466 376.563 190.71 391.707 197.906 401.282 c 1
 348.307 579.541 l 1
 351.321 582.751 350.981 583.762 351.024 584.506 c 0
 351.249 588.365 343.517 593 337.557 593 c 0xb0
EndSplineSet
EndChar

StartChar: four
Encoding: 79 52 79
Width: 665
Flags: W
HStem: 0 21G<406.678 463.385> 0 21G<406.678 463.385> 203 58<170.694 384.013 474.317 560.815> 634 20G<395.763 454.986>
VStem: 384.158 90.1593<1.39132 202.996 261 550.994>
LayerCount: 2
Fore
SplineSet
371.143 261 m 0x38
 381.701 261 384.158 267.37 384.158 271 c 2
 384.158 550.994 l 1
 303.017 445.432 240.542 363.311 171.677 262.511 c 1
 170.694 261.059 l 1
 171.619 261.038 173.006 261 175.317 261 c 0
 371.143 261 l 0x38
474.645 25.9736 m 0
 474.761 15.8594 471.453 0 455.317 0 c 2
 415.317 0 l 0xb8
 398.038 0 386.736 12.0811 386.736 23.8262 c 0
 386.736 191.563 l 0
 386.736 198.023 381.992 203 374.644 203 c 0
 110.317 203 l 0
 95.417 203 87.1426 203.396 80.3525 208.33 c 0
 66.4326 218.442 78.6611 233.449 82.1885 238.051 c 1
 374.125 635.069 l 1
 375.568 634.178 381.338 654 410.188 654 c 0
 448.148 654 l 0
 461.823 654 474.317 645.529 474.317 632.546 c 0
 474.317 268.802 l 0
 474.317 261.656 477.939 261 481.317 261 c 0
 539.317 261 l 0
 551.726 261 570.317 256.395 570.317 233 c 0
 570.317 219.105 567.023 211.723 561.225 207.331 c 0
 552.47 200.702 544.485 203 541.317 203 c 0
 481.317 203 l 0
 479.505 203 474.317 197.311 474.317 192.517 c 0
 474.317 37.1689 l 0
 474.317 32.6387 474.615 28.5713 474.645 25.9736 c 0
EndSplineSet
EndChar

StartChar: five
Encoding: 80 53 80
Width: 645
Flags: W
HStem: 0 21G<183.654 246.774> 0 21G<183.654 246.774> 371 53<251 366.134> 594 56<251 457.262>
VStem: 157 94<424 594> 371 95<271.474 364.688>
LayerCount: 2
Fore
SplineSet
267.683 13.2852 m 0xbc
 260.464 4.82227 251.548 0 242 0 c 2
 188 0 l 0
 179.308 0 175.422 2.32031 172.948 3.91211 c 0
 158.995 12.6572 164.403 27.0039 167.68 31.7881 c 0
 167.831 32.0098 l 1
 328.953 241.466 l 1
 354.025 275.025 371 306.114 371 328.167 c 0
 371 357.074 355.532 371 308 371 c 0
 189 371 l 0
 170.617 371 157 385.104 157 398.996 c 0
 157 619.107 l 0
 157 641.812 172.868 650 190 650 c 0
 441 650 l 0
 446.08 650 452.428 650.082 457.501 646.849 c 0
 467.082 640.741 467 629.762 467 623 c 0
 467 610.466 463.91 603.756 459.158 599.505 c 0
 451.232 592.415 443.219 594 440 594 c 0
 263 594 l 0
 248.514 594 251 596.114 251 581.723 c 0
 251 435.333 l 0
 251 433.066 251.8 424 255 424 c 0
 342 424 l 0
 407.499 424 466 399.408 466 335.097 c 0
 466 287.568 445.219 254.884 419.134 219.017 c 1
 267.911 13.5527 l 1
 267.683 13.2852 l 0xbc
EndSplineSet
EndChar

StartChar: six
Encoding: 81 54 81
Width: 665
Flags: W
HStem: -8 53<245.771 385.596> 346 55<263.173 390.389> 633 20G<271.946 325.394>
VStem: 437.906 93<127.756 297.086>
LayerCount: 2
Fore
SplineSet
320.817 346 m 0
 244.868 346 206.906 254.853 206.906 195.016 c 0
 206.906 120.364 225.485 45 307.305 45 c 0
 401.6 45 437.906 106.877 437.906 202.759 c 0
 437.906 277.271 409.531 346 320.817 346 c 0
243.662 631.737 m 1
 249.274 647.856 265.866 653 278.025 653 c 2
 316.313 653 l 0
 334.474 653 353.481 639.915 347.275 624.015 c 1
 311.596 530.349 276.934 450.911 251.568 382.896 c 1
 250.533 380.137 250.65 379.316 250.643 379.26 c 1
 280.101 394.364 310.312 401 345.592 401 c 0
 467.535 401 530.906 322.553 530.906 223.344 c 0
 530.906 119.205 449.883 -8 317.439 -8 c 0
 288.214 -8 264.72 -4.34082 243.978 1.44531 c 0
 117.774 39.5137 91.6816 183.165 126.376 289.196 c 0
 174.951 437.455 204.917 527.447 243.662 631.737 c 1
EndSplineSet
EndChar

StartChar: seven
Encoding: 82 55 82
Width: 664
Flags: W
HStem: 0 21G<168.373 218.726> 0 21G<168.373 218.726> 591 59<128.523 416.924>
LayerCount: 2
Fore
SplineSet
142 591 m 0xa0
 121.869 591 120 607.515 120 621 c 0
 120 633.51 123.467 640.23 128.141 644.344 c 0
 136.303 651.526 144.578 650 148 650 c 0
 498 650 l 0
 508.833 650 513.894 648.531 517.998 646.517 c 0
 537.247 637.352 524.887 617.351 523.101 613.852 c 1
 251.513 22.2646 l 1
 251.4 22.0596 l 0
 239.43 0.171875 224.451 0 213 0 c 0
 176 0 l 0
 160.746 0 148.011 14.9062 153.794 27.96 c 1
 414.746 583.061 l 1
 416.393 587.042 416.901 589.162 417.042 590.076 c 1
 414.536 590.874 411.293 591 409 591 c 0
 142 591 l 0xa0
EndSplineSet
EndChar

StartChar: eight
Encoding: 83 56 83
Width: 665
Flags: W
HStem: 0 53<262.162 377.944> 387.009 45.9912<284.611 363.269> 644 42<278.132 362.729>
VStem: 113 100<114.937 301.608> 165 92.7848<459.87 612.458> 390.722 92.2785<464.633 614.114> 433 98<128.216 320.756>
LayerCount: 2
Fore
SplineSet
318.62 644 m 0xec
 271.335 644 257.785 590.935 257.785 542.797 c 0
 257.785 481.192 283.177 433 328.759 433 c 0
 364.351 433 390.722 490.78 390.722 542.797 c 0
 390.722 595.262 365.575 644 318.62 644 c 0xec
432.758 236.551 m 0
 428.729 339.945 372.911 388.529 329.235 387.009 c 0
 260.18 384.264 213 341.701 213 212 c 0
 213 132.706 243.689 53 318.62 53 c 0
 402.215 53 433 143.154 433 224 c 0xf2
 433 230.705 432.857 233.99 432.758 236.551 c 0
165 533.447 m 0xe8
 165 615.729 227.523 686 319.747 686 c 0
 414.25 686 483 620.813 483 542.192 c 0xec
 483 482.359 451.481 439.537 409.648 409.902 c 1
 407.719 408.751 408.401 409.08 408.272 408.979 c 1
 410.304 406.45 416.309 402.619 421.262 400.374 c 1
 486.876 370.064 531 312.854 531 228.343 c 0
 531 110.924 449.415 0 318.62 0 c 0
 193.585 0 113 99.6289 113 205.994 c 0xf2
 113 310.167 173.628 367.715 232.771 403.753 c 1
 235.878 405.376 236.019 405.81 236.257 406.01 c 1
 235.456 406.668 234.75 407.078 234.065 407.482 c 1
 188.853 431.584 165 482.213 165 533.447 c 0xe8
EndSplineSet
EndChar

StartChar: nine
Encoding: 84 57 84
Width: 665
Flags: W
HStem: 0 21G<269.953 336.786> 0 21G<269.953 336.786> 259 55<242.752 373.936> 615 47<266.385 395.97>
VStem: 110 92<356.735 530.877> 440 94<389.363 558.035>
LayerCount: 2
Fore
SplineSet
311.902 314 m 0x3c
 399.226 314 440 410.099 440 477.566 c 0
 440 547.383 408.813 615 334.341 615 c 0
 247.882 615 202 535.392 202 457.241 c 0
 202 375.371 224.168 314 311.902 314 c 0x3c
368.16 16.043 m 0
 359.313 2.20312 342.572 0 331 0 c 2
 287 0 l 0xbc
 252.907 0 259.81 23.7588 261.601 27.1152 c 0
 261.798 27.4824 l 1
 374.738 273.349 l 1
 341.995 262.795 315.766 259 284.976 259 c 0
 171.236 259 110 334.693 110 431.714 c 0
 110 555.283 203.432 662 338.829 662 c 0
 456.213 662 534 569.538 534 470.777 c 0
 534 393.156 519.009 356.839 491 290 c 0
 447 185 414 109 368.448 16.5273 c 0
 368.313 16.2822 l 1
 368.16 16.043 l 0
EndSplineSet
EndChar

StartChar: F
Encoding: 85 70 85
Width: 556
Flags: W
HStem: 0 21G<141.315 190.881> 0 21G<141.315 190.881> 301 61<210.08 517.047> 589 61<210.068 526.048>
VStem: 119.068 91<6.51394 301 362.004 589>
LayerCount: 2
Fore
SplineSet
210.068 584.211 m 0xb8
 210.068 374.451 l 2
 210.068 368.037 219.602 362 226.068 362 c 0
 478.068 362 l 0
 487.915 362 517.068 364.191 517.068 341 c 0
 517.068 324 l 0
 517.068 300.626 489.562 301 484.068 301 c 0
 232.068 301 l 0
 214.657 301 210.245 295.965 210.068 294.721 c 1
 210.068 26.1318 l 0
 210.068 10.1992 198.694 0 183.068 0 c 0
 146.068 0 l 0
 136.562 0 129.93 1.49609 125.248 6.17871 c 0
 117.895 13.3105 119.068 21.7285 119.068 26.373 c 0
 119.068 623.813 l 0
 119.068 642.576 132.645 650 146.068 650 c 0
 488.068 650 l 0
 498.954 650 526.068 650.487 526.068 628 c 0
 526.068 611 l 0
 526.068 587.259 497.595 589 493.068 589 c 0
 232.068 589 l 0
 226.506 589 223.558 589.183 221.366 589.188 c 0
 208.976 589.212 210.068 588.396 210.068 584.211 c 0xb8
EndSplineSet
EndChar

StartChar: f
Encoding: 86 102 86
Width: 232
Flags: W
HStem: 0 21G<67.3271 114.56> 0 21G<67.3271 114.56> 382 53<135.062 222.733> 669 46<149.249 210.583 211.07 242.935>
VStem: 50 86<0.481747 382.003 434.967 654.492>
LayerCount: 2
Fore
SplineSet
243.138 698.531 m 0xb8
 249.023 689.71 245.236 681.164 243.394 676.559 c 0
 237.137 657.788 214.797 665.493 211.574 666.299 c 0
 211.07 666.425 l 1
 210.583 666.602 l 0
 201.177 670.022 190.756 669 180 669 c 0
 157.308 669 136 641.883 136 596.967 c 1
 135 445.967 l 1
 135 433.239 136.245 435 144 435 c 0
 191.653 435 184.262 434 197 434 c 0
 215.221 434 223.061 419.357 223.246 408.959 c 0
 223.524 393.375 210.131 383 195 383 c 0
 190.87 383 194.559 382 153 382 c 0
 136.774 382 135 376.763 135 365.872 c 0
 136 25.6699 l 2
 136 6.21094 120.12 0 109 0 c 0
 77 0 l 0
 57.6543 0 50 13.0967 50 26.0479 c 0
 50 547 l 0
 50 701.647 132.385 715 178 715 c 0
 189.84 715 215.872 713.651 225.059 709.167 c 1
 231.906 706.732 238.86 704.939 243.138 698.531 c 0xb8
EndSplineSet
EndChar

StartChar: Q
Encoding: 87 81 87
Width: 755
Flags: W
HStem: -74 161<350.979 431.083> 624 48<309.942 474.791>
VStem: 53 108<208.026 446.839> 343.932 94.3795<-67.2419 -8.80707 29.5124 79.7021> 622 102<209.221 446.967>
LayerCount: 2
Fore
SplineSet
447.565 -8.83203 m 1
 437.994 -10.4912 438.311 -13.3213 438.311 -16 c 2
 438.311 -47 l 0
 438.311 -56.6143 435.975 -63.1191 431.439 -67.4463 c 0
 423.878 -74.6553 414.953 -74 409.998 -74 c 0
 372.246 -74 l 0
 362.276 -74 355.322 -72.5039 350.411 -67.8213 c 0
 342.701 -60.4688 343.932 -51.7881 343.932 -47 c 0
 343.932 -19.0039 l 1
 343.683 -16.0527 335.444 -9.41797 333.265 -8.77246 c 1
 168.381 18.2129 53 160.903 53 329.074 c 0
 53 520.338 200.993 672 389.024 672 c 0
 580.031 672 724 516.305 724 329.074 c 0
 724 157.744 606.285 19.0049 447.565 -8.83203 c 1
343.932 30 m 0
 343.932 60 l 2
 343.932 69.1729 346.351 75.625 350.634 79.9043 c 0
 357.953 87.2158 366.993 87 372.246 87 c 0
 409.998 87 l 0
 427.953 87 438.311 74.4375 438.311 60 c 0
 438.311 28 l 0
 438.311 24.9004 438.754 25.1738 438.774 25.1377 c 1
 439.471 24.8125 443.709 24.7695 446.937 25.6084 c 1
 552.076 56.1631 622 172.625 622 321 c 0
 622 493.276 515.208 624 392.17 624 c 0
 264.749 624 161 488.924 161 321 c 0
 161 164.453 233.939 55.3994 334.37 26.5762 c 0
 334.704 26.4795 l 1
 335.031 26.3633 l 0
 337.11 25.6191 338.866 25.4893 339.77 25.4648 c 0
 343.705 25.3604 343.932 25.1768 343.932 30 c 0
EndSplineSet
EndChar

StartChar: q
Encoding: 88 113 88
Width: 539
Flags: W
HStem: 402 46<205.095 333.582>
VStem: 42 87<123.004 310.317> 221.596 94.9119<-105.242 -0.867242 31.6592 96.7021> 409 86<123.76 312.964>
LayerCount: 2
Fore
SplineSet
323.668 0.314453 m 1
 316.419 -1.32812 316.508 -1.87793 316.508 -7 c 2
 316.508 -85 l 0
 316.508 -94.6143 314.049 -101.119 309.275 -105.446 c 0
 301.318 -112.655 291.925 -112 286.71 -112 c 0
 251.394 -112 l 0
 240.902 -112 233.583 -110.504 228.415 -105.821 c 0
 220.3 -98.4688 221.596 -89.7881 221.596 -85 c 0
 221.596 -6 l 0
 221.596 -3.4375 217.781 -0.929688 217.566 -0.862305 c 1
 217.139 -0.797852 l 1
 216.711 -0.701172 l 0
 112.888 22.918 42 115.613 42 221.113 c 0
 42 348.248 139.592 448 267.948 448 c 0
 401.22 448 495 344.25 495 221.135 c 0
 495 112.807 422.639 24.083 323.668 0.314453 c 1
221.596 31.1973 m 1
 221.596 77 l 2
 221.596 86.1729 224.142 92.625 228.65 96.9043 c 0
 236.351 104.216 245.866 104 251.394 104 c 0
 286.71 104 l 0
 305.606 104 316.508 91.4375 316.508 77 c 0
 316.508 31.6592 l 1
 372.327 58.1582 409 128.724 409 211 c 0
 409 321.722 342.988 402 269.052 402 c 0
 191.857 402 129 317.374 129 211 c 0
 129 124.498 169.563 55.9473 221.596 31.1973 c 1
EndSplineSet
EndChar

StartChar: W
Encoding: 89 87 89
Width: 932
Flags: W
HStem: 633 20G<844.899 875.725>
LayerCount: 2
Fore
SplineSet
80.6475 616.754 m 1
 75.1143 632.86 85.3975 649.366 100.043 650.945 c 0
 122.259 653.166 132.291 652.81 148.259 650.932 c 0
 148.497 650.903 l 1
 148.734 650.864 l 0
 166.96 647.826 176.501 634.391 180.527 622.311 c 1
 253.025 430.695 291.417 309.848 358.917 153.959 c 1
 359.338 153.046 359.075 152.737 359.451 153.67 c 1
 443.009 355.188 l 1
 345.863 615.614 l 1
 349.958 617.035 344.199 648.616 365.933 650.945 c 1
 388.962 653.166 399.363 652.81 415.916 650.932 c 0
 416.163 650.903 l 1
 416.409 650.864 l 0
 435.307 647.825 445.182 634.421 449.378 622.275 c 1
 624.501 153.451 l 1
 626.615 148.224 l 1
 628.979 153.691 l 1
 821.784 631.66 l 1
 822.068 631.549 826.709 653 863.09 653 c 0
 888.36 653 887.016 625.234 883.382 616.42 c 1
 627.497 -2.73438 l 1
 623.615 -11.8311 619.832 -17.2891 613.425 -19.9482 c 0
 596.133 -27.125 588.96 -6.84961 586.416 -0.539062 c 1
 476.567 287.881 l 1
 357.977 -2.73633 l 1
 354.097 -11.8281 350.311 -17.29 343.906 -19.9482 c 0
 326.613 -27.125 319.445 -6.86035 316.892 -0.526367 c 1
 80.6475 616.754 l 1
EndSplineSet
EndChar

StartChar: w
Encoding: 90 119 90
Width: 670
Flags: W
HStem: 415 20G<61.4077 107.192 268.655 314.12 597.052 613.61>
LayerCount: 2
Fore
SplineSet
453.693 103.661 m 1
 573.588 413.389 l 2
 578.545 428.26 591.105 435 602.999 435 c 0
 624.221 435 624.717 413.523 622.417 406.927 c 1
 467.391 19.7559 l 1
 463.846 10.0762 456.454 4.79199 450.422 2.33691 c 0
 430.67 -6.07227 409.287 6.24316 400.697 27.3291 c 1
 342.155 180.571 l 1
 325.758 136.551 320.908 126.011 279.374 20.5156 c 1
 275.861 10.4775 267.612 4.90039 260.83 2.33691 c 0
 238.578 -5.70117 214.501 6.04297 204.791 26.2646 c 1
 46.5664 402.193 l 1
 44.7852 407.301 43.7607 411.601 43.6807 415.305 c 0
 43.3936 428.71 55.8164 435 66.999 435 c 0
 96.999 435 l 0
 117.385 435 125.934 420.835 129.826 413.062 c 0
 129.968 412.778 l 1
 259.714 103.326 l 1
 260.347 101.642 262.346 100.911 262.573 100.872 c 1
 263.123 101.272 264.084 102.703 264.526 103.685 c 0
 310.013 215.466 288.473 156.806 316.323 231.01 c 1
 294.033 290.772 273.394 345.608 252.115 400.33 c 0
 249.135 406.541 248.363 410.318 248.243 414.064 c 0
 247.781 428.475 262.312 435 274.999 435 c 0
 304.999 435 l 0
 323.24 435 330.734 420.419 333.427 412.34 c 1
 449.427 103.34 l 1
 449.997 101.629 451.765 100.911 451.969 100.872 c 1
 452.452 101.269 453.317 102.722 453.693 103.661 c 1
EndSplineSet
EndChar

StartChar: X
Encoding: 91 88 91
Width: 693
Flags: W
HStem: 0 21G<122.194 131.862> 0 21G<122.194 131.862> 631 20G<614.302 623.647>
LayerCount: 2
Fore
SplineSet
359.314 267.025 m 1x60
 162.188 13.248 l 2
 151.797 -2.33887 135.72 0 128.004 0 c 0xa0
 116.385 0 104.832 -0.232422 96.7061 5.8418 c 0
 85.1416 14.2256 91.9951 26.998 95.9912 32.165 c 0
 317.662 311.41 l 1
 319.658 313.954 319.314 313.763 319.393 313.908 c 1
 318.549 315.797 317.027 317.795 316.411 318.636 c 1
 95.6934 613.565 l 1
 95.5674 613.756 l 0
 91.2588 620.324 88.416 625.852 88.0303 631.547 c 0
 87.0566 645.938 101.754 649.546 109.455 649.985 c 1
 129.079 651.018 139.103 652.797 158.487 649.89 c 0
 158.796 649.843 l 1
 159.1 649.778 l 0
 173.839 646.619 185.422 643.746 196.867 629.178 c 0
 197.022 628.981 l 1
 379.795 385.664 l 1
 381.795 382.849 382.077 383.107 382.473 382.833 c 1
 383.765 383.64 384.512 384.578 384.937 385.091 c 1
 586.116 638.148 l 2
 591.19 644.49 593.864 647.126 597.774 648.956 c 0
 605.937 652.774 611.6 651 617.004 651 c 0
 630.29 651 638.742 649.336 645.041 644.964 c 0
 657.725 636.426 652.024 622.714 647.068 615.984 c 1
 430.676 345.293 l 0
 423.363 336.416 425.479 334.353 431.015 326.432 c 1
 647.262 35.54 l 1
 652.39 28.0791 653.719 22.751 653.742 18.1641 c 0
 653.814 3.66699 639.845 0 632.231 0 c 0
 608.237 -11.0908 595.533 -10.9365 577.741 0 c 0
 563.079 0 554.113 7.84277 548.833 15.2354 c 1
 363.469 266.106 l 1
 360.779 269.144 361.077 268.439 360.821 268.611 c 1
 359.36 267.311 359.617 267.404 359.314 267.025 c 1x60
EndSplineSet
EndChar

StartChar: x
Encoding: 92 120 92
Width: 508
Flags: W
HStem: 0 21G<67.6416 76.6006 394.638 453.373> 0 21G<67.6416 76.6006 394.638 453.373> 415 20G<65.1016 130.176 423.232 432.969>
LayerCount: 2
Fore
SplineSet
272.1 268.255 m 1xa0
 400.629 422.308 l 2
 408.991 432.343 419.075 435 427.39 435 c 0
 438.549 435 444.503 434.788 450.045 430.666 c 0
 463.714 420.95 450.014 407.252 448.331 405.108 c 1
 305.378 234.482 l 1
 305.542 234.228 306.011 233.441 307.179 232.017 c 1
 457.137 33.7949 l 1
 463.894 25.2891 464.732 20.3594 464.923 15.2363 c 0
 465.295 5.22656 456.355 0 450.39 0 c 0
 403.39 0 l 0
 385.886 0 376.698 10.8867 370.369 19.0244 c 1
 249.905 176.024 l 1
 247.976 178.283 245.592 177.51 242.679 175.241 c 1
 101.085 12.6123 l 1
 91.4805 1.40723 80.8115 0 72.3896 0 c 0
 62.8936 0 57.8789 1.48242 53.877 4.25098 c 0
 39.0088 14.0811 52.0742 28.9658 54.5684 31.9453 c 0
 207.468 206.042 l 1
 207.635 206.208 l 0
 214.169 212.709 211.7 214.924 211.223 215.548 c 1
 63.291 406.456 l 1
 56.8584 414.652 56.8135 435 73.3896 435 c 0
 120.39 435 l 0
 139.962 435 149.276 423.058 154.671 415.687 c 1
 270.895 267.865 l 1
 271.632 267.916 272.015 268.186 272.1 268.255 c 1xa0
EndSplineSet
EndChar

StartChar: Z
Encoding: 93 90 93
Width: 672
Flags: W
HStem: 0 59<187.071 614.266> 591 59<79.7113 476.898>
LayerCount: 2
Fore
SplineSet
78.9346 624.118 m 1
 80.459 636.313 88.1982 650 102.872 650 c 2
 592.872 650 l 0
 612.916 650 607.558 625.357 605.164 621.816 c 1
 190.227 65.1016 l 0
 187.56 61.6035 187.124 60.1318 186.947 59.6855 c 1
 189.583 59.0498 192.34 59 194.254 59 c 0
 585.872 59 l 0
 604.243 59 612.43 46.0879 614.605 36.2988 c 1
 619.979 14.8018 601.025 0 585.872 0 c 0
 78.8721 0 l 0
 70.2061 0 64.3818 2.43164 60.4365 5.29297 c 0
 46.9385 14.7637 51.8105 30.5098 58.748 39.6582 c 1
 476.767 589.148 l 1
 476.893 589.286 l 1
 477.022 589.894 476.665 590.884 476.614 591 c 1
 102.872 591 l 0
 80.3926 591 78.0674 615.446 78.9346 624.118 c 1
EndSplineSet
EndChar

StartChar: z
Encoding: 94 122 94
Width: 395
Flags: W
HStem: -10 49<139.962 330.97> 397 49<37.2962 210.823>
VStem: 38.6367 292.545
LayerCount: 2
Fore
SplineSet
331.182 3.57683 m 4
 326.683 -3.21551 320.422 -10 312 -10 c 0
 54 -10 l 0
 26.7984 -10 37.9015 22.5506 38.6367 24.5112 c 0
 38.7782 24.8885 l 1
 210.842 391.024 l 1
 210.524 393.428 205.231 397 203 397 c 0
 62 397 l 0
 45.0849 397 37 411.701 37 422 c 0
 37 440.112 53.8409 446 62 446 c 0
 235 446 l 0
 249.089 446 258.672 443.33 265.936 439.94 c 0
 302.522 422.868 297.243 379.683 284.05 351.745 c 0
 142.095 49.8416 l 1
 140.194 45.5642 139.857 40.0812 139.962 39 c 1
 317 39 l 0
 326.737 39 331.598 29.1544 333.228 25.7314 c 0
 333.228 25.7314 331.734 4.41053 331.182 3.57683 c 4
EndSplineSet
EndChar

StartChar: jcircumflex
Encoding: 109 309 109
Width: 202
VWidth: 0
Flags: W
HStem: -198 52<-51.3654 34.5096> 415 20G<79.4399 122.015>
VStem: 58 86<-123.723 427.579>
LayerCount: 2
Fore
SplineSet
0 -146 m 0
 27.6924 -146 58 -104.081 58 -61 c 2
 58 409.047 l 0
 58 428.726 73.8799 435 85 435 c 0
 117 435 l 0
 127.029 435 133.513 432.195 137.608 427.904 c 0
 144.501 420.987 144 413.173 144 408.837 c 0
 144 -28 l 0
 144 -172.409 47.0352 -198 7 -198 c 0
 -4.6543 -198 -24.625 -198.073 -30.9609 -196.806 c 0
 -31.3584 -196.727 l 1
 -31.7471 -196.615 l 0
 -43.8701 -193.151 -53 -182.165 -53 -165 c 0
 -53 -139.235 -22.6875 -144.836 -20.9268 -145.057 c 1
 -8.78711 -146.16 -9.64551 -146 0 -146 c 0
EndSplineSet
Refer: 240 710 N 1 0 0 1 -94 95 2
EndChar

StartChar: exclam
Encoding: 114 33 114
Width: 311
Flags: W
HStem: -5 85<89.3482 161.318>
VStem: 83.999 83<0.780947 74.7073 398.333 694.941> 109.017 33.9707<93.8939 314.159>
LayerCount: 2
Fore
SplineSet
127.929 93.3184 m 0xa0
 110.296 91.3506 109.634 113.972 109.017 121.375 c 0
 103.952 241.914 88.9111 458.378 80.0176 624.389 c 1
 79.5088 631.771 79.1553 638.44 79.1289 643.589 c 0
 78.9873 670.416 88.5645 699 125.999 699 c 0
 177.36 699 174.669 648.861 172.979 624.366 c 1
 161.89 432.812 153.872 289.699 142.987 121.485 c 1
 142.52 109.333 141.045 94.7832 127.929 93.3184 c 0xa0
124.999 -5 m 0
 99.498 -5 83.999 17.3379 83.999 37 c 0
 83.999 62.6113 104.345 80 124.999 80 c 0
 150.311 80 166.999 57.9258 166.999 37 c 0xc0
 166.999 11.7891 145.159 -5 124.999 -5 c 0
EndSplineSet
EndChar

StartChar: numbersign
Encoding: 116 35 116
Width: 657
Flags: W
HStem: 166 47<50.0801 175.983 238.485 364.984 428.106 563.912> 340 47<88.0801 212.912 274.93 403.22 464.485 598.442>
LayerCount: 2
Fore
SplineSet
567 387 m 2
 595.898 387 602 376.41 602 363 c 0
 602 357.847 601.886 352.598 598.798 348.207 c 0
 591.306 337.555 577.914 340 567 340 c 2
 458.493 340 l 2
 453.878 340 454.512 339.569 454.137 336.76 c 2
 454.088 336.39 l 1
 428.368 217.039 l 2
 427.765 214.214 427.986 213.907 427.99 213.771 c 0
 430.459 213.037 433.11 213 434.986 213 c 2
 529 213 l 2
 557.898 213 564 202.41 564 189 c 0
 564 169.444 550.551 166 529 166 c 2
 428.575 166 l 2
 415.295 166 417.887 164.971 416.609 159.405 c 2
 386.696 29.207 l 2
 384.262 18.6094 383.101 14.5049 381.686 10.833 c 0
 376.191 -3.41895 362.19 -4.09766 353.562 -1.47949 c 0
 338.865 2.16211 332.076 10.8223 336.885 32.876 c 2
 364.714 160.488 l 1
 364.785 160.739 l 2
 365.809 164.354 365.573 165.095 365.57 165.267 c 0
 363.303 165.896 360.148 166 358.055 166 c 2
 241.589 166 l 2
 227.159 166 227.37 163.145 225.317 156.438 c 2
 197.579 30.2129 l 2
 191.892 5.10547 183.113 -4.87598 164.574 -0.701172 c 2
 163.916 -0.537109 l 1
 163.286 -0.285156 l 2
 151.148 4.29297 143.282 11.6777 148.2 34.8633 c 2
 175.585 160.398 l 2
 176.57 164.165 176.068 164.08 176.038 164.271 c 0
 174.877 164.724 171.884 165 170 165 c 2
 85 165 l 2
 56.1016 165 50 175.59 50 189 c 0
 50 206.898 62.1709 213 85 213 c 2
 177.479 213 l 2
 185.907 213 187.255 214.721 188.333 220.779 c 2
 212.912 338.791 l 1
 208.323 339.161 208.788 339 207.397 339 c 2
 123 339 l 2
 94.1016 339 88 349.59 88 363 c 0
 88 380.898 100.171 387 123 387 c 2
 212.74 387 l 2
 222.654 387 223.604 388.719 224.666 394.302 c 2
 249.276 502.063 l 2
 254.953 526.919 263.735 536.842 282.647 532.701 c 2
 283.35 532.537 l 1
 284.023 532.285 l 2
 296.991 527.742 305.395 520.407 300.145 497.422 c 2
 275.573 390.778 l 2
 274.826 387.505 274.96 387.313 274.93 387.016 c 2
 275.781 387 l 1
 406.137 387 l 2
 414.8 387 412.662 386.3 414.921 393.635 c 2
 438.392 500.048 l 2
 440.604 509.725 441.762 513.305 442.987 516.557 c 0
 448.713 531.761 462.662 533.456 472.61 530.479 c 0
 486.956 526.873 493.485 518.287 488.806 496.413 c 2
 464.675 388.809 l 2
 463.675 384.873 464.388 387.254 464.381 387.19 c 0
 466.627 386.856 466.431 387 467.041 387 c 2
 567 387 l 2
403.331 339.535 m 0
 400.964 340.042 398.868 340 397.589 340 c 2
 273.644 340 l 2
 266.197 340 265.624 339.436 265.306 339.328 c 0
 264.742 338.324 264.156 335.893 263.856 334.213 c 2
 239.199 216.821 l 1
 239.133 216.574 l 2
 238.075 212.612 238.517 213.636 238.446 213.085 c 1
 239.273 213.015 239.898 213 240.521 213 c 2
 363.397 213 l 2
 381.01 213 376.476 211.85 378.574 221.013 c 2
 403.117 337.859 l 2
 403.182 338.19 403.295 338.862 403.331 339.535 c 0
EndSplineSet
EndChar

StartChar: dollar
Encoding: 117 36 117
Width: 566
Flags: W
HStem: 622.994 44.0977<240.971 299.55>
VStem: 87 98<435.939 560.552> 396 99<94.2843 231.105>
LayerCount: 2
Fore
SplineSet
87 480.876 m 0
 87 591.234 193.894 666.322 309.534 667.092 c 1
 313.822 692.875 l 2
 315.43 702.079 320.878 706.866 324.993 709.422 c 0
 340.12 719.062 357.034 712.058 364.109 703.419 c 1
 372.282 713.335 382.18 713.971 388.097 713.356 c 0
 401.873 711.964 411.419 700.542 409.916 687.355 c 2
 403.874 649.07 l 2
 403.799 648.627 403.771 648.4 403.75 647.952 c 2
 404.385 647.704 l 1
 405.011 647.352 l 2
 426.738 635.087 445.208 618.896 462.345 593.59 c 0
 468.244 584.879 482.577 558.587 463.472 549.274 c 2
 463.209 549.146 l 1
 462.939 549.033 l 2
 454.576 545.539 454.735 543.493 451.426 542.687 c 2
 451.084 542.604 l 1
 450.738 542.544 l 2
 425.171 538.146 418.636 556.402 415.995 561.553 c 0
 410.059 573.954 401.692 581.401 393.979 587.89 c 1
 355.559 361.457 l 2
 354.952 358.334 355.55 358.211 358.094 357.275 c 0
 434.621 322.969 495 282.965 495 185.569 c 0
 495 71.1074 406.401 -8.2373 292.015 -15.2295 c 0
 285.243 -15.876 283.228 -19.5527 282.966 -21.3506 c 2
 282.9 -21.8066 l 1
 282.784 -22.2559 l 2
 280.438 -31.3262 278.854 -42.5371 277.277 -48.8945 c 0
 275.205 -59.3281 269.91 -62.3516 266.169 -64.5283 c 0
 251.54 -73.2617 234.257 -67.6201 227.447 -58.7217 c 1
 219.321 -68.9844 206.997 -69.4287 200.842 -68.4932 c 0
 188.1 -66.6035 180.067 -55.415 182.138 -43.9756 c 2
 188.929 -2.35742 l 2
 188.609 -2.12305 188.389 -2.03418 188.202 -1.96191 c 0
 146.515 15.1514 113.703 43.5283 91.5332 77.9141 c 2
 91.2734 78.3174 l 1
 91.0557 78.7422 l 2
 85.8809 88.833 86.5537 101.768 95.5059 109.041 c 0
 105.731 117.764 109.813 118.879 115.039 121.79 c 2
 115.279 121.925 l 1
 115.528 122.046 l 2
 127.844 128.049 136.939 118.225 138.859 115.55 c 0
 147.369 105.433 142.227 109.343 144.071 107.545 c 2
 144.612 107.018 l 1
 145.064 106.417 l 2
 156.021 91.8496 176.57 70.8916 198.564 56.1074 c 1
 243.562 302.561 l 1
 162.456 336.637 87 377.153 87 480.876 c 0
299.55 622.68 m 1
 295.399 623.263 297.222 623.003 296.301 622.994 c 0
 220.76 613.151 185 557.204 185 496 c 0
 185 444.69 218.249 418.164 260.585 397.107 c 1
 299.55 622.68 l 1
336.717 261.441 m 1
 323.908 186.797 310.723 115.588 294.173 31.959 c 1
 363.037 44.5312 396 96.5684 396 159 c 0
 396 214.451 374.404 239.637 337.933 260.749 c 0
 337.227 261.194 336.97 261.317 336.717 261.441 c 1
EndSplineSet
EndChar

StartChar: percent
Encoding: 118 37 118
Width: 803
Flags: W
HStem: -10 35<476.466 562.311> 303 35<149.21 235.202> 323 35<477.034 565.552> 636 35<149.968 238.32>
VStem: 30 80<395.471 577.74> 275.071 84.0816<397.36 574.943> 351.796 85.1326<83.8803 261.377> 601 81<82.4238 263.422>
LayerCount: 2
Fore
SplineSet
74.8359 -26.5645 m 0x99
 65.1318 -19.6396 66.4121 -8.61719 70.8594 -2.84766 c 2
 566.644 678.861 l 1
 578.18 696.498 598.07 692 607 692 c 0
 621.035 692 628.551 690.201 634.281 686.112 c 0
 647.053 677.247 639.65 663.642 636.188 659.01 c 1
 143.301 -20.9131 l 1
 130.154 -40.0996 106.711 -33 99 -33 c 0
 87.1436 -33 79.7842 -30.1924 74.8359 -26.5645 c 0x99
192.041 303 m 0xdd
 98.3174 303 30 388.916 30 486 c 0
 30 587.379 102.001 671 192.041 671 c 0
 287.554 671 359.153 582.915 359.153 486 c 0
 359.153 384.548 283.371 303 192.041 303 c 0xdd
192.041 636 m 0
 136.89 636 110 573.011 110 487 c 0
 110 396.353 136.242 338 192.041 338 c 0
 249.864 338 275.071 400.678 275.071 487 c 0
 275.071 578.004 251.647 636 192.041 636 c 0
519.959 -10 m 0
 423.599 -10 351.796 75.916 351.796 173 c 0
 351.796 274.379 427.47 358 519.959 358 c 0xbb
 613.83 358 682 269.957 682 173 c 0
 682 71.5234 609.836 -10 519.959 -10 c 0
519.959 323 m 0
 464.229 323 436.929 260.128 436.929 174 c 0
 436.929 83.2852 464.581 25 519.959 25 c 0
 577.017 25 601 87.6777 601 174 c 0
 601 265.075 579.719 323 519.959 323 c 0
EndSplineSet
EndChar

StartChar: ampersand
Encoding: 119 38 119
Width: 776
Flags: W
HStem: -14 51<277.269 444.805> -0.402344 21G<610.585 664.188> -0.402344 21G<610.585 664.188> 622 43<298.74 370.632>
VStem: 104 86<132.82 297.096> 185.044 74.012<538.685 603.851> 388.657 72.2364<515.794 605.154> 569 54<185.856 329.694>
LayerCount: 2
Fore
SplineSet
317.307 490.238 m 1x17
 324.519 482.872 330.057 483.476 333.22 485.858 c 0
 367.283 510.684 388.657 534.777 388.657 570 c 0
 388.657 597.796 349.542 622 323.856 622 c 0
 298.421 622 259.056 592.869 259.056 579 c 0
 259.056 567.468 258.67 568.072 260.371 565.671 c 1
 317.307 490.238 l 1x17
510.43 103.767 m 1
 515.694 109.804 514.482 108.738 511.815 112.086 c 2
 310.016 377.036 l 1
 304.773 383.452 303.171 383.64 302.706 383.85 c 1
 301.868 383.587 300.239 382.576 299.458 382.024 c 1
 235.238 335.917 190 293.585 190 222 c 0
 190 123.776 258.967 37 354.663 37 c 0x9b
 416.643 37 470.928 65.9229 510.43 103.767 c 1
607.089 127.688 m 1
 681.089 25.7061 l 2
 695.634 6.86914 665.377 -0.402344 663 -0.402344 c 0
 616 -0.402344 l 0x57
 605.171 -0.402344 593.76 1.08496 586.875 10.4463 c 1
 555.259 52.2686 l 1
 550.688 58.3057 549.217 58.6328 548.566 59.0029 c 1
 547.557 58.3867 547.34 58.1006 546.891 57.6904 c 1
 493.302 11.8242 419.191 -14 344.04 -14 c 0
 207.529 -14 104 88.3125 104 210.373 c 0x9b
 104 322.243 170.265 381.25 244.164 432.792 c 1
 250.075 436.996 249.845 441.773 246.141 446.611 c 1
 193.638 515.853 l 1
 193.425 516.196 l 0
 185.58 528.896 184.05 539.649 185.044 550.274 c 1x97
 190.686 606.167 233.844 645.377 279.304 663.191 c 0
 279.711 663.355 l 1
 280.13 663.486 l 0
 293.528 667.691 296.44 664.503 298.74 664.864 c 0
 299.606 665 l 1
 300.486 665 l 0
 315.258 665 323.227 665.922 336.536 664.957 c 1
 347.487 663.812 353.639 663.569 362.243 661.77 c 1
 422.981 649.793 460.893 605.364 460.893 551.271 c 0
 460.893 493.049 425.277 458.568 384.771 428.183 c 0
 384.498 427.977 l 1
 384.208 427.787 l 0
 380.209 425.176 378.216 420.104 378.663 418.701 c 1
 378.946 418.398 l 1
 562.874 186.081 l 1
 563.833 184.953 563.939 185.195 563.94 185.194 c 1
 564.221 185.257 564.452 185.428 564.452 185.428 c 1
 567.947 201.571 569 210.757 569 220.072 c 0
 569 261.628 560.734 294.899 554.595 322.029 c 0
 554.529 322.324 l 1
 554.482 322.623 l 0
 552.621 334.533 560.611 346.336 577 346.336 c 0
 594.455 346.336 599.455 339.974 601.944 335.139 c 0
 622.715 294.791 623 264.245 623 222.986 c 0
 623 192.033 616.994 164.315 606.291 139.744 c 1
 603.434 132.345 603.771 131.984 607.089 127.688 c 1
EndSplineSet
EndChar

StartChar: quotesingle
Encoding: 120 39 120
Width: 183
Flags: W
HStem: 596.245 140.755
VStem: 62.209 64.8291<712.236 735.439> 81.1699 26.7051<596.274 672.374>
LayerCount: 2
Fore
SplineSet
62.209 709.712 m 0xc0
 58.5 726.749 79.6758 737 94.0732 737 c 0
 113.637 737 128.421 725.291 127.038 713.339 c 0xc0
 127.016 712.511 l 1
 126.977 712.236 l 0
 120.742 668.897 117.616 649.317 107.875 603.021 c 1
 106.551 599.957 103.839 596.812 96.2109 596.245 c 0
 91.292 595.888 82.8545 597.041 81.1699 603.154 c 1xa0
 72.873 654.503 67.1172 681.121 62.209 709.712 c 0xc0
EndSplineSet
EndChar

StartChar: parenleft
Encoding: 121 40 121
Width: 396
Flags: W
VStem: 149 93<104.917 547.328>
LayerCount: 2
Fore
SplineSet
258.048 799.983 m 0
 262.646 806.399 267.379 809.755 273.083 811.258 c 0
 281.861 814.402 288.223 811.322 291.827 809.955 c 1
 307.128 803.499 311.125 802.482 323.19 797 c 0
 331.466 794.596 337.446 792.799 340.469 788.638 c 0
 344.818 779.109 339.878 771.521 338.108 767.681 c 1
 268.909 613.689 242 492.646 242 326 c 0
 242 156.137 270.229 35.3711 338.108 -115.681 c 1
 341.805 -124.033 342.979 -130.328 341.002 -136.132 c 0
 337.176 -142.672 327.542 -143.78 323.19 -145 c 0
 308.214 -151.805 304.213 -152.729 291.827 -157.955 c 1
 274.767 -162.559 263.989 -155.997 258.043 -147.975 c 0
 185.712 -3.6543 149 146.118 149 326 c 0
 149 510.451 187.111 658.443 258.048 799.983 c 0
EndSplineSet
EndChar

StartChar: parenright
Encoding: 122 41 122
Width: 396
Flags: W
VStem: 164.246 93<104.875 547.301>
LayerCount: 2
Fore
SplineSet
147.199 799.983 m 0
 219.505 655.711 257.246 506.907 257.246 326 c 0
 257.246 142.488 218.137 -6.44238 147.19 -148 c 0
 138.88 -159.204 126.607 -161.241 114.419 -157.954 c 1
 99.376 -151.607 94.0312 -150.407 82.9141 -144.935 c 1
 74.9238 -142.62 68.7793 -140.758 65.7783 -136.638 c 0
 61.4307 -127.114 66.3779 -119.501 68.127 -115.705 c 1
 136.332 38.2998 164.246 159.416 164.246 326 c 0
 164.246 495.802 135.021 616.658 68.127 767.705 c 1
 64.4531 776.008 63.2705 782.335 65.2441 788.132 c 0
 69.0576 794.632 78.8311 795.793 82.9141 796.935 c 1
 96.8887 803.813 102.411 804.889 114.419 809.955 c 1
 131.643 814.602 141.585 807.556 147.199 799.983 c 0
EndSplineSet
EndChar

StartChar: asterisk
Encoding: 123 42 123
Width: 422
Flags: W
HStem: 240 230
VStem: 181.081 62.9209<240 297.011 412.986 470>
LayerCount: 2
Fore
SplineSet
281.768 431.062 m 1
 281.854 430.876 296.153 440.175 307.448 421.349 c 0
 312.68 413.502 315.462 408.428 317.94 403.472 c 0
 323.313 392.726 321.083 382.315 313.865 376.901 c 0
 303.697 369.785 288.643 360.717 279.438 355 c 1
 293.971 345.973 305.896 338.676 313.865 333.099 c 0
 326.311 323.764 319.941 310.53 317.94 306.528 c 0
 313.97 298.587 310.752 293.418 307.679 288.039 c 2
 307.369 287.498 l 1
 306.996 287 l 2
 301.389 279.523 291.505 274.026 282.282 277.715 c 2
 281.773 277.919 l 1
 281.29 278.177 l 1
 246.498 297.011 l 1
 245.791 280.611 245.206 264.415 244.002 257.176 c 0
 242.586 239.34 226.736 240 222.996 240 c 2
 201.996 240 l 2
 190.109 240 182.122 248.989 181.081 256.255 c 0
 179.978 275.014 179.926 283.277 179.368 297.129 c 1
 164.948 289.126 151.576 281.733 143.134 277.896 c 2
 142.924 277.801 l 1
 142.71 277.715 l 2
 128.662 272.096 120.624 283.88 118.243 288.103 c 0
 113.103 295.876 110.411 300.617 107.313 306.039 c 2
 106.969 306.642 l 1
 106.711 307.286 l 2
 103.054 316.431 105.544 328.081 110.761 332.121 c 0
 127.748 344.255 133.631 347.094 145.696 354.884 c 1
 130.927 364.079 123.124 369.048 112.184 376.862 c 0
 112.244 376.947 99.1553 383.824 106.711 402.714 c 2
 106.969 403.358 l 1
 107.313 403.961 l 2
 112.083 412.309 116.381 418.661 118.552 421.443 c 0
 124.979 433.131 136.246 434.456 143.385 431.036 c 0
 154.736 426.729 170.754 417.618 179.368 412.864 c 1
 180.107 431.238 180.216 439.031 181.014 452.587 c 1
 181.474 452.561 198.785 470 201.996 470 c 2
 222.996 470 l 2
 236.004 470 243.343 461.127 244.002 452.824 c 0
 245.962 441.036 246.058 423.212 246.499 412.986 c 1
 263.839 421.934 269.499 425.337 281.768 431.062 c 1
EndSplineSet
EndChar

StartChar: plus
Encoding: 124 43 124
Width: 428
Flags: W
HStem: 344 68<69 183.992 252.03 367>
VStem: 184 68<239 343.949 412.044 517>
LayerCount: 2
Fore
SplineSet
204 239 m 0
 181.899 239 184 259.524 184 263.652 c 2
 184 343.087 l 0
 184 343.27 183.998 343.768 183.996 343.95 c 1
 182.398 343.992 181.599 344 180 344 c 0
 96 344 l 0
 85.0342 344 69 347.855 69 364 c 0
 69 392 l 0
 69 414.101 91.4785 412 96 412 c 0
 180 412 l 0
 184.395 412 183.43 412.031 183.992 412.044 c 1
 183.995 412.583 184 412.583 184 414.739 c 0
 184 492.348 l 0
 184 502.034 188.42 517 204 517 c 0
 232 517 l 0
 254.101 517 252 496.476 252 492.348 c 0
 252.002 412.014 l 1
 252.801 412.006 253.201 412 256 412 c 0
 340 412 l 0
 350.609 412 367 407.58 367 392 c 0
 367 364 l 0
 367 341.899 344.521 344 340 344 c 0
 256 344 l 0
 251.789 344 252.81 343.969 252.03 343.949 c 1
 252.024 343.681 252 342.874 252 341.261 c 0
 252 263.652 l 0
 252 253.64 248.145 239 232 239 c 0
 204 239 l 0
EndSplineSet
EndChar

StartChar: comma
Encoding: 125 44 125
Width: 267
Flags: W
HStem: -161.15 224.15
LayerCount: 2
Fore
SplineSet
89.9795 38.915 m 0
 96.0713 59.9766 127.989 68.4502 148.089 63 c 0
 173.271 54.8223 182.355 27.4805 171.662 7.80371 c 1
 137.998 -52.6396 121.795 -87.6201 80.2207 -150.924 c 1
 75.3506 -156.155 71.2354 -161.431 61.5703 -161.15 c 0
 42.8789 -160.627 50.7432 -145.165 50.9121 -144.524 c 0
 50.959 -143.744 l 1
 51.0186 -143.485 l 0
 70.4951 -61.4189 80.1211 -8.24805 89.9795 38.915 c 0
EndSplineSet
EndChar

StartChar: hyphen
Encoding: 126 45 126
Width: 421
Flags: W
HStem: 267 68<68 370>
VStem: 68 302<267.324 334.651>
LayerCount: 2
Fore
SplineSet
68 315 m 0
 68 337.101 90.4785 335 95 335 c 2
 343 335 l 0
 353.609 335 370 330.58 370 315 c 0
 370 287 l 0
 370 264.899 347.521 267 343 267 c 0
 95 267 l 0
 84.0342 267 68 270.855 68 287 c 0
 68 315 l 0
EndSplineSet
EndChar

StartChar: period
Encoding: 127 46 127
Width: 267
Flags: W
HStem: -26 95<73.6829 150.273>
VStem: 66 92<-18.4427 61.3709>
LayerCount: 2
Fore
SplineSet
112 -26 m 0
 83.6846 -26 66 -1.78516 66 21 c 0
 66 49.5479 88.3516 69 112 69 c 0
 140.401 69 158 44.5869 158 21 c 0
 158 -6.73828 135.47 -26 112 -26 c 0
EndSplineSet
EndChar

StartChar: slash
Encoding: 128 47 128
Width: 665
Flags: W
LayerCount: 2
Fore
SplineSet
45.4951 -8.42285 m 2
 495.474 597 l 0
 507.469 608.176 526.646 605 533.666 605 c 0
 546.23 605 552.877 603.913 558.107 601.585 c 0
 570.824 593.994 564.084 581.688 560.861 577.535 c 0
 110.858 -26 l 0
 98.5723 -36.9062 77.7998 -33 71.666 -33 c 0
 60.998 -33 54.6592 -31.3076 50.3145 -29.3262 c 0
 40.6348 -23.6064 41.3525 -13.5967 45.4951 -8.42285 c 2
EndSplineSet
EndChar

StartChar: less
Encoding: 131 60 131
Width: 385
Flags: W
HStem: 422 20G<294.55 296.551>
LayerCount: 2
Fore
SplineSet
249.407 439.987 m 0
 262.212 448.793 270.6 451.242 278.734 449.86 c 0
 288.827 448.383 292.373 443.612 294.359 442 c 2
 294.55 441.782 l 1
 294.727 442 l 2
 298.376 438.831 303.325 434.995 303.573 429.915 c 0
 303.959 414.884 294.913 404.94 287.256 396.665 c 2
 128.389 271.446 l 1
 129.386 270.557 l 1
 287.257 146.339 l 2
 299.575 133.024 303.842 123.554 303.573 113.085 c 0
 303.216 105.765 296.605 102.631 294.727 101 c 2
 294.55 101.218 l 1
 294.359 101 l 2
 283.92 75.3594 268.521 66.6396 248.398 103 c 2
 66.5645 248.206 l 1
 46.1396 263.917 54.8506 283.753 63.1855 291.492 c 0
 69.8496 297.798 83.9619 308.582 249.407 439.987 c 0
EndSplineSet
EndChar

StartChar: greater
Encoding: 133 62 133
Width: 385
Flags: W
LayerCount: 2
Fore
SplineSet
145.434 439.987 m 0
 318.062 302.877 323.385 299.318 331.655 291.492 c 1
 345.744 278.41 342.72 259.315 328.276 248.206 c 1
 146.449 103.006 l 0
 122.049 60.9434 107.835 83.8877 100.508 101.029 c 1
 96.251 104.187 91.4229 107.778 90.9229 112.548 c 0
 90.0859 127.815 99.5957 137.859 107.58 146.335 c 1
 265.455 270.556 l 1
 266.452 271.446 l 1
 107.581 396.668 l 1
 95.1172 409.897 90.3184 419.431 90.9229 430.452 c 0
 91.6445 437.337 98.2627 440.306 100.508 441.971 c 1
 104.236 445.041 108.856 448.537 114.945 449.726 c 0
 126.824 452.401 136.931 445.939 145.434 439.987 c 0
EndSplineSet
EndChar

StartChar: question
Encoding: 134 63 134
Width: 468
Flags: W
HStem: -5 85<149.438 231.595> 661 43<144.163 274.487>
VStem: 51 62<544.693 569.916> 144 94.6344<2.83108 72.4558> 165.079 45.7014<96.8774 287.293> 325 81.9883<467.156 610.614>
LayerCount: 2
Fore
SplineSet
113 564 m 0xec
 113 541.269 88.6973 538.556 75.6221 543.585 c 0
 64.7646 547.204 51 554.082 51 569 c 0
 51 569.459 l 1
 51.042 569.916 l 0
 59.7324 664.422 127.198 704 208.44 704 c 0
 213.927 704 217.014 703.878 219.342 703.788 c 0
 319.818 699.627 413.022 634.206 406.988 514.52 c 1
 402.684 420.896 342.443 376.456 257.765 331.249 c 1
 241.414 323.959 237.73 319.723 236.117 309.707 c 0
 224.981 239.012 219.039 195.439 210.78 134.888 c 0
 208.179 115.93 207.065 99.1064 189.845 96.915 c 0
 167.017 93.9043 166.31 123.208 165.079 132.742 c 0
 155.822 205.774 153.869 245.599 146.051 314.987 c 1
 142.557 353.424 158.535 384.948 199.45 402.958 c 1
 280.061 435.817 325 464.102 325 538 c 0
 325 605.291 282.485 661 204.817 661 c 0
 150.137 661 112 623.177 112 579 c 0
 112 573.352 113 569.308 113 564 c 0xec
187.909 -5 m 0
 159.498 -5 144 17.3379 144 37 c 0
 144 62.6113 164.346 80 187.909 80 c 0
 219.757 80 238.634 57.6465 238.634 37 c 0xf4
 238.634 12.0596 213.524 -5 187.909 -5 c 0
EndSplineSet
EndChar

StartChar: at
Encoding: 135 64 135
Width: 794
Flags: W
HStem: 14 47<283.701 612.521> 132.004 64.9961<543.253 624.272> 172 47<309.302 422.094> 440 45<318.098 432.491> 605 46<282.539 503.761>
VStem: 52 46<238.568 427.677> 222.302 50.3022<257.932 392.569> 441.326 100.604<238.848 427.788> 680 49<266.953 452.688>
LayerCount: 2
Fore
SplineSet
441.326 409.487 m 1xbf80
 424.14 429.163 400.299 440 375.305 440 c 0
 316.132 440 272.604 382.029 272.604 326 c 0
 272.604 268.74 310.009 219 371.113 219 c 0
 397.887 219 423.041 239.947 441.326 256.31 c 1
 441.326 409.487 l 1xbf80
566.331 132.004 m 1xdf80
 491.264 130.183 460.381 174.271 448.69 199.165 c 1
 424.279 179.789 394.586 172 364.825 172 c 0xbf80
 278.208 172 222.302 246.698 222.302 319 c 0
 222.302 412.329 286.697 485 379.496 485 c 0
 405.283 485 428.73 476.959 444.419 468.47 c 1
 455.394 490.78 482.793 485 491.628 485 c 0
 496.353 485 499.819 485.112 502.254 485.112 c 0
 520.113 485.112 541.93 479.038 541.93 453 c 0
 541.93 226 l 0
 541.93 214.547 548.802 197 570.225 197 c 0
 642.136 197 680 289.328 680 373.67 c 0
 680 491.521 545.608 605 389.976 605 c 0
 230.57 605 98 472.388 98 332.018 c 0
 98 197.501 230.626 60 389.976 60 c 0
 470.313 60 536.109 61 606.904 61 c 0
 612.521 61 l 1
 642.113 14 l 1
 391.024 14 l 0
 198.709 14 52 158.9 52 332.016 c 0
 52 509.942 202.863 651 389.976 651 c 0
 580.914 651 729 530.533 729 373.787 c 0
 729 258.169 671.077 135.195 566.331 132.004 c 1xdf80
EndSplineSet
EndChar

StartChar: bracketleft
Encoding: 136 91 136
Width: 271
Flags: W
HStem: -72 56<162.381 240.98> 554 56<162 240.98>
VStem: 80 82<-15.2791 553.254>
LayerCount: 2
Fore
SplineSet
80 -47.7119 m 0
 80 585.712 l 2
 80 613.594 110.027 610 115 610 c 0
 210 610 l 0
 220.114 610 241 609.885 241 590 c 0
 241 575 l 0
 241 552.165 213.777 554 211 554 c 0
 180 554 l 0
 168.627 554 163.258 553.789 162.29 553.286 c 1
 162.035 552.616 162 551.578 162 551.102 c 0
 162 -13.1016 l 0
 162 -15.5684 162.229 -15.1279 162.29 -15.2861 c 1
 164.112 -16.2314 173.167 -16 180 -16 c 0
 211 -16 l 0
 220.61 -16 241 -19.1689 241 -37 c 0
 241 -52 l 0
 241 -76.4248 213.592 -72 210 -72 c 0
 115 -72 l 0
 104.167 -72 80 -71.2939 80 -47.7119 c 0
EndSplineSet
EndChar

StartChar: backslash
Encoding: 137 92 137
Width: 538
Flags: W
LayerCount: 2
Fore
SplineSet
570.172 -8.42383 m 2
 586.454 -27.8994 550.765 -33 544 -33 c 0
 532.877 -33 515.027 -35.0713 504.805 -25.9951 c 0
 54.8076 577.53 l 0
 51.1914 584.946 50.0566 591.087 50.0312 596.191 c 0
 49.8945 604.965 71.8613 605 82 605 c 0
 93.9912 605 110.386 606.139 120.204 596.982 c 0
 570.172 -8.42383 l 2
EndSplineSet
EndChar

StartChar: bracketright
Encoding: 138 93 138
Width: 290
Flags: W
HStem: -72 56<79 158> 554 56<79.0199 157.619>
VStem: 158 82<-15.2545 553.279>
LayerCount: 2
Fore
SplineSet
205 610 m 2
 215.833 610 240 609.294 240 585.712 c 2
 240 -47.7119 l 2
 240 -75.5938 209.973 -72 205 -72 c 2
 110 -72 l 2
 99.8857 -72 79 -71.8848 79 -52 c 2
 79 -37 l 2
 79 -14.165 106.223 -16 109 -16 c 2
 140 -16 l 2
 151.373 -16 156.742 -15.7891 157.71 -15.2861 c 0
 157.965 -14.6162 158 -13.5781 158 -13.1016 c 2
 158 551.102 l 2
 158 553.567 157.771 553.128 157.71 553.286 c 0
 155.888 554.231 146.833 554 140 554 c 2
 109 554 l 2
 99.3896 554 79 557.169 79 575 c 2
 79 590 l 2
 79 614.425 106.408 610 110 610 c 2
 205 610 l 2
EndSplineSet
EndChar

StartChar: asciicircum
Encoding: 139 94 139
Width: 341
Flags: W
LayerCount: 2
Fore
SplineSet
220.86 501.926 m 2
 272.762 471 l 0
 295.976 456.272 293.901 446.01 285.881 437.291 c 1
 275.063 405.264 260.843 415.48 243.725 441.028 c 1
 193.762 471.234 l 1
 143.799 441.028 l 1
 120.76 408.916 109.597 416.146 100.868 437 c 0
 100.644 437.288 l 1
 100.441 437 l 0
 90.9785 449.203 96.4307 459.181 114.762 471 c 0
 166.663 501.926 l 1
 188.995 519.558 201.577 517.15 220.86 501.926 c 2
EndSplineSet
EndChar

StartChar: underscore
Encoding: 140 95 140
Width: 677
Flags: W
HStem: -149 68<0 722>
LayerCount: 2
Fore
SplineSet
0 -101 m 0
 0 -78.8994 22.4785 -81 27 -81 c 2
 695 -81 l 0
 705.609 -81 722 -85.4199 722 -101 c 0
 722 -129 l 0
 722 -151.101 699.521 -149 695 -149 c 0
 27 -149 l 0
 16.0342 -149 0 -145.145 0 -129 c 0
 0 -101 l 0
EndSplineSet
EndChar

StartChar: grave
Encoding: 141 96 141
Width: 231
Flags: W
HStem: 434.592 132.408
VStem: 103.441 59.7988<493.555 566.822>
LayerCount: 2
Fore
SplineSet
163.24 552.278 m 0
 169.514 520.838 173.576 492.715 183.095 445.849 c 0
 183.161 445.508 l 1
 183.204 444.48 l 0
 183.925 440.895 184.366 437.451 179.526 434.592 c 0
 174.582 431.331 165.835 431.193 158.789 439.02 c 1
 131.584 480.628 122.811 497.562 103.441 533.324 c 1
 92.6162 548.808 108.137 563.363 122.119 567 c 0
 141.629 571.29 160.781 563.744 163.24 552.278 c 0
EndSplineSet
EndChar

StartChar: braceleft
Encoding: 142 123 142
Width: 366
Flags: W
HStem: -213 49.7979<211.014 305> 620 50<204.034 305>
VStem: 118 70<-139.568 191.003 279.938 603.479>
LayerCount: 2
Fore
SplineSet
305 -213 m 1
 258 -213 l 2
 218.703 -213 191.795 -204.066 164.402 -180.257 c 1
 131.511 -152.382 118 -123.991 118 -83.9238 c 0
 118 99.9121 l 0
 118 145.358 122.046 174.423 94.4102 193.498 c 1
 80.5625 202.203 71.4883 204.719 56.4453 205.535 c 0
 47 206.049 l 1
 47 249.727 l 1
 53.8379 251.955 l 0
 72.6787 258.097 78.665 262.048 89.9287 273.062 c 0
 90.0918 273.221 l 1
 90.2627 273.373 l 0
 121.247 300.998 118 333.415 118 376.645 c 0
 118 544.835 l 0
 118 586.614 135.545 613.909 164.497 637.338 c 1
 193.06 662.046 218.997 670 253 670 c 0
 305 670 l 1
 305 620 l 1
 253 620 l 0
 231.973 620 223.528 614.88 207.495 601.832 c 1
 179.506 577.915 188 549.639 188 507.696 c 0
 188 355.354 l 0
 188 316.099 189.385 285.748 163.785 254.499 c 1
 154.493 243.331 147.393 236.687 139.474 231.076 c 1
 149.545 226.419 156.7 220.553 162.771 215.081 c 0
 192.8 188.102 188 154.625 188 124.888 c 0
 188 -51.8691 l 0
 188 -96.6953 188.414 -125.246 217.037 -146.622 c 1
 233.786 -158.889 241.95 -162.399 258.385 -163.202 c 1
 305 -164.433 l 1
 305 -213 l 1
EndSplineSet
EndChar

StartChar: bar
Encoding: 143 124 143
Width: 200
Flags: W
HStem: 0 21G<97.6035 137.793> 0 21G<97.6035 137.793>
VStem: 88 62<0 622>
LayerCount: 2
Fore
SplineSet
150 597.779 m 0xa0
 150 24.2207 l 2
 150 10.0967 143.587 0 132 0 c 0
 106 0 l 0
 89.207 0 88 16.3535 88 24.2207 c 0
 88 597.779 l 0
 88 613.035 95.1152 622 106 622 c 0
 132 622 l 0
 149.633 622 150 604.289 150 597.779 c 0xa0
EndSplineSet
EndChar

StartChar: braceright
Encoding: 144 125 144
Width: 366
Flags: W
HStem: -213 48.5674<28 120.845> 620 50<28 128.984>
VStem: 146 69<-140.071 191.119 279.59 602.607>
LayerCount: 2
Fore
SplineSet
169.527 -180.315 m 1
 138.534 -206.293 111.711 -213 75 -213 c 2
 28 -213 l 1
 28 -164.433 l 1
 74.6152 -163.202 l 1
 93.6416 -162.273 102.968 -156.872 116.904 -146.664 c 1
 146.293 -124.053 146 -92.5947 146 -51.8691 c 0
 146 124.888 l 0
 146 158.825 143.244 189.829 170.148 215.009 c 1
 179.288 223.247 187.903 228.477 193.79 231.198 c 1
 183.164 238.552 176.127 246.192 169.215 254.499 c 1
 141.645 288.153 146 320.218 146 355.354 c 0
 146 507.696 l 0
 146 553.267 152.412 578.84 125.401 601.92 c 1
 108.177 616.762 98.6094 620 80 620 c 0
 28 620 l 1
 28 670 l 1
 80 670 l 0
 118.554 670 143.582 659.762 169.566 637.283 c 1
 200.405 611.435 215 583.084 215 544.835 c 0
 215 376.645 l 0
 215 329.573 213.349 299.576 242.737 273.373 c 0
 242.908 273.221 l 1
 243.071 273.062 l 0
 256.045 260.375 264.238 257.107 279.328 251.899 c 0
 286 249.598 l 1
 286 206.079 l 1
 276.587 205.537 l 0
 259.618 204.562 251.126 200.75 239.532 193.462 c 1
 209.612 173.4 215 141.128 215 99.9121 c 0
 215 -83.9238 l 0
 215 -127.244 199.954 -154.53 169.527 -180.315 c 1
EndSplineSet
EndChar

StartChar: asciitilde
Encoding: 145 126 145
Width: 339
Flags: W
HStem: 155.066 21.8516<161.542 260.623> 163.067 25.5059<44.6466 281.062> 168.646 28.2676<56.3297 112.99>
LayerCount: 2
Fore
SplineSet
44.4277 166.309 m 0x40
 35.7764 175.331 46.4521 184.921 55.2246 188.573 c 0x40
 78.8027 197.81 102.243 198.303 118.659 196.914 c 1x20
 158.604 191.366 176.478 180.603 209.646 176.918 c 1
 230.021 173.861 246.223 176.798 260.467 187.085 c 1
 270.785 194.652 282.909 195.02 289.508 187.038 c 0
 299.558 179.56 288.889 171.031 280.676 166.87 c 1
 255.54 154.353 230.144 153.226 206.194 155.066 c 1x80
 165.438 158.048 146.657 166.151 113.276 168.594 c 0
 112.99 168.614 l 1
 112.707 168.646 l 0x20
 103.003 169.74 80.2021 166.104 70.4766 163.067 c 1
 59.0039 159.617 49.0117 161.528 44.4277 166.309 c 0x40
EndSplineSet
EndChar

StartChar: exclamdown
Encoding: 147 161 147
Width: 260
Flags: W
HStem: -1 21G<98.3218 142.611> -1 21G<98.3218 142.611> 618 85<89.7336 161.333>
VStem: 84.0078 83<3.34633 300.667 623.858 697.531> 107.02 33.9707<384.841 605.137>
LayerCount: 2
Fore
SplineSet
121.67 605.235 m 0xa8
 139.585 607.965 140.391 584.814 140.99 577.625 c 0
 146.055 457.086 161.096 240.623 169.989 74.6113 c 1
 170.513 67.0273 170.876 60.0264 170.881 54.5811 c 0
 170.9 27.7764 161.214 -1 124.008 -1 c 0
 72.6357 -1 75.3311 49.1885 77.0273 74.6338 c 0
 89.1328 265.303 97.1191 408.198 107.02 577.492 c 1
 107.504 589.599 109.145 603.327 121.67 605.235 c 0xa8
125.008 703 m 0
 149.947 703 167.008 682.209 167.008 661 c 0
 167.008 635.013 145.373 618 125.008 618 c 0
 99.4092 618 84.0078 640.568 84.0078 661 c 0x30
 84.0078 686.854 104.772 703 125.008 703 c 0
EndSplineSet
EndChar

StartChar: cent
Encoding: 148 162 148
Width: 511
Flags: W
HStem: 141.085 48.6084<285.806 397.552>
VStem: 82 94<259.842 466.412>
LayerCount: 2
Fore
SplineSet
293.907 554.18 m 1
 294.257 560.689 293.384 560.037 288.021 559.188 c 0
 203.817 543.599 176 466.297 176 366 c 0
 176 293.603 192.297 238.199 232.042 208.868 c 1
 293.907 554.18 l 1
468.812 522.894 m 1
 468.944 522.638 l 2
 475.803 509.303 471.275 497.032 464.071 490.027 c 0
 449.8 476.153 426.05 480.813 419.69 496.27 c 1
 410.324 519.943 386.499 540.699 359.615 549.974 c 1
 352.858 552.164 350.196 547.781 350.012 546.382 c 0
 349.983 546.16 l 1
 285.711 201.103 l 1
 286.122 198.91 291.803 189.693 315.645 189.693 c 0
 384.366 189.693 408.147 213.291 427.248 246.894 c 0
 427.36 247.093 l 1
 427.483 247.286 l 0
 430.894 252.673 433.054 255.294 434.982 257.284 c 0
 446.351 269.019 460.475 263.256 469.071 254.898 c 1
 468.973 254.804 484.681 242.226 472.683 221.813 c 0
 472.542 221.574 l 1
 472.388 221.343 l 0
 432.646 161.821 381.729 141.085 309.905 141.085 c 0
 274.241 141.085 274.315 139.129 272.948 133.345 c 1
 272.723 133.383 269.09 111.545 253.516 23.873 c 1
 250.111 6.57422 231.716 3.02148 221.532 4.26855 c 0
 205.798 6.19629 197.099 18.3379 199.123 30.8047 c 0
 220.479 147.31 l 1
 221.416 153.662 221.168 154.267 214.441 156.166 c 0
 214.048 156.277 l 1
 213.665 156.412 l 0
 129.375 189.859 82 269.803 82 356.908 c 0
 82 492.971 162.04 585.822 290.023 599.868 c 1
 306.169 601.822 303.331 602.242 304.389 606.721 c 1
 304.614 606.683 306.868 620.93 316.927 678.238 c 1
 320.39 696.571 336.529 704.558 350.045 703.147 c 0
 366.737 701.259 373.107 685.874 370.878 672.325 c 1
 359.832 603.014 l 1
 359.762 602.705 l 0
 359.174 600.133 358.693 599.692 365.793 597.622 c 1
 408.877 585.808 448.938 556.455 468.666 523.141 c 0
 468.812 522.894 l 1
EndSplineSet
EndChar

StartChar: sterling
Encoding: 149 163 149
Width: 692
Flags: W
HStem: 0 63<320.256 668.704> 254 88<231.562 281.005 413.046 463.295> 616 53<507.44 606.31>
VStem: 630.002 63<457.039 588.704>
LayerCount: 2
Fore
SplineSet
218.379 317.327 m 0
 218.074 334.969 236.85 342 253.002 342 c 2
 299.002 342 l 0
 304.688 342 309.029 343.654 310.516 347.979 c 1
 310.705 347.918 319.647 379.622 358.045 506.645 c 1
 384.985 593.326 425.459 669 552.231 669 c 0
 643.67 669 693.002 580.727 693.002 499 c 0
 693.002 480.203 688.252 459.838 664.97 455.178 c 1
 651.646 452.192 647.506 454.359 641.829 455.068 c 1
 620.704 457.416 624.808 478.019 625.184 479.899 c 1
 628.471 497.433 630.002 507.362 630.002 522 c 0
 630.002 577.116 603.049 616 553.325 616 c 0
 502.351 616 472.94 555.872 455.651 497.704 c 1
 408.639 349.107 l 1
 406.387 341.655 410.746 342 413.397 342 c 0
 441.82 342 l 0
 457.038 342 466.795 336.917 471.918 330.207 c 0
 481.725 317.358 472.964 304.117 463.454 298.26 c 1
 472.74 293.24 476.08 285.443 476.135 279.238 c 0
 476.28 262.545 458.237 254 441.82 254 c 0
 390.44 254 l 0
 381.133 254 379.694 253.637 375.779 242.748 c 1
 321.708 70.1992 l 1
 320.458 65.0195 320.375 64.4717 320.256 63.3906 c 1
 323.694 62.7803 323.926 63 325.002 63 c 0
 644.002 63 l 0
 664.609 63 670.904 39.6113 670.95 28.291 c 0
 671.015 12.5029 659.691 0 643.002 0 c 0
 255.002 0 l 0
 246.401 0 242.831 0.831055 239.911 1.52246 c 0
 212.699 7.72656 218.803 31.8613 221.356 41.0713 c 1
 281.059 245.899 l 1
 279.973 251.297 275.579 254 274.002 254 c 0
 254.002 254 l 0
 237.153 254 226.037 259.894 221.016 268.792 c 0
 213.723 281.717 222.989 293.606 231.121 298.124 c 1
 222.246 303.168 218.498 310.38 218.379 317.327 c 0
EndSplineSet
EndChar

StartChar: currency
Encoding: 150 164 150
Width: 584
Flags: W
HStem: 115 70<159.814 336.96> 445 70<160.613 337.809>
LayerCount: 2
Fore
SplineSet
99.0879 315.266 m 0
 98.958 248.347 146.9 185 248.639 185 c 0
 353.004 185 398.963 250.455 399.088 314.734 c 0
 399.218 381.653 350.378 445 248.639 445 c 0
 144.274 445 99.2129 379.545 99.0879 315.266 c 0
63.0332 524.35 m 1
 111.014 475.348 l 1
 145.947 500.705 194.434 515 248.639 515 c 0
 310.394 515 358.805 498.4 391.56 472.613 c 1
 443.088 524.143 l 1
 485.299 483.84 l 1
 432.201 434.117 l 1
 483.776 361.323 480.543 262.052 430.307 193.687 c 1
 485.296 142.155 l 1
 443.021 101.79 l 1
 390.197 155.629 l 1
 353.783 129.382 304.945 115 248.639 115 c 0
 190.012 115 144.011 131.028 113.118 152.765 c 1
 63.0303 101.653 l 1
 22.0732 142.208 l 1
 29.0166 148.838 l 0
 70.9043 189.27 l 1
 12.3018 262.628 16.6895 368.758 69.9766 438.438 c 1
 29.0928 477.09 l 0
 22 483.719 l 1
 63.0332 524.35 l 1
EndSplineSet
EndChar

StartChar: yen
Encoding: 151 165 151
Width: 717
Flags: W
HStem: 0 21G<346.044 390.784> 0 21G<346.044 390.784> 331 62<25 259.021 457.417 687> 457 62<25 157.712 328.05 429.922 553.214 687> 631 20G<609.619 616.896>
VStem: 311.91 95.5273<122.56 330.639> 321.097 96.92<7.2918 214.473>
LayerCount: 2
Fore
SplineSet
375.798 398.184 m 1x38
 379.478 393.802 379.813 393.798 380.467 393.2 c 1
 384.724 397.504 l 1
 429.922 457 l 1
 328.05 457 l 1
 375.798 398.184 l 1x38
457.417 393 m 1
 662 393 l 2
 676.579 393 687 386.587 687 375 c 0
 687 349 l 0
 687 332.207 670.121 331 662 331 c 0
 411.865 331 l 1
 406.633 323.233 407.438 320.232 407.438 310.629 c 0xbc
 418.017 26.4043 l 0
 418.017 17.5059 415.452 11.2461 410.911 7.0957 c 0
 403.153 -0.21582 393.568 0 388 0 c 0
 351 0 l 0
 341.089 0 334.138 1.53418 329.109 5.54492 c 0
 320.249 12.3994 321.097 21.3828 321.097 26.3604 c 0xba
 311.91 310.626 l 0xbc
 311.91 319.732 309.907 326.292 307.679 331 c 1
 50 331 l 0
 34.2529 331 25 338.115 25 349 c 0
 25 375 l 0
 25 392.633 43.2812 393 50 393 c 0
 259.021 393 l 1
 207.034 457 l 1
 50 457 l 0
 34.2529 457 25 464.115 25 475 c 0
 25 501 l 0
 25 518.633 43.2812 519 50 519 c 0
 157.712 519 l 1
 77.8105 621.6 l 1
 59.875 644.965 87.7461 652.34 92.7598 652.923 c 1
 92.9199 651.64 102.782 659.259 145.101 652.947 c 1
 162.854 651.441 173.117 645.848 180.818 636.097 c 1
 278.368 519 l 1
 476.568 519 l 1
 572.862 638.741 l 0
 587.439 657.712 606.237 651 613 651 c 0
 620.792 651 624.52 648.871 626.853 647.423 c 0
 642.718 638.285 635.546 621.787 631.32 615.907 c 0
 631.181 615.713 l 1
 553.214 519 l 1
 662 519 l 0
 676.579 519 687 512.587 687 501 c 0
 687 475 l 0
 687 458.207 670.121 457 662 457 c 0
 506.054 457 l 1
 457.417 393 l 1
EndSplineSet
EndChar

StartChar: brokenbar
Encoding: 152 166 152
Width: 199
Flags: W
HStem: 0 21G<97.6035 137.793> 0 21G<97.6035 137.793>
VStem: 88 62<0 284 338 622>
LayerCount: 2
Fore
SplineSet
150 597 m 0x20
 150 363 l 2
 150 348.421 143.587 338 132 338 c 0
 106 338 l 0
 89.207 338 88 354.879 88 363 c 0
 88 597 l 0
 88 612.747 95.1152 622 106 622 c 0
 132 622 l 0
 149.633 622 150 603.719 150 597 c 0x20
150 259 m 0
 150 25 l 2
 150 10.4209 143.587 0 132 0 c 0
 106 0 l 0xa0
 89.207 0 88 16.8789 88 25 c 0
 88 259 l 0
 88 274.747 95.1152 284 106 284 c 0
 132 284 l 0
 149.633 284 150 265.719 150 259 c 0
EndSplineSet
EndChar

StartChar: section
Encoding: 153 167 153
Width: 379
Flags: W
VStem: 36.0586 96.9121<64.9617 140.92> 243.026 95.9053<563.675 639.877>
LayerCount: 2
Fore
SplineSet
252.608 470.872 m 2
 271.524 461.036 284.655 446.521 294.237 430.278 c 0
 329.499 370.51 317.828 279.218 247.728 238.086 c 1
 293.503 218.71 332.222 170.756 321.881 104.006 c 0
 311.694 42.834 257.691 17.7158 239.106 12.0166 c 0
 209.045 2.7627 177.076 -3.60938 127.415 4 c 0
 72.2842 12.0479 30.4717 46.4131 36.0586 94.3262 c 0
 40.4316 137.013 67.3447 154.216 89.873 152.42 c 0
 115.007 150.413 135.269 125.966 132.971 92.0869 c 0
 131.672 76.0547 119.438 61.9648 94.917 61.0127 c 1
 99.0498 50.3545 102.113 47.4961 109.323 44.8594 c 2
 109.585 44.7676 l 1
 109.841 44.4619 l 2
 116.108 42.1006 122.324 40.4961 127.442 39.4658 c 0
 136.466 37.6357 144.924 37 151.995 37 c 0
 198.378 37 231.498 67.4209 236.049 106.072 c 0
 244.108 182.8 192.496 215.317 116.312 236.366 c 2
 115.062 236.715 l 1
 113.943 237.37 l 2
 93.0742 249.586 79.1592 265.781 69.2559 283.616 c 0
 34.2031 346.742 51.2393 434.878 117.342 471.248 c 1
 78.2773 492.521 41.7988 533.858 53.1201 600.932 c 0
 63.252 662.339 118.552 687.667 135.188 694 c 2
 135.708 693.846 l 1
 136.248 694 l 2
 166.247 702.216 199.102 707.59 248.575 700 c 0
 303.658 691.966 344.512 658.485 338.932 610.674 c 0
 334.496 567.376 306.849 550.273 284.172 552.683 c 0
 259.51 555.298 240.219 579.816 243.026 612.814 c 0
 244.296 628.465 255.479 642.08 280.325 643 c 1
 277.322 652.396 273.475 656.285 265.667 659.141 c 2
 265.405 659.232 l 1
 265.149 659.538 l 2
 258.654 661.984 252.102 663.658 246.646 664.713 c 0
 237.79 666.44 229.842 667 222.896 667 c 0
 176.078 667.816 146.143 636.93 139.904 597.269 c 0
 128.279 509.876 215.995 477.934 249.789 471.838 c 2
 251.271 471.567 l 1
 252.608 470.872 l 2
186.871 434.001 m 0
 150.165 434.428 125.636 395.698 122.165 354.688 c 0
 118.569 312.2 136.912 277.175 175.817 273.966 c 0
 216.826 270.584 236.422 308.599 237.002 351.149 c 0
 237.632 397.352 215.823 433.634 186.871 434.001 c 0
EndSplineSet
EndChar

StartChar: copyright
Encoding: 155 169 155
Width: 609
Flags: W
HStem: 107 50<211.932 388.316> 218 34<267.633 371.186> 479 33<267.423 368.5> 578 50<211.887 388.27>
VStem: 49 50<273.735 463.191> 168 58.3802<289.606 442.363> 501 50<271.437 460.866>
LayerCount: 2
Fore
SplineSet
49 367.019 m 0
 49 511.035 156.294 628 300 628 c 0
 448.506 628 551 506.896 551 367.019 c 0
 551 223.976 444.689 107 300 107 c 0
 152.508 107 49 228.045 49 367.019 c 0
501 367.022 m 0
 501 488.78 409.029 578 300 578 c 0
 187.279 578 99 485.012 99 367.022 c 0
 99 246.25 190.964 157 300 157 c 0
 412.75 157 501 250.025 501 367.022 c 0
394.527 298.448 m 0
 401.668 307.989 413.456 305.154 417.768 302.166 c 0
 422.682 299.141 424.061 297.808 426.669 296 c 0
 427.285 295.573 l 1
 427.829 295.071 l 0
 435.096 288.046 430.689 276.065 428.774 272.528 c 0
 428.521 272.059 l 1
 428.214 271.616 l 0
 400.151 231.045 360.911 218 314.074 218 c 0
 229.327 218 168 286.426 168 365 c 0
 168 447.838 233.56 512 314.074 512 c 0
 363.369 512 403.13 494.436 425.225 458.989 c 1
 424.705 458.713 435.512 443.322 421.848 434.68 c 0
 418.147 432.4 417.251 431.934 413.901 430.862 c 1
 402.42 425.798 393.724 427.67 389.332 439.838 c 0
 389.155 440.327 l 1
 389.035 440.831 l 0
 385.985 453.51 354.475 479 315.157 479 c 0
 262.608 479 226.38 430.395 226.38 366 c 0
 226.38 292.903 267.542 252 315.157 252 c 0
 365.073 252 385.509 281.873 388.038 285.961 c 0
 388.372 286.502 l 1
 388.62 286.808 l 1
 390.272 290.064 392.256 295.413 394.527 298.448 c 0
EndSplineSet
EndChar

StartChar: ordfeminine
Encoding: 156 170 156
Width: 336
Flags: W
HStem: 169 62<51.9256 303.074> 337 37<130.18 197.992>
VStem: 51 253<170.498 229.502>
LayerCount: 2
Fore
SplineSet
269 231 m 0
 301.307 231 304 212.73 304 200 c 0
 304 182.579 296.062 169 269 169 c 0
 86 169 l 0
 53.6934 169 51 187.27 51 200 c 0
 51 217.421 58.9375 231 86 231 c 0
 269 231 l 0
212.735 333.21 m 1
 211.289 335.233 206.417 337 205 337 c 2
 122.186 337 l 1
 120.368 336.445 117.657 333.244 117.585 333.133 c 1
 117.487 332.838 l 0
 112.236 317.087 107.83 300.134 102.546 284.998 c 1
 99.1592 273.557 91.9102 266 81 266 c 0
 59.9053 266 61.8486 287.168 63.4795 292.062 c 1
 134.455 520.982 l 0
 139.409 536.834 149.355 544.617 158.123 548.047 c 0
 178.727 556.105 200.264 545.069 206.386 528.449 c 0
 292.438 294.307 l 1
 296.334 282.621 290.964 266 275 266 c 0
 256 266 l 0
 240.329 266 232.766 276.144 229.626 284.517 c 1
 221.875 305.557 216.853 321.619 212.735 333.21 c 1
130.469 374.771 m 1
 130.18 374 l 1
 197.992 374 l 1
 161.249 474.807 l 1
 130.469 374.771 l 1
EndSplineSet
EndChar

StartChar: logicalnot
Encoding: 158 172 158
Width: 678
Flags: W
HStem: 190 60<35 555>
VStem: 555 60<40 190>
LayerCount: 2
Fore
SplineSet
35 190 m 1
 35 250 l 1
 615 250 l 1
 615 40 l 1
 555 40 l 1
 555 190 l 1
 35 190 l 1
EndSplineSet
EndChar

StartChar: registered
Encoding: 160 174 160
Width: 584
Flags: W
HStem: 107 50<191.913 368.677> 462 33<249.654 340.83> 578 50<191.868 368.631>
VStem: 29 50<273.735 463.191> 196.621 53.0329<215 350.294 364.939 462> 353.556 55.1975<377.956 452.559> 482 50<271.429 460.871>
LayerCount: 2
Fore
SplineSet
29 367.019 m 0
 29 511.035 136.294 628 279.959 628 c 0
 428.474 628 532 506.951 532 367.019 c 0
 532 223.925 424.648 107 279.959 107 c 0
 132.508 107 29 228.045 29 367.019 c 0
482 367.022 m 0
 482 488.753 390.075 578 279.959 578 c 0
 167.273 578 79 485.012 79 367.022 c 0
 79 246.25 170.957 157 279.959 157 c 0
 393.798 157 482 250.033 482 367.022 c 0
249.654 462 m 1
 249.654 364.939 l 1
 257.057 374.344 267.087 371.064 268.314 370.923 c 0
 268.821 370.864 l 1
 269.319 370.762 l 0
 277.276 369.128 290.231 370.121 304.132 370.978 c 0
 304.491 371 l 1
 304.852 371 l 0
 334.601 371 353.556 391.265 353.556 414 c 0
 353.556 445.355 327.553 462 298.358 462 c 0
 249.654 462 l 1
251.548 347.347 m 1
 250.671 348.562 250.003 349.69 249.654 350.294 c 2
 249.654 231 l 0
 249.654 215.771 233.762 215 231.255 215 c 0
 215.021 215 l 0
 202.16 215 196.621 224.952 196.621 231 c 0
 196.621 478 l 0
 196.621 494.507 212.985 495 215.021 495 c 0
 298.358 495 l 0
 352.44 495 408.753 471.744 408.753 416 c 0
 408.753 365.975 363.57 340.423 325.183 338.182 c 1
 401.454 237.645 l 1
 408.672 227.641 398.752 215 387.107 215 c 0
 366.543 215 l 0
 359.447 215 352.113 217.19 348.067 220.929 c 0
 347.407 221.538 l 1
 251.548 347.347 l 1
EndSplineSet
EndChar

StartChar: macron
Encoding: 161 175 161
Width: 315
Flags: W
HStem: 425 48<43.0801 257.098>
VStem: 43 219<426.066 472.064>
LayerCount: 2
Fore
SplineSet
227 473 m 0
 255.898 473 262 467.871 262 461.377 c 0
 262 458.837 261.833 456.33 259.023 454.219 c 0
 251.869 419.024 238.099 425 227 425 c 0
 78 425 l 0
 49.1016 425 43 435.59 43 449 c 0
 43 466.898 55.1709 473 78 473 c 0
 227 473 l 0
EndSplineSet
EndChar

StartChar: degree
Encoding: 162 176 162
Width: 263
Flags: W
HStem: 601 60<126.796 214.489> 740 60<126.751 213.91>
VStem: 61 60<668.86 732.191> 220 60<668.197 732.369>
LayerCount: 2
Fore
SplineSet
171 601 m 0
 108.332 601 61 647.872 61 700.965 c 1
 62.1621 758.712 113.146 800 170 800 c 0
 232.633 800 280 753.209 280 700.954 c 0
 280 644.041 228.506 601 171 601 c 0
170 740 m 0
 142.075 740 121 720.806 121 700.101 c 0
 121 677.73 145.202 661 170 661 c 0
 199.166 661 220 680.336 220 700.101 c 0
 220 723.3 195.894 740 170 740 c 0
EndSplineSet
EndChar

StartChar: plusminus
Encoding: 163 177 163
Width: 351
Flags: W
HStem: 213 53<33 154 207 332> 311 53<33 154 207 332>
VStem: 154 53<210 213 266 311 364 456>
LayerCount: 2
Fore
SplineSet
154 266 m 1
 154 311 l 1
 33 311 l 1
 33 364 l 1
 154 364 l 1
 154 456 l 1
 207 456 l 1
 207 364 l 1
 332 364 l 1
 332 311 l 1
 207 311 l 1
 207 266 l 1
 332 266 l 1
 332 213 l 1
 207 213 l 1
 207 210 l 1
 154 210 l 1
 154 213 l 1
 33 213 l 1
 33 266 l 1
 154 266 l 1
EndSplineSet
EndChar

StartChar: twosuperior
Encoding: 164 178 164
Width: 357
Flags: W
HStem: 368 37<142.13 262.649> 613 32<108.912 195.907>
VStem: 47.6934 42<527.131 598.383> 212.693 56<511.401 600.334>
LayerCount: 2
Fore
SplineSet
147.693 613 m 0
 118.46 613 89.6934 590.967 89.6934 546 c 0
 89.6934 532.568 77.791 527 70.6934 527 c 0
 56.8125 527 47.6934 538.473 47.6934 549 c 0
 47.6934 610.228 96.498 645 149.693 645 c 0
 209.178 645 268.693 608.187 268.693 556.385 c 0
 268.693 517.804 251.228 493.993 224.589 470.314 c 1
 191.806 441.833 170.284 426.915 142.13 405 c 1
 241.693 405 l 0
 254.846 405 262.186 395.434 262.677 387.087 c 0
 263.54 372.399 248.632 368 239.693 368 c 0
 52.6934 368 l 0
 33.082 368 31.21 384.325 41.623 393.952 c 0
 41.915 394.223 l 1
 186.194 507.233 l 1
 207.073 523.905 212.693 539.553 212.693 564.925 c 0
 212.693 594.375 180.58 613 147.693 613 c 0
EndSplineSet
EndChar

StartChar: threesuperior
Encoding: 165 179 165
Width: 329
Flags: W
HStem: 485 32<189.02 214.074> 617 35<63.1543 185.993>
VStem: 214.06 57.9521<421.683 484.82>
LayerCount: 2
Fore
SplineSet
174.922 617 m 1
 77.0117 617 l 2
 62.8379 617 62.7344 626.773 62.9814 632.202 c 1
 61.0205 645.153 72.1855 652 80.0117 652 c 0
 185.012 652 l 0
 206.08 652 218.7 648.316 227.75 643.038 c 0
 255.67 627.952 246.143 599.971 236.5 585.293 c 1
 192.239 520.987 l 1
 192.012 520.706 l 0
 189.02 517 l 1
 222.012 517 l 0
 242.253 517 272.012 496.803 272.012 468.852 c 0
 272.012 439.924 254.185 419.344 242.412 401.031 c 1
 153.377 273.87 l 1
 146.384 263.288 140.457 257 128.012 257 c 0
 122.02 257 122.719 255 113.012 255 c 0
 106.312 255 101.391 255.053 96.709 258.004 c 0
 82.6777 266.479 94.3965 280.968 96.6494 284.325 c 1
 195.674 426.114 l 1
 198.532 430.673 211.955 459.005 214.06 469.799 c 1
 214.438 478.398 209.737 485 190.012 485 c 0
 144.012 485 l 0
 138.163 485 130.155 484.856 123.986 488.696 c 0
 111.571 496.424 119.098 509.468 122.717 514.362 c 1
 154.514 559.175 160.146 567.18 186.326 609.522 c 1
 183.479 613.871 175.83 616.84 174.922 617 c 1
EndSplineSet
EndChar

StartChar: acute
Encoding: 166 180 166
Width: 229
Flags: W
HStem: 434.294 132.706
VStem: 119.041 59.7998<494.524 567.558>
LayerCount: 2
Fore
SplineSet
119.041 552.278 m 1
 122.565 568.71 147.926 569.69 160.163 567 c 0
 180.083 561.819 186.815 544.729 178.841 533.323 c 1
 158.229 495.271 148.885 477.854 123.493 439.02 c 1
 120.273 436.437 116.831 434.335 110.512 434.294 c 0
 96.3809 434.196 98.7979 443.276 99.0771 444.48 c 0
 99.1201 445.509 l 1
 99.1875 445.849 l 0
 109.55 496.869 113.426 524.133 119.041 552.278 c 1
EndSplineSet
EndChar

StartChar: micro
Encoding: 167 181 167
Width: 711
Flags: W
HStem: 0 18.998<210.109 285.48>
LayerCount: 2
Fore
SplineSet
427.363 2.18555 m 1
 398.509 7.21289 362.748 25.2295 345.747 55.6689 c 1
 318.395 22.4697 291.171 0 246.57 0 c 0
 188.361 0 158.438 30.1514 141.69 54.8682 c 1
 118.885 -100.548 l 1
 114.964 -124.071 98.3809 -142 76.0049 -142 c 0
 50.8779 -142 29.2197 -120.883 33.1289 -97.4248 c 1
 113.111 409.217 l 1
 116.503 432.13 128.121 458 156.215 458 c 0
 194.23 458 200.456 415.435 197.57 394.617 c 1
 163.64 180.162 l 1
 162.591 129.827 l 0
 161.525 71.6621 192.665 19.8242 243.602 18.998 c 1
 261.55 18.5859 274.627 22.6201 285.546 28.3223 c 0
 303.997 37.958 317.592 53.5791 328.758 71.9609 c 0
 328.877 72.1582 l 1
 329.006 72.3496 l 0
 329.425 72.9717 336.814 84.9375 337.233 85.752 c 1
 386.997 416.444 l 1
 391.011 441.622 413.285 465.802 441.192 457.512 c 1
 468.12 449.423 477.417 426.623 473.916 406.649 c 0
 422.888 120.202 l 1
 418.653 97.3037 439.627 81.5176 465.499 71.1562 c 1
 494.598 60.124 520.719 88.0176 538.061 121.242 c 0
 568.83 180.193 l 1
 610.142 157.108 l 1
 578.934 97.3184 l 1
 548.562 40.1309 499.79 -11.3955 427.363 2.18555 c 1
EndSplineSet
EndChar

StartChar: paragraph
Encoding: 168 182 168
Width: 714
Flags: W
HStem: 0 21G<400.327 449.914 546.84 597.394> 0 21G<400.327 449.914 546.84 597.394> 298 52<187.205 382.995 480.61 524.906> 598 52<194.411 383 479.87 524.913>
VStem: 34 99<403.969 538.478> 383 96.8696<6.39231 297.822 350.022 596.937> 524.913 97.087<6.39291 298 350 597>
LayerCount: 2
Fore
SplineSet
479.876 350.022 m 1x3e
 481.093 350.007 481.087 350 482.304 350 c 2
 523.696 350 l 0
 525.385 350 524.913 357.561 524.913 357.688 c 0
 524.913 592.194 l 0
 524.913 597.206 525.39 597 517.609 597 c 0
 483.522 597 l 0
 480.749 597 479.87 596.102 479.87 593.155 c 0
 479.87 350.961 l 0
 479.876 350.022 l 1x3e
480.598 297.853 m 1
 480.188 297.217 479.87 295.26 479.87 294.133 c 2
 479.87 26.3105 l 0
 479.87 17.1182 478.048 10.7061 472.348 6.17871 c 0
 463.397 -1.17383 452.829 0 447 0 c 0
 410 0 l 0
 390.654 0 383 13.1348 383 26.123 c 0
 383 278.649 l 0
 383 294.706 378.152 298 377 298 c 0
 226 298 l 0
 119.61 298 34 365.832 34 474 c 0
 34 602.658 160.774 650 275 650 c 0
 595 650 l 0
 605.029 650 611.513 647.195 615.608 642.904 c 0
 622.501 635.904 622 627.994 622 623.606 c 0
 622 26.3662 l 0
 622 17.1484 620.504 10.7188 615.821 6.17871 c 0
 608.469 -1.17383 599.788 0 595 0 c 0
 559 0 l 0xbe
 534.681 0 524.913 12.8027 524.913 26.123 c 0
 524.913 291.228 l 0
 524.913 296.308 524.613 297.169 524.514 297.658 c 1
 521.459 298.111 520.005 298 518.826 298 c 0
 482.304 298 l 0
 480.35 298 480.858 297.902 480.598 297.853 c 1
259 350 m 0
 366 350 l 2
 375.932 350 383 358.911 383 363.457 c 0
 383 591.271 l 0
 383 593.231 376.718 598 373 598 c 0
 275 598 l 0
 195.641 598 133 548.203 133 467.271 c 0
 133 400.083 192.004 350 259 350 c 0
EndSplineSet
EndChar

StartChar: periodcentered
Encoding: 169 183 169
Width: 288
Flags: W
HStem: 274 95<120.987 197.959>
VStem: 113 93<281.574 361.506>
LayerCount: 2
Fore
SplineSet
159 274 m 0
 131.647 274 113 298.169 113 322 c 0
 113 349.977 136.575 369 159 369 c 0
 187.066 369 206 345.215 206 322 c 0
 206 293.125 182.393 274 159 274 c 0
EndSplineSet
EndChar

StartChar: cedilla
Encoding: 170 184 170
Width: 60
Flags: W
HStem: -196.229 40.374<190 247.103> -96 70<265 299.348> -20.7432 20G<217 265> -20.7432 20G<217 265>
VStem: 217 48<-26 -14.457> 301 65.9941<-144.399 -98.7517>
LayerCount: 2
Fore
SplineSet
217 -96 m 1xec
 217 -14.457 l 1
 265 -0.743164 l 1
 265 -26 l 1
 279 -26 l 0
 322.889 -26 365.83 -55.3125 366.994 -92.7207 c 1
 370.327 -177.648 312.401 -194.064 244.187 -194.998 c 1
 190 -196.229 l 1
 190 -155.855 l 1
 247.103 -151.888 l 1
 280.165 -149.221 301 -142.891 301 -119.342 c 0
 301 -104.88 280.365 -96 259 -96 c 0
 217 -96 l 1xec
EndSplineSet
EndChar

StartChar: onesuperior
Encoding: 171 185 171
Width: 172
Flags: W
HStem: 599 31.9727<37.8275 90.9529>
VStem: 91.0771 61<359 597.9>
LayerCount: 2
Fore
SplineSet
56.3291 630.973 m 1
 88.6045 633.124 101.597 634 130.077 634 c 0
 144.163 634 152.077 623.863 152.077 613.491 c 0
 152.077 378.576 l 0
 152.077 363.667 139.238 359 130.077 359 c 0
 113.077 359 l 0
 97.7666 359 91.0771 368.766 91.0771 378.378 c 0
 91.0771 596.154 l 0
 91.0771 598.438 90.9688 597.854 90.9619 597.901 c 1
 90.7744 597.923 90.208 598 89.0771 598 c 0
 73.6797 598 67.0088 599 56.0771 599 c 0
 45.8379 599 38.9785 604.878 37.7666 611.879 c 0
 35.2285 626.55 50.4873 630.485 56.3291 630.973 c 1
EndSplineSet
EndChar

StartChar: ordmasculine
Encoding: 172 186 172
Width: 367
Flags: W
HStem: 169 62<65.9256 328.074> 262 36<152.896 231.378> 509 35<152.166 229.88>
VStem: 57 61<329.96 476.636> 265 60<328.921 477.932>
LayerCount: 2
Fore
SplineSet
294 231 m 0
 326.307 231 329 212.73 329 200 c 0
 329 182.579 321.062 169 294 169 c 0
 100 169 l 0
 67.6934 169 65 187.27 65 200 c 0
 65 217.421 72.9375 231 100 231 c 0
 294 231 l 0
191 262 m 0
 114.692 262 57 328.025 57 403 c 0
 57 482.131 118.641 544 191 544 c 0
 268.311 544 325 477.921 325 403 c 0
 325 323.945 264.385 262 191 262 c 0
192 509 m 0
 152.154 509 118 462.738 118 403.022 c 0
 118 340.319 154.917 298 192 298 c 0
 230.78 298 265 344.276 265 403.022 c 0
 265 466.812 227.977 509 192 509 c 0
EndSplineSet
EndChar

StartChar: guillemotright
Encoding: 173 187 173
Width: 420
Flags: W
LayerCount: 2
Fore
SplineSet
254.208 443.931 m 0
 369.301 302.865 370.977 301.611 377.622 292.682 c 1
 385.326 281.125 384.578 264.631 375.371 251.972 c 1
 255.206 105.066 l 1
 248.903 98.9688 245.833 97.3574 242.677 96 c 0
 226.051 90.0742 218.195 102.4 217.525 103.26 c 1
 210.628 115.981 209.575 128.991 222.571 145.539 c 1
 326.497 272.14 l 0
 328.464 274.627 l 1
 222.574 403.456 l 1
 205.862 424.53 213.663 438.068 217.544 444.393 c 1
 219.507 447.893 221.393 450.705 224.232 452.743 c 0
 236.954 462.879 249.29 449.295 254.208 443.931 c 0
134.314 443.901 m 0
 249.739 303.616 251.902 300.404 257.02 293.524 c 1
 267.717 279.263 263.835 263.608 255.371 251.972 c 1
 135.206 105.067 l 1
 129.282 99.1963 126.772 97.7617 124.098 96.375 c 0
 107.7 89.1904 98.6025 102.247 97.9111 103 c 0
 97.7744 103.219 l 1
 97.6494 103 l 0
 91.2988 114.833 89.0811 128.351 102.571 145.539 c 1
 206.497 272.14 l 0
 208.464 274.627 l 1
 102.574 403.457 l 1
 85.8379 424.558 93.4727 437.751 97.7725 444.756 c 1
 100.613 448.73 102.146 450.768 105.134 452.743 c 0
 118.076 462.234 129.71 449.193 134.314 443.901 c 0
EndSplineSet
EndChar

StartChar: onequarter
Encoding: 174 188 174
Width: 404
Flags: W
HStem: 16 37<272.446 344.993> 16 27<101.774 213.846> 305 4.49023<243.974 265.74> 369 4<215.135 257.805> 630 30.9727<156.327 210.415>
VStem: 214.415 58<-103.938 15.9996 53 200.206 373.199 628.722>
LayerCount: 2
Fore
SplineSet
213.85 43.3418 m 1x7c
 214.123 43.8584 214.415 45.7842 214.415 47 c 2
 214.415 200.206 l 1
 101.774 43.0771 l 1
 102.302 43.0488 103.095 43 104.415 43 c 0
 211.415 43 l 0
 213.935 43 213.775 43.3086 213.85 43.3418 c 1x7c
253.415 -109 m 0
 236.415 -109 l 2
 227.96 -109 224.098 -105.936 222.062 -104.257 c 0
 213.839 -97.4727 214.415 -89.2148 214.415 -86 c 0
 214.415 16 l 0
 70.415 16 l 0x7c
 60.2949 16 56.374 17.4658 53.0029 19.3555 c 0
 36.2266 28.7588 50.168 45.6572 50.1768 45.6699 c 1
 229.278 297.812 l 0
 234.864 305.633 243.974 309.162 251.347 309.49 c 0
 265.74 310.13 272.415 297.121 272.415 286 c 0
 272.415 55 l 0
 272.415 54 272.433 53.3994 272.446 53 c 1
 319.415 53 l 0
 332.92 53 345.232 46.834 345.292 34.7148 c 0
 345.371 18.7041 327.457 16 317.415 16 c 0
 273.415 16 l 0xbc
 272.994 16 272.435 15.5098 272.415 15.4883 c 1
 272.415 -88 l 0
 272.415 -100.791 263.007 -109 253.415 -109 c 0
174.667 660.973 m 1
 207.006 663.129 220.887 664 249.415 664 c 0
 262.083 664 271.415 654.344 271.415 643 c 0
 271.415 391 l 0
 271.415 373.682 257.805 369 249.415 369 c 0
 231.415 369 l 0
 215.135 369 210.415 381.383 210.415 391 c 0
 210.415 627 l 0
 210.415 627.3 210.405 627.424 210.381 627.823 c 1
 208.734 628.132 208.854 628 208.415 628 c 0
 192.242 628 185.854 630 175.415 630 c 0
 165.522 630 157.702 634.688 156.255 642.574 c 0
 153.465 657.77 169.991 660.582 174.667 660.973 c 1
46.415 353 m 0
 46.415 376.135 69.7061 373 73.415 373 c 2
 321.415 373 l 0
 331.153 373 348.415 369.631 348.415 353 c 0
 348.415 325 l 0
 348.415 303.852 326.608 305 321.415 305 c 0
 73.415 305 l 0
 62.4492 305 46.415 308.855 46.415 325 c 0
 46.415 353 l 0
EndSplineSet
Ligature2: "'frac' +ZZwwgTBuUgZlcAAA in +MOkwxjDzZYdbVwAA lookup 1-1" one fraction four
Ligature2: "'frac' +ZZwwgTBuUgZlcAAA in +MOkwxjDzZYdbVwAA lookup 1-1" one slash four
EndChar

StartChar: onehalf
Encoding: 175 189 175
Width: 382
Flags: W
HStem: 3 37<186.68 307.848> 258 32<153.674 240.465> 296 68<46 348> 630 31.9736<111.248 164.774>
VStem: 92 42<172.211 243.322> 165 61<370 628.824> 258 56<153.334 245.131>
LayerCount: 2
Fore
SplineSet
46 344 m 2
 46 366.581 67.9824 364 73 364 c 2
 321 364 l 2
 330.738 364 348 360.631 348 344 c 2
 348 316 l 2
 348 293.899 325.521 296 321 296 c 2
 73 296 l 2
 62.0342 296 46 299.855 46 316 c 2
 46 344 l 2
130.277 661.974 m 0
 161.428 664.122 175.625 665 204 665 c 0
 217.003 665 226 654.69 226 643 c 2
 226 391 l 2
 226 375.007 213.161 370 204 370 c 2
 186 370 l 2
 170.015 370 165 381.859 165 391 c 2
 165 627 l 2
 165 629.148 164.905 628.475 164.844 628.841 c 0
 163.329 629.117 163.405 629 163 629 c 0
 147.603 629 140.931 630 130 630 c 0
 119.519 630 112.056 636.128 111.203 643.941 c 0
 109.633 658.333 124.591 661.536 130.277 661.974 c 0
193 258 m 0
 163.618 258 134 235.791 134 191 c 0
 134 177.822 123.32 172 116 172 c 0
 101.669 172 92 183.045 92 194 c 0
 92 255.335 141.843 290 194 290 c 0
 254.424 290 314 251.7 314 197.692 c 0
 314 157.519 296.341 132.54 268.884 108.024 c 0
 237.353 78.624 215.28 62.6289 186.68 40 c 1
 286 40 l 2
 299.39 40 307.396 30.7051 307.876 21.8164 c 0
 308.672 7.09375 293.635 3 285 3 c 2
 98 3 l 2
 66.4668 3 87.1973 30.2969 88.0752 30.9932 c 2
 230.485 147.904 l 2
 251.699 165.534 258 180.82 258 207.962 c 0
 258 238.615 225.887 258 193 258 c 0
EndSplineSet
Ligature2: "'frac' +ZZwwgTBuUgZlcAAA in +MOkwxjDzZYdbVwAA lookup 1-1" one fraction two
Ligature2: "'frac' +ZZwwgTBuUgZlcAAA in +MOkwxjDzZYdbVwAA lookup 1-1" one slash two
EndChar

StartChar: threequarters
Encoding: 176 190 176
Width: 393
Flags: W
HStem: 16 37<284.935 357.482> 16 27<114.262 226.376> 305 68<68.9033 162.291 227.037 370.903> 305 4.49023<256.184 278.158> 545.42 30.5244<233.53 258.026> 682 35<106.958 230.876>
VStem: 226.903 58<-109 15.9999 53 200.206>
LayerCount: 2
Fore
SplineSet
219.847 682 m 2x2e
 121.903 682 l 2
 116.053 682 108.018 683.934 107.276 695.257 c 1
 106.903 696.377 l 1
 106.903 698 l 2
 106.903 709.354 115.277 717 123.903 717 c 2
 229.903 717 l 2
 250.777 717 263.252 713.375 272.196 708.13 c 0
 299.584 692.531 289.91 663.676 280.418 648.534 c 2
 237.309 581.364 l 1
 233.53 575.944 l 1
 266.903 575.944 l 2
 287.145 575.944 316.903 555.577 316.903 527.393 c 0
 316.903 498.236 298.716 477.187 286.171 459.783 c 2
 227.037 373 l 1
 343.903 373 l 2
 354.512 373 370.903 368.58 370.903 353 c 2
 370.903 325 l 2
 370.903 302.366 347.124 305 343.903 305 c 2
 95.9033 305 l 2
 83.8271 305 68.9033 309.273 68.9033 325 c 2
 68.9033 353 l 2
 68.9033 374.618 90.1924 373 95.9033 373 c 2
 162.291 373 l 1
 239.578 484.918 l 2
 242.129 488.806 256.574 517.232 257.978 530.146 c 0
 259.085 537.656 255.02 545.42 233.903 545.42 c 2
 188.903 545.42 l 2
 183.335 545.42 175.182 544.852 168.768 548.722 c 0
 156.231 556.286 163.229 569.821 166.436 574.789 c 2
 231.065 673.992 l 1
 229.773 677.631 220.762 681.887 219.847 682 c 2x2e
264.903 -109 m 2
 248.903 -109 l 2
 228.869 -109 226.903 -91.6895 226.903 -86 c 2
 226.903 15.999 l 1
 226.903 15.999 226.903 16 225.903 16 c 2
 81.9033 16 l 2x4e
 72.0557 16 68.2305 17.3838 64.8867 19.2627 c 0
 49.8984 27.6846 61.7461 44.292 62.6572 45.6592 c 2
 241.006 298.152 l 1
 241.311 298.508 l 2
 247.308 305.504 256.184 309.163 263.719 309.49 c 0
 278.158 310.118 284.903 297.176 284.903 286 c 2
 284.903 55 l 2
 284.903 54 284.921 53.3994 284.935 53 c 2
 331.903 53 l 2
 345.407 53 357.72 46.834 357.78 34.7148 c 0
 357.859 18.7041 339.944 16 329.903 16 c 2
 285.903 16 l 2x9e
 284.722 16 284.984 15.8721 284.903 15.8379 c 2
 284.903 -88 l 2
 284.903 -101.176 274.699 -109 264.903 -109 c 2
226.384 43.5068 m 0
 226.617 43.957 226.903 45.8369 226.903 47 c 2
 226.903 200.206 l 1
 114.262 43.0771 l 2
 114.79 43.0488 115.582 43 116.903 43 c 2
 222.903 43 l 2
 226.3 43 226.219 43.4297 226.384 43.5068 c 0
EndSplineSet
Ligature2: "'frac' +ZZwwgTBuUgZlcAAA in +MOkwxjDzZYdbVwAA lookup 1-1" three fraction four
Ligature2: "'frac' +ZZwwgTBuUgZlcAAA in +MOkwxjDzZYdbVwAA lookup 1-1" three slash four
EndChar

StartChar: questiondown
Encoding: 177 191 177
Width: 486
Flags: W
HStem: 1 43<175.419 309.716> 625 85<220.469 302.267>
VStem: 44.0078 81.9902<95.7395 234.66> 213.554 94.4443<632.597 702.137> 240.2 46.7178<411.703 608.099> 338.998 60.9492<126.264 160.753>
LayerCount: 2
Fore
SplineSet
216.071 395.293 m 0xec
 227.188 465.873 231.926 509.443 240.2 570.114 c 0
 242.83 589.283 244.516 606.044 261.774 608.1 c 0
 284.413 610.903 285.618 582.337 286.918 572.258 c 0
 296.17 499.28 298.125 459.201 304.953 389.944 c 1
 308.434 351.663 292.594 320.148 252.804 302.068 c 1
 171.959 269.114 125.998 240.825 125.998 167 c 0
 125.998 99.8379 169.616 44 247.371 44 c 0
 301.861 44 339.998 81.8232 339.998 126 c 0
 339.998 131.648 338.998 135.692 338.998 141 c 0
 338.998 163.276 362.464 166.381 376.261 161.453 c 1
 386.689 157.977 401.671 150.499 399.947 134.989 c 1
 391.274 40.6582 323.796 1 242.54 1 c 0
 138.748 1 38.8047 66.6064 44.0078 190.44 c 1
 48.3174 284.174 109.752 328.656 194.244 373.667 c 1
 209.656 381.111 214.519 385.656 216.071 395.293 c 0xec
263.071 710 m 0
 291.209 710 307.998 688.16 307.998 668 c 0
 307.998 642.013 286.363 625 263.071 625 c 0
 232.155 625 213.554 647.568 213.554 668 c 0xf4
 213.554 692.833 238.374 710 263.071 710 c 0
EndSplineSet
EndChar

StartChar: Aring
Encoding: 182 197 182
Width: 703
Flags: W
HStem: 0 21G<87.7593 118.663 588.63 635.513> 0 21G<87.7593 118.663 588.63 635.513> 189 65<251.712 455.258> 734 48<336.434 397.964>
VStem: 283.882 50.1151<672.315 732.274> 399.773 50.1151<672.339 731.239>
LayerCount: 2
Fore
SplineSet
354.484 496.052 m 1x3c
 352.293 493.581 349.702 488.671 347.858 484.265 c 2
 252.857 257.286 l 2
 251.682 254.473 251.721 254.05 251.712 254.017 c 2
 252.56 254 l 1
 448.844 254 l 2
 453.942 254 455.056 254.821 455.269 254.909 c 0
 455.232 255.051 455.14 255.489 454.803 256.306 c 2
 359.778 486.341 l 2
 357.182 492.626 355.542 494.728 354.484 496.052 c 1x3c
244.207 189 m 2
 232.193 189 219.137 178.511 217.4 174.165 c 2
 145.131 15.0527 l 1
 144.963 14.748 l 2
 137.216 0.65332 122.584 0 114.743 0 c 2
 98.7432 0 l 2
 76.7754 0 78.4648 21.1836 80.2568 26.4102 c 2
 80.3496 26.6807 l 1
 337.804 629.604 l 1
 302.719 642.328 283.882 671.333 283.882 702 c 0
 283.882 748.652 323.156 782 366.363 782 c 0
 415.122 782 449.888 744.257 449.888 702 c 0
 449.888 667.775 426.092 641.871 399.876 631.079 c 1
 652.06 29.7852 l 2
 654.693 23.1289 655.051 19.8994 655.058 16.999 c 0
 655.094 0.949219 638.396 0 632.63 0 c 2xbc
 588.63 1 l 2
 569.156 1 560.138 11.0195 554.031 23.9795 c 2
 487.165 178.854 l 2
 483.277 187.693 471.976 189 462.416 189 c 2
 244.207 189 l 2
366.363 734 m 0
 346.9 734 333.997 718.429 333.997 702 c 0
 333.997 682.755 349.769 670 366.363 670 c 0
 386.116 670 399.773 685.9 399.773 702 c 0
 399.773 720.92 383.172 734 366.363 734 c 0
EndSplineSet
EndChar

StartChar: AE
Encoding: 183 198 183
Width: 787
Flags: W
HStem: 0 61<431.353 756.743> 189 65<248.166 335.993> 301 61<431.365 729.723> 589 61<431.353 745.743>
VStem: 335.993 95.3598<60.9962 189 254 300.986 362.004 463.62>
LayerCount: 2
Fore
SplineSet
431.353 584.211 m 2
 431.353 374.451 l 2
 431.353 368.037 441.343 362 448.119 362 c 2
 691.743 362 l 2
 701.706 362 729.743 363.924 729.743 341 c 2
 729.743 324 l 2
 729.743 300.626 702.236 301 696.743 301 c 2
 454.407 301 l 2
 436.162 301 431.537 296.006 431.353 294.771 c 2
 431.353 65.7998 l 2
 431.353 59.623 436.066 61 454.407 61 c 2
 723.743 61 l 2
 734.414 61 756.743 57.4326 756.743 39 c 2
 756.743 21 l 2
 756.743 -5.89746 721.04 0 717.743 0 c 2
 364.287 0 l 2
 354.324 0 347.375 1.49609 342.468 6.17871 c 0
 334.763 13.1504 335.993 21.3799 335.993 25.9199 c 2
 335.993 189 l 1
 240.633 189 l 2
 228.552 189 215.604 178.841 213.727 174.165 c 2
 143.849 15.0527 l 1
 143.688 14.748 l 2
 136.268 0.65332 122.253 0 114.743 0 c 2
 98.7432 0 l 2
 76.7754 0 78.4648 21.1367 80.2568 26.3516 c 2
 80.3457 26.6104 l 1
 80.4492 26.8652 l 1
 336.605 630.99 l 2
 344.047 650.2 358.774 650 370.574 650 c 2
 707.743 650 l 2
 718.629 650 745.743 650.487 745.743 628 c 2
 745.743 611 l 2
 745.743 587.259 717.269 589 712.743 589 c 2
 454.407 589 l 2
 448.578 589 445.488 589.183 443.192 589.188 c 0
 430.208 589.212 431.353 588.396 431.353 584.211 c 2
249.017 254 m 1
 335.993 254 l 1
 335.993 463.62 l 1
 249.315 257.286 l 2
 248.135 254.473 248.175 254.05 248.166 254.017 c 2
 249.017 254 l 1
EndSplineSet
EndChar

StartChar: Ccedilla
Encoding: 184 199 184
Width: 709
Flags: W
HStem: -190.229 48.2422<324.995 385.49> -70 112<356.177 436.851> 619 53<309.332 499.098>
VStem: 60 106<208.378 449.345> 442.472 69.8453<-129.274 -74.9997>
LayerCount: 2
Fore
SplineSet
654.487 113.708 m 1
 602.275 33.0996 530.599 -3.63867 439.945 -12.0117 c 1
 478.563 -19.4941 511.275 -46.1396 512.318 -79.668 c 1
 515.839 -170.6 454.556 -187.021 382.42 -188.997 c 1
 324.995 -190.229 l 1
 324.995 -141.987 l 1
 385.49 -136.033 l 1
 420.523 -133.898 442.472 -125.166 442.472 -98 c 0
 442.472 -80.6514 420.634 -70 398.021 -70 c 0
 353.57 -70 l 1
 353.57 -10.9141 l 1
 179.646 10.4004 60 156.247 60 329.044 c 0
 60 520.233 206.038 672 394.846 672 c 0
 508.536 672 597.212 631.405 647.652 548.017 c 1
 654.238 536.163 659.195 515.829 644.3 506.52 c 0
 644.104 506.397 l 1
 627.69 497.165 l 1
 627.472 497.056 l 0
 616.178 491.408 608.189 491.885 602.448 495.051 c 0
 592.568 500.501 591.947 509.64 591.23 512.863 c 1
 582.369 553.631 504.152 619 399.08 619 c 0
 258.659 619 166 493.542 166 330.983 c 0
 166 152.974 266.911 42 398.021 42 c 0
 524.143 42 578.104 119.808 587.47 134.225 c 1
 590.809 140.3 595.039 155.229 601.117 164.269 c 0
 609.04 176.051 622.972 179.427 634.869 171.099 c 1
 644.38 163.965 647.434 160.864 655.548 153.561 c 1
 671.82 140.001 655.449 115.312 654.487 113.708 c 1
EndSplineSet
EndChar

StartChar: Eth
Encoding: 193 208 193
Width: 740
Flags: W
HStem: 0 59<210.007 435.369> 340 58<26 119 210 328> 591 59<210 434.821>
VStem: 119 91<59 340 398 591> 587 103<218.754 438.324>
LayerCount: 2
Fore
SplineSet
210 583.395 m 0
 210 398 l 1
 301 398 l 0
 309.749 398 328 396.12 328 380 c 0
 328 358 l 0
 328 336.637 304.065 340 301 340 c 0
 210 340 l 1
 210 81.21 l 0
 210 68.7705 219.54 59 224 59 c 0
 331 59 l 0
 472.864 59 587 164.271 587 330.782 c 0
 587 494.938 465.134 591 335 591 c 0
 218 591 l 0
 212.646 591 210 586.841 210 583.395 c 0
26 380 m 0
 26 402.248 50.6279 398 53 398 c 2
 119 398 l 1
 119 624.03 l 0
 119 644.186 135.976 650 146 650 c 0
 339 650 l 0
 538.391 650 690 516.777 690 328.881 c 0
 690 137.01 524.288 0 330 0 c 0
 146 0 l 0
 136.493 0 129.861 1.49609 125.179 6.17871 c 0
 117.826 13.3174 119 21.7451 119 26.3945 c 0
 119 340 l 1
 53 340 l 0
 43.0127 340 26 342.357 26 358 c 0
 26 380 l 0
EndSplineSet
EndChar

StartChar: multiply
Encoding: 198 215 198
Width: 421
Flags: W
LayerCount: 2
Fore
SplineSet
218.929 349.143 m 1
 282.858 413.071 l 2
 290.739 420.952 304.182 429.89 316 418.071 c 0
 336.271 399.531 l 1
 336.521 399.265 l 0
 350.2 384.669 333.754 371.986 331 369.468 c 0
 267.071 311 l 1
 331 252.532 l 0
 339.328 244.915 345.571 232.665 336.611 222.833 c 0
 336.321 222.514 l 1
 316 203.929 l 0
 300.328 188.256 285.86 205.927 282.858 208.929 c 0
 218.929 272.857 l 1
 155 208.929 l 0
 147.119 201.048 133.677 192.11 121.858 203.929 c 0
 101.537 222.514 l 1
 101.247 222.833 l 0
 88.7939 236.5 103.309 249.285 106.858 252.532 c 0
 170.787 311 l 1
 106.858 369.468 l 0
 99.4219 376.27 91.167 388.414 101.337 399.265 c 0
 101.587 399.531 l 1
 121.858 418.071 l 0
 137.531 433.743 151.998 416.073 155 413.071 c 0
 218.929 349.143 l 1
EndSplineSet
EndChar

StartChar: Oslash
Encoding: 199 216 199
Width: 755
Flags: W
HStem: -14 52<300.442 480.111> 624 48<309.816 476.383>
VStem: 53.1084 108.004<204.64 446.886> 622.108 102<208.496 451.951>
LayerCount: 2
Fore
SplineSet
622.108 341 m 0
 622.108 411.905 604.255 475.235 576.067 524.158 c 1
 212.786 141.722 l 1
 255.991 73.8086 319.04 38 391.512 38 c 0
 526.24 38 622.108 166.855 622.108 341 c 0
161.112 321 m 0
 161.112 261.658 172.135 208.823 189.448 167.264 c 1
 547.521 544.511 l 1
 503.531 596.887 449.463 624 391.512 624 c 0
 265.343 624 161.112 488.936 161.112 321 c 0
50.4775 0.488281 m 1
 50.0371 0.928711 l 2
 46.4199 4.44238 42.8262 7.82324 41.584 12.7461 c 0
 38.4648 25.1094 49.1914 33.3584 56.668 41.4727 c 1
 124.178 114.213 l 1
 78.5762 174.938 53.1084 249.219 53.1084 329.216 c 0
 53.1084 520.389 201.609 672 388.37 672 c 0
 469.198 672 542.415 641.549 597.902 597.897 c 1
 656.761 662.784 l 1
 675.927 683.076 686.849 682.166 697.726 672.498 c 1
 711.251 660.998 706.619 647.984 691.454 632.383 c 1
 631.662 568.121 l 1
 690.046 505.107 724.108 420.603 724.108 329.007 c 0
 724.108 137.698 576.152 -14 388.37 -14 c 0
 295.99 -14 213.406 24.46 155.265 81.3154 c 1
 91.5322 11.2998 l 1
 72.3096 -10.1836 61.3818 -7.99219 50.9688 0.106445 c 0
 50.4775 0.488281 l 1
EndSplineSet
EndChar

StartChar: Thorn
Encoding: 204 222 204
Width: 622
Flags: W
HStem: 0 21G<141.315 190.305> 0 21G<141.315 190.305> 197 52<212.185 421.211> 507 44.1816<212.18 415.453> 630 20G<139.356 192.298>
VStem: 119.068 93.1094<6.51394 197 249 507 551.218 649.3> 480.068 99<307.063 443.449>
LayerCount: 2
Fore
SplineSet
224.037 507 m 0x3e
 215.942 507 212.178 500.264 212.178 500 c 2
 212.178 263 l 0
 212.178 256.008 222.803 249 230.506 249 c 0
 345.865 249 l 0
 421.916 249 480.068 305.573 480.068 372 c 0
 480.068 458.56 410.339 507 328.615 507 c 0
 224.037 507 l 0x3e
119.068 26.373 m 0
 119.068 623.813 l 2
 119.068 642.576 132.645 650 146.068 650 c 0
 183.068 650 l 0
 201.528 650 212.178 637.709 212.178 623.583 c 0
 212.178 554.116 l 0
 212.178 550.49 212.26 551.239 212.262 551.218 c 1
 212.676 551.202 213.298 551.182 214.334 551.182 c 0
 328.615 551.182 l 0
 456.574 551.182 579.068 500.282 579.068 375.069 c 0
 579.068 261.526 490.376 197 381.443 197 c 0
 218.646 197 l 0
 216.373 197 212.178 190.418 212.178 177.966 c 0
 212.178 25.6953 l 0
 212.178 7.28418 197.542 0 183.068 0 c 0
 146.068 0 l 0xbe
 136.562 0 129.93 1.49609 125.248 6.17871 c 0
 117.895 13.3105 119.068 21.7285 119.068 26.373 c 0
EndSplineSet
EndChar

StartChar: ae
Encoding: 210 230 210
Width: 557
Flags: W
HStem: 0 52<313.739 512.003> 108 50<157.826 214.761> 198 53<313.739 479.471> 384 52<314.299 519.834>
VStem: 59.1729 52.1221<0.859691 23.8438> 214.761 98.9783<52.6139 108 158 198.001 250.975 325.182>
LayerCount: 2
Fore
SplineSet
157.826 158 m 1
 214.761 158 l 1
 214.761 325.182 l 1
 158.297 167.06 l 0
 156.364 160.78 157.561 158.746 157.826 158 c 1
269.739 436 m 0
 488.739 436 l 2
 508.543 436 519.825 423.477 520.233 410.822 c 0
 520.77 394.202 505.174 385 489.739 385 c 0
 430.45 385 400.287 383.022 341.656 384 c 1
 326.054 384 313.739 369.952 313.739 357.958 c 0
 313.739 262.161 l 0
 313.739 249.758 315.693 251 322.739 251 c 0
 368.374 251 404.689 250 453.739 250 c 0
 471.96 250 479.799 235.357 479.984 224.959 c 0
 480.263 209.375 466.869 199 451.739 199 c 0
 402.857 199 377.967 198 331.739 198 c 0
 315.885 198 313.739 193.18 313.739 183.025 c 0
 313.739 71.6543 l 0
 313.739 52.4111 318.777 52 336.739 52 c 0
 382.33 52 428.694 51 484.739 51 c 0
 503.906 51 512.291 36.7832 512.484 25.959 c 0
 512.756 10.7988 500.128 0 485.739 0 c 0
 302.739 0 l 0
 254.259 0 214.761 24.2871 214.761 63.1523 c 0
 214.761 108 l 1
 149.739 108 l 0
 145.43 108 137.75 100.347 137.314 98.9521 c 1
 111.295 23.8438 l 1
 107.557 12.4395 99.4023 0 82.7393 0 c 0
 56.5811 0 56.251 24.0713 59.1729 33.3848 c 1
 177.181 397.695 l 1
 194.12 439.674 233.535 436 269.739 436 c 0
EndSplineSet
EndChar

StartChar: ccedilla
Encoding: 211 231 211
Width: 501
Flags: W
HStem: -156 43.0723<207.618 264.982> -54 95<236.896 315.128> 402 46<214.59 346.484>
VStem: 51 87<125.732 315.252> 316.326 60.6694<-101.778 -56.6816>
LayerCount: 2
Fore
SplineSet
411.758 125.318 m 0
 421.085 129.305 429.325 125.325 434.332 123.015 c 0
 450.071 115.145 452.578 97.3564 446.683 87.0391 c 0
 446.477 86.6777 l 1
 446.24 86.335 l 0
 426.655 57.8477 399.722 8.62793 322.775 -3.38086 c 1
 353.847 -12.2725 376.065 -34.7158 376.995 -61.6826 c 1
 379.256 -139.72 328.425 -154.021 262.742 -156 c 1
 207.618 -156 l 1
 207.618 -112.928 l 1
 264.982 -108.037 l 1
 297.323 -105.863 316.326 -99.082 316.326 -77 c 0
 316.326 -62.5469 297.525 -54 277.42 -54 c 0
 233.936 -54 l 1
 233.936 -1.3252 l 1
 123.068 19.3984 51 113.937 51 221.1 c 0
 51 348.242 148.592 448 280.853 448 c 0
 370.803 448 418.21 393.798 431.597 370.113 c 1
 441.782 353.816 429.396 338.558 419.856 333.259 c 0
 419.409 333.01 l 1
 418.939 332.809 l 0
 414.4 330.863 399.845 323.413 387.827 340.238 c 1
 371.417 363.827 332.859 402 281.997 402 c 0
 201.957 402 138 321.816 138 221.026 c 0
 138 116.169 205.267 41 281.997 41 c 0
 361.413 41 382.019 83.1699 399.434 113.162 c 1
 403.147 119.104 406.938 123.258 411.758 125.318 c 0
EndSplineSet
EndChar

StartChar: eth
Encoding: 220 240 220
Width: 539
Flags: W
HStem: -6 47<203.613 334.729> 402 46<203.594 336.844> 667.667 38.1123<112.545 178.666>
VStem: 42 87<124.619 315.223> 409 85.998<128.045 314.081>
LayerCount: 2
Fore
SplineSet
181.926 501.528 m 2
 171.153 521.051 195.805 528.656 199.097 529.995 c 2
 279.754 569.149 l 1
 237.847 615.266 191.066 648.397 138.41 667.667 c 0
 122.932 673.641 110.354 679.645 112.199 692.494 c 0
 115.093 712.634 143.74 707.326 151.092 705.779 c 0
 237.145 688.561 304.646 651.788 356.083 605.388 c 1
 434.38 646.87 l 2
 443.067 651.214 459.857 657.646 466.856 643.647 c 2
 477.762 623.819 l 1
 477.998 623.39 l 1
 478.191 622.939 l 2
 486.144 604.386 465.018 597.015 461.758 595.203 c 2
 396.068 560.63 l 1
 470.68 462.106 496.935 333.956 494.998 222.751 c 0
 492.89 106.664 403.987 -6 267.943 -6 c 0
 135.701 -6 42 98.8154 42 221 c 0
 42 348.198 139.592 448 267.943 448 c 0
 305.782 448 339.325 439.32 367.005 427.425 c 1
 352.189 462.756 335.26 493.81 317.034 520.785 c 1
 228.868 478.115 l 2
 218.293 473.324 202.386 468.423 193.549 483.299 c 2
 182.077 501.254 l 1
 181.926 501.528 l 2
269.047 41 m 0
 346.315 41 409 120.282 409 221.026 c 0
 409 298.05 363.595 402 269.047 402 c 0
 191.856 402 129 321.816 129 221.026 c 0
 129 116.169 195.048 41 269.047 41 c 0
EndSplineSet
EndChar

StartChar: divide
Encoding: 225 247 225
Width: 384
Flags: W
HStem: 123 91<146.384 223.616> 250 53<33 332> 320.021 90.959<152.596 231.094>
VStem: 139.752 90.4961<129.419 207.581 330.998 399.913>
LayerCount: 2
Fore
SplineSet
139.752 168.115 m 0
 139.567 192.119 156.944 214 185 214 c 0
 216.381 214 230.095 188.969 230.248 168.885 c 0
 230.433 144.881 213.056 123 185 123 c 0
 153.619 123 139.905 148.031 139.752 168.115 c 0
237.234 362.688 m 0
 235.889 338.804 217.258 318.24 189.36 320.021 c 0
 157.623 322.004 145.245 347.772 146.372 368.002 c 0
 147.711 392.038 166.6 412.77 194.637 410.979 c 0
 226.144 408.969 238.372 382.884 237.234 362.688 c 0
33 250 m 1
 33 303 l 1
 332 303 l 1
 332 250 l 1
 33 250 l 1
EndSplineSet
EndChar

StartChar: oslash
Encoding: 226 248 226
Width: 539
Flags: W
HStem: -6 47<203.62 332.097> 402 46<205.106 334.244>
VStem: 42.0439 87<122.898 310.328> 409.044 86<132.028 320.749>
LayerCount: 2
Fore
SplineSet
409.044 231 m 0
 409.044 265.457 402.709 296.292 393.695 321.407 c 1
 169.418 95.0166 l 1
 196.798 59.0566 232.444 41 269 41 c 0
 346.128 41 409.044 124.675 409.044 231 c 0
129.044 211 m 0
 129.044 176.649 136.013 145.982 145.347 120.542 c 1
 369.586 346.888 l 1
 341.179 383.117 305.424 402 269 402 c 0
 191.949 402 129.044 317.374 129.044 211 c 0
50.4131 0.488281 m 1
 49.9727 0.928711 l 2
 46.0283 4.7041 42.1084 8.6875 41.251 14.1484 c 0
 39.4033 25.9307 49.5059 33.7051 56.6699 40.9658 c 1
 91.0645 78.0029 l 1
 59.4297 118.755 42.0439 168.004 42.0439 221.148 c 0
 42.0439 348.264 139.636 448 267.898 448 c 0
 327.473 448 379.189 427.108 414.534 395.289 c 1
 448.621 432.701 l 1
 468.088 454.458 480.239 451.925 489.879 442.308 c 1
 504.177 430.277 497.817 417.593 483.408 402.988 c 1
 447.031 364.019 l 1
 478.599 323.213 495.044 273.902 495.044 220.879 c 0
 495.044 94.6973 397.452 -6 267.898 -6 c 0
 210.333 -6 159.188 14.6865 123.573 45.874 c 1
 91.4346 11.2637 l 1
 72.2734 -10.1523 61.3154 -7.99121 50.9043 0.106445 c 0
 50.4131 0.488281 l 1
EndSplineSet
EndChar

StartChar: thorn
Encoding: 231 254 231
Width: 510
Flags: W
HStem: 7 52<136.043 278.615> 383 52<136.002 279.92> 692 20G<70.1162 117.665>
VStem: 50 86<-175.531 7 59 383 435 711.513> 365 91<144.337 297.377>
LayerCount: 2
Fore
SplineSet
148 59 m 0
 201.836 59 l 2
 296.684 59 365 141.92 365 220.059 c 0
 365 302.065 292.65 383 201.836 383 c 0
 148 383 l 0
 137.072 383 136 379.681 136 373.581 c 0
 136 67.8398 l 1
 136.905 59.6611 138.954 59 148 59 c 0
456 220.045 m 0
 456 95.3584 337.396 7 196.151 7 c 2
 145 7 l 0
 137.334 7 136 2.95312 136 -1 c 0
 136 -149 l 0
 136 -170.53 119.602 -176 109 -176 c 0
 77 -176 l 0
 57.6543 -176 50 -162.425 50 -149 c 0
 50 684 l 0
 50 703.977 63.2324 712 77 712 c 0
 109 712 l 0
 126.33 712 136 699.009 136 684 c 0
 136 443 l 0
 136 437.479 139.096 435 145 435 c 0
 196.151 435 l 0
 341.484 435 456 346.708 456 220.045 c 0
EndSplineSet
EndChar

StartChar: Euro
Encoding: 233 8364 233
Width: 806
Flags: W
HStem: -14 56<365.057 560.659> 261 47<49.0851 117.397 232.915 779.915> 363 47<41.0851 117.615 235.785 787.915> 620 52<367.707 556.835>
VStem: 118 109.628<308.001 362.999>
LayerCount: 2
Fore
SplineSet
713.487 113.708 m 1
 652.847 21.0088 565.527 -14 453.54 -14 c 0
 294.363 -14 161.729 91.9131 125.238 249.258 c 0
 123.024 258.87 122.09 260.202 121.783 260.735 c 1
 120.397 260.995 118.103 261 117 261 c 0
 84 261 l 0
 55.1016 261 49 271.59 49 285 c 0
 49 303.318 61.9688 308 84 308 c 0
 112 308 l 0
 117.135 308 117.15 308.559 117.409 308.659 c 1
 117.879 310.11 118 313.112 118 315 c 0
 118 327.363 117.084 347.379 118.041 357.905 c 0
 118.369 361.512 116.172 363 111 363 c 0
 76 363 l 0
 47.1016 363 41 373.59 41 387 c 0
 41 405.318 53.9688 410 76 410 c 0
 117 410 l 0
 126.726 410 128.563 413.982 129.26 417 c 1
 167.97 569.092 299.041 672 453.54 672 c 0
 565.372 672 655.728 631.405 706.652 548.017 c 1
 713.238 536.163 718.195 515.829 703.3 506.52 c 0
 703.104 506.397 l 1
 686.69 497.165 l 1
 686.472 497.056 l 0
 675.178 491.408 667.156 491.885 661.179 495.051 c 0
 650.894 500.501 650.247 509.64 649.501 512.863 c 1
 640.258 553.71 560.984 620 457.704 620 c 0
 344.835 620 262.192 536.136 235.836 411.38 c 1
 235.767 410.811 235.814 411.271 235.738 410.511 c 1
 238.951 409.934 241.676 410 243.244 410 c 0
 753 410 l 0
 781.073 410 788 400.962 788 387 c 0
 788 369.102 775.829 363 753 363 c 0
 236.998 363 l 0
 227.928 363 228.452 361.766 227.628 353.629 c 1
 227.628 310.377 l 1
 227.548 309.76 l 0
 227.469 309.148 227.432 308.78 227.41 308.535 c 1
 230.622 307.93 233.347 308 234.916 308 c 0
 745 308 l 0
 773.073 308 780 298.962 780 285 c 0
 780 267.102 767.829 261 745 261 c 0
 240.121 261 l 0
 231.758 261 233.155 261.107 232.835 253.282 c 1
 261.051 116.859 349.288 42 456.663 42 c 0
 580.724 42 635.835 119.808 645.586 134.225 c 1
 649.062 140.3 653.466 155.229 659.793 164.269 c 0
 668.04 176.051 681.972 179.427 693.869 171.099 c 1
 703.38 163.965 706.434 160.864 714.548 153.561 c 1
 730.82 140.001 714.449 115.312 713.487 113.708 c 1
EndSplineSet
EndChar

StartChar: quotesinglbase
Encoding: 234 8218 234
Width: 226
Flags: W
HStem: -116.321 187.321
VStem: 118.042 73.7031<17.6738 69.0305>
LayerCount: 2
Fore
SplineSet
118.042 49.8867 m 2
 122.859 68.9023 152.514 75.3164 170.012 71 c 0
 193.365 63.9102 201.412 39.377 191.745 21.7676 c 1
 161.889 -30.75 147.629 -54.1641 111.268 -108.853 c 1
 106.896 -112.961 103.727 -116.282 95.8252 -116.321 c 0
 88.873 -116.356 81.9443 -112.946 85.0361 -102.001 c 1
 118.042 49.8867 l 2
EndSplineSet
EndChar

StartChar: florin
Encoding: 235 402 235
Width: 409
Flags: W
HStem: -212.997 29.9307<-204.429 -141.791> 380.19 31.2344<151.782 186.148 274.916 314.983> 604.013 32.9727<389.341 420.342>
VStem: -249.82 71.4805<-139.747 -86.4282> 395.743 68.7969<568.846 592.317>
LayerCount: 2
Fore
SplineSet
151.782 411.425 m 1
 202.908 411.425 l 1
 261.869 514.25 333.015 611.01 397.942 632.675 c 0
 408.266 636.239 417.279 637.365 425.525 636.985 c 1
 470.243 634.1 472.996 577.334 464.54 550.084 c 1
 458.151 528.789 448.004 506.269 422.9 509.058 c 1
 392.145 512.295 387.54 546.318 395.576 568.417 c 0
 395.654 568.634 l 1
 395.743 568.846 l 0
 401.337 582.271 411.56 591.033 420.282 594.779 c 1
 420.121 600.718 420.488 601.986 420.473 602.907 c 1
 417.691 603.812 414.666 603.931 412.457 604.013 c 1
 410.376 604.151 407.267 603.134 403.863 601.051 c 0
 378.014 585.232 337.095 515.328 309.053 468.098 c 1
 295.473 445.343 284.39 425.559 274.916 407.771 c 1
 345.593 407.771 l 1
 314.983 376.685 l 1
 258.515 376.685 l 1
 199.788 262.57 166.499 173.895 88.8463 46.4297 c 1
 15.0639 -73.5352 -38.2725 -209.943 -186.778 -212.997 c 1
 -192.839 -213.165 -196.439 -212.455 -199.004 -211.929 c 0
 -238.557 -203.81 -257.486 -157.478 -249.82 -122.979 c 1
 -245.125 -98.3252 -231.859 -80.7158 -208.251 -82.0273 c 1
 -177.264 -85.126 -172.437 -113.918 -178.282 -139.249 c 0
 -178.34 -139.499 l 1
 -178.41 -139.747 l 0
 -183.141 -156.301 -194.814 -164.336 -205.693 -168.025 c 1
 -204.617 -170.307 -204.111 -170.845 -203.705 -171.453 c 0
 -203.459 -171.822 l 1
 -203.247 -172.212 l 0
 -196.701 -184.212 -198.505 -184.437 -186.181 -183.066 c 1
 -84.4043 -171.23 -30.802 -45.9463 29.6535 73.0029 c 0
 161.167 332.703 l 1
 186.148 380.19 l 1
 126.738 380.19 l 1
 151.782 411.425 l 1
EndSplineSet
EndChar

StartChar: dagger
Encoding: 238 8224 238
Width: 376
Flags: W
HStem: 425.406 83.1484<17.0334 134.666 258.074 352.75>
VStem: 130.968 105.735<495.031 617.391> 162.897 39.4932<5.0263 225.654>
LayerCount: 2
Fore
SplineSet
135.535 437.94 m 1xa0
 79.9395 427.559 l 2
 71.8486 425.991 64.7637 425.41 59.1201 425.406 c 0
 34.7568 425.39 12 437.533 12 468.062 c 0
 12 513.08 57.252 512.961 79.9971 508.555 c 1
 117.606 500.994 135.889 496.725 150.697 494.014 c 1
 133.484 559.129 l 1
 131.558 567.092 130.972 573.851 130.968 579.353 c 0
 130.951 602.954 146.188 625 185.118 625 c 0
 193.351 625 197.094 624.271 199.969 623.755 c 0
 242.873 616.052 241.648 578.646 236.703 558.912 c 1xc0
 227.203 523.019 222.146 505.631 218.783 494.149 c 1
 288.998 507.554 l 1
 297.232 509.148 304.197 509.714 309.88 509.718 c 0
 334.243 509.733 357 497.593 357 467.064 c 0
 357 460.608 356.271 457.673 355.755 455.418 c 0
 347.802 420.69 309.188 421.876 288.816 426.611 c 1
 232.422 438.247 l 1
 239.316 420.401 237.54 405.262 236.971 397.622 c 1
 224.475 249.669 214.566 150.853 202.39 29.584 c 1
 201.792 19.2627 199.736 6.33496 184.484 4.95312 c 0
 162.844 2.99121 163.226 24.2852 162.897 29.7207 c 0
 156.647 131.664 147.886 254.293 133.27 397.58 c 1
 132.469 406.379 129.672 424.72 135.535 437.94 c 1xa0
EndSplineSet
EndChar

StartChar: daggerdbl
Encoding: 239 8225 239
Width: 376
Flags: W
HStem: 64.7217 83.6406<17.159 108.075 268.127 351.944> 424.871 83.3721<17.0334 134.361 258.206 352.579>
VStem: 133.484 105.829<-45.2581 30.0546 134.933 273.89 494.683 617.374>
LayerCount: 2
Fore
SplineSet
135.225 437.392 m 1
 79.9395 427.029 l 2
 71.8486 425.458 64.7637 424.875 59.1201 424.871 c 0
 34.7568 424.854 12 437.03 12 467.642 c 0
 12 512.78 57.252 512.661 79.9971 508.243 c 1
 117.606 500.662 135.889 496.381 150.697 493.663 c 1
 133.484 558.953 l 1
 131.558 566.937 130.972 573.714 130.968 579.229 c 0
 130.951 602.895 146.188 625 185.118 625 c 0
 193.351 625 197.094 624.271 199.969 623.755 c 0
 242.873 616.03 241.648 578.524 236.703 558.737 c 1
 227.203 522.748 222.146 505.313 218.783 493.801 c 1
 288.998 507.241 l 1
 297.232 508.84 304.197 509.407 309.88 509.411 c 0
 334.243 509.427 357 497.253 357 466.644 c 0
 357 460.17 356.271 457.227 355.755 454.966 c 0
 347.802 420.145 309.188 421.333 288.816 426.082 c 1
 232.779 437.686 l 1
 239.72 420.262 238.084 404.36 236.908 396.485 c 1
 231.787 358.233 222.883 319.783 214.946 285.87 c 1
 217.828 271.765 232.755 198.195 236.813 176.002 c 1
 239.438 163.309 238.311 146.842 233.146 134.345 c 1
 288.816 145.883 l 1
 296.543 147.684 303.644 148.317 308.979 148.362 c 0
 333.867 148.571 357 135.642 357 105.321 c 0
 357 59.2021 311.522 60.3477 289.004 64.7217 c 1
 218.783 78.1631 l 1
 223.051 63.5537 229.008 42.3809 236.703 13.2266 c 1
 238.614 5.72168 239.267 -1.1748 239.312 -6.35645 c 0
 239.528 -30.5312 223.68 -53 185.118 -53 c 0
 127.518 -53 128.697 -8.8252 133.484 13.0469 c 1
 150.697 78.3369 l 1
 131.979 74.9004 110.521 69.9111 79.9971 63.7568 c 1
 72.1924 62.2412 65.7949 61.7588 60.6553 61.7178 c 0
 35.9004 61.5186 12 73.4619 12 104.358 c 0
 12 150.483 57.5273 149.324 79.9365 144.971 c 1
 135.225 134.608 l 1
 127.066 153.999 132.011 168.243 133.379 175.773 c 1
 156.538 286 l 1
 133.379 396.227 l 1
 131.644 406.238 129.04 423.075 135.225 437.392 c 1
EndSplineSet
EndChar

StartChar: perthousand
Encoding: 241 8240 241
Width: 1094
Flags: W
HStem: -10 35<476.466 562.311 812.618 895.256> 303 35<149.21 235.202> 323 35<477.034 565.552 813.159 898.463> 636 35<149.968 238.32>
VStem: 30 80<395.471 577.74> 275.071 84.0816<397.36 574.943> 351.796 85.1326<83.8803 261.377> 601 81<82.4238 263.422> 694 81<82.4561 264.765> 933 81<82.4238 263.422>
LayerCount: 2
Fore
SplineSet
854 -10 m 0xb9c0
 762.317 -10 694 75.916 694 173 c 0
 694 274.379 766.001 358 854 358 c 0
 945.83 358 1014 269.957 1014 173 c 0
 1014 71.5234 941.836 -10 854 -10 c 0xb9c0
854 323 m 0
 800.976 323 775 260.128 775 174 c 0
 775 83.2852 801.311 25 854 25 c 0
 909.017 25 933 87.6777 933 174 c 0
 933 265.075 911.719 323 854 323 c 0
EndSplineSet
Refer: 118 37 S 1 0 0 1 0 0 2
EndChar

StartChar: guilsinglleft
Encoding: 243 8249 243
Width: 267
Flags: W
LayerCount: 2
Fore
SplineSet
185.208 443.932 m 0
 191.303 449.876 194.102 451.469 197.146 452.871 c 0
 213.938 459.755 222.186 445.382 222.638 444.807 c 1
 230.341 432.149 229.643 419.666 217.962 403.747 c 1
 112.906 275.845 l 1
 111.568 274.13 l 1
 113.168 271.824 l 1
 217.95 145.296 l 1
 233.376 124.056 227.477 111.756 222.767 103 c 0
 222.642 103.219 l 1
 222.505 103 l 0
 220.057 100.175 217.716 97.7812 214.849 96.1924 c 0
 201.953 87.8955 190.33 99.2617 185.102 105.101 c 1
 64.0566 251.955 l 1
 51.4434 269.298 57.582 285.855 62.751 292.665 c 1
 67.415 300.231 78.9785 313.729 185.208 443.932 c 0
EndSplineSet
EndChar

StartChar: OE
Encoding: 244 338 244
Width: 813
Flags: W
HStem: 0 61<458.66 783> 301 61<458.671 755.98> 589 61<458.66 772>
VStem: 53 103<205.494 443.462> 362.745 95.9149<60.9962 300.986 362 589.002>
LayerCount: 2
Fore
SplineSet
362.745 40.2695 m 1
 362.745 613.677 l 1
 247.795 606.372 156 481.019 156 327 c 0
 156 156.191 246.623 46.6387 362.745 40.2695 c 1
458.66 584.211 m 0
 458.66 374.451 l 2
 458.66 368.037 468.598 362 475.34 362 c 0
 718 362 l 0
 727.963 362 756 363.924 756 341 c 0
 756 324 l 0
 756 300.626 728.493 301 723 301 c 0
 481.596 301 l 0
 463.444 301 458.843 296.006 458.66 294.771 c 1
 458.66 65.7998 l 0
 458.66 59.623 463.349 61 481.596 61 c 0
 750 61 l 0
 760.671 61 783 57.4326 783 39 c 0
 783 21 l 0
 783 -5.89746 747.297 0 744 0 c 0
 373.17 0 l 0
 186.509 0 53 146.764 53 325 c 0
 53 506.346 193.629 650 373.17 650 c 0
 734 650 l 0
 744.885 650 772 650.487 772 628 c 0
 772 611 l 0
 772 587.259 743.525 589 739 589 c 0
 481.596 589 l 0
 475.797 589 472.723 589.183 470.437 589.188 c 0
 457.52 589.212 458.66 588.396 458.66 584.211 c 0
EndSplineSet
EndChar

StartChar: quoteleft
Encoding: 245 8216 245
Width: 234
Flags: W
HStem: 479.875 187.125
VStem: 84.4297 73.6406<613.674 665.358>
LayerCount: 2
Fore
SplineSet
158.07 645.887 m 2
 191.076 493.999 l 1
 192.173 489.788 194.872 483.843 186.747 479.875 c 0
 178.698 475.744 171.634 479.679 164.844 487.147 c 1
 126.663 544.55 112.815 567.692 84.4297 617.606 c 1
 72.0107 638.835 87.8789 661.463 106.101 667 c 0
 128.954 672.638 154.202 661.152 158.07 645.887 c 2
EndSplineSet
EndChar

StartChar: quoteright
Encoding: 246 8217 246
Width: 234
Flags: W
HStem: 479.679 187.321
VStem: 118.042 73.6406<613.674 665.004>
LayerCount: 2
Fore
SplineSet
118.042 645.887 m 2
 122.859 664.901 152.514 671.316 170.012 667 c 0
 193.501 659.861 201.495 634.381 191.683 617.606 c 1
 161.973 565.366 147.582 541.744 111.268 487.147 c 1
 106.896 483.039 103.727 479.718 95.8252 479.679 c 0
 88.873 479.644 81.9443 483.054 85.0361 493.999 c 1
 118.042 645.887 l 2
EndSplineSet
EndChar

StartChar: bullet
Encoding: 249 8226 249
Width: 357
Flags: W
HStem: 182 194<166.223 287.777>
VStem: 130 194<218.223 339.777>
LayerCount: 2
Fore
SplineSet
227 182 m 0
 171.323 182 130 227.516 130 279 c 0
 130 334.677 175.516 376 227 376 c 0
 282.677 376 324 330.484 324 279 c 0
 324 223.323 278.484 182 227 182 c 0
EndSplineSet
EndChar

StartChar: endash
Encoding: 250 8211 250
Width: 516
Flags: W
HStem: 267 68<68 458>
LayerCount: 2
Fore
SplineSet
68 315 m 0
 68 337.101 90.4785 335 95 335 c 2
 431 335 l 0
 441.609 335 458 330.58 458 315 c 0
 458 287 l 0
 458 264.899 435.521 267 431 267 c 0
 95 267 l 0
 84.0342 267 68 270.855 68 287 c 0
 68 315 l 0
EndSplineSet
EndChar

StartChar: emdash
Encoding: 251 8212 251
Width: 840
Flags: W
HStem: 267 68<68 797>
LayerCount: 2
Fore
SplineSet
68 315 m 0
 68 337.101 90.4785 335 95 335 c 2
 770 335 l 0
 780.609 335 797 330.58 797 315 c 0
 797 287 l 0
 797 264.899 774.521 267 770 267 c 0
 95 267 l 0
 84.0342 267 68 270.855 68 287 c 0
 68 315 l 0
EndSplineSet
EndChar

StartChar: tilde
Encoding: 252 732 252
Width: 349
Flags: W
HStem: 439.099 32.8848<93.0543 273.175>
LayerCount: 2
Fore
SplineSet
99.3594 459.874 m 0
 120.146 473.35 141.547 473.775 156.058 471.983 c 0
 190.992 468.784 206.054 462.479 232.896 459.908 c 1
 251.796 459.207 262.379 460.206 273.705 464 c 2
 273.883 463.843 l 1
 274.068 464 l 2
 282.751 472.458 293.38 473.56 300.041 466.415 c 0
 312.008 457.552 302.672 444.792 294.713 438.043 c 0
 272.676 426.429 250.38 425.405 229.025 427.013 c 0
 193.964 430.118 176.821 436.616 150.282 439.073 c 0
 141.579 439.071 122.371 439.088 115.496 439.099 c 0
 106.57 440.858 97.2422 440.332 92.5039 438.56 c 0
 81.4912 445.998 91.4502 456.033 99.3594 459.874 c 0
EndSplineSet
EndChar

StartChar: trademark
Encoding: 253 8482 253
Width: 697
Flags: W
HStem: 680 37<58 120.924 169 234.719>
VStem: 121 48<457 680> 338.563 39.6056<457 636.335> 553 49<457 643.129>
LayerCount: 2
Fore
SplineSet
137 457 m 0
 123.406 457 121 468.949 121 472.601 c 0
 121 517.857 120.109 634.224 120.924 680 c 1
 77 680 l 0
 69.7236 680 58 684.026 58 695 c 0
 58 702 l 0
 58 717.986 77.1475 717 79 717 c 0
 212.254 717 l 0
 216.794 717 234.732 716.079 234.732 702 c 0
 234.732 695 l 0
 234.732 686 226.598 680 214.394 680 c 0
 172 680 l 0
 170.8 680 169.6 680.063 169 680.092 c 1
 169 472.601 l 0
 169 461.056 157.938 457 152 457 c 0
 137 457 l 0
553 474 m 0
 553 643.129 l 1
 482.335 463.413 l 1
 479.756 456.929 475.979 453.786 472.49 452.262 c 0
 457.159 445.562 451.148 462.046 450.596 463.421 c 1
 378.169 636.335 l 1
 378.169 474 l 0
 378.169 463.109 369.862 457 363.183 457 c 0
 353.549 457 l 0
 338.039 457 338.563 471.742 338.563 472.786 c 0
 338.563 701.214 l 0
 338.563 711.326 346.871 717 353.549 717 c 0
 376.028 717 l 0
 390.136 717 396.595 706.892 398.812 701.714 c 0
 474.69 524.498 l 1
 545.709 702.698 l 1
 550.229 713.997 559.896 717 566 717 c 0
 585 717 l 0
 597.58 717 602 706.729 602 701.214 c 0
 602 472.786 l 0
 602 459.752 589.557 457 585 457 c 0
 570 457 l 0
 557.583 457 553 467.891 553 474 c 0
EndSplineSet
EndChar

StartChar: guilsinglright
Encoding: 255 8250 255
Width: 267
Flags: W
LayerCount: 2
Fore
SplineSet
130.265 443.932 m 0
 242.521 306.342 246.871 302.156 252.722 292.665 c 1
 261.864 280.621 260.27 264.128 251.416 251.955 c 1
 130.371 105.101 l 1
 125.106 99.4775 122.227 97.7256 119.647 96.375 c 0
 103.369 89.1055 93.9404 101.937 92.9678 103 c 0
 92.8311 103.219 l 1
 92.7061 103 l 0
 86.0166 115.436 85.2139 128.348 97.5225 145.296 c 1
 202.306 271.824 l 1
 203.904 274.13 l 1
 202.565 275.846 l 1
 97.5117 403.747 l 1
 82.0947 424.756 88.1309 437.076 92.835 444.807 c 1
 95.6631 448.711 97.2744 450.796 100.34 452.743 c 0
 113.161 461.917 125.071 449.451 130.265 443.932 c 0
EndSplineSet
EndChar

StartChar: oe
Encoding: 256 339 256
Width: 586
Flags: W
HStem: 0 49.5<343 541.474> 198 53<343 508.733> 386.667 49.333<343.56 549.292>
VStem: 42 85<123.763 314.562> 252.818 90.1818<49.5018 198.001 250.975 385.863>
LayerCount: 2
Fore
SplineSet
252.818 37.0762 m 1
 252.818 398.924 l 1
 178.103 388.535 127 311.637 127 218 c 0
 127 119.502 182.659 46.832 252.818 37.0762 c 1
270 436 m 0
 518 436 l 2
 537.804 436 549.087 424.118 549.495 412.113 c 0
 550.03 396.346 534.436 387.615 519 387.615 c 0
 459.711 387.615 429.549 385.739 370.918 386.667 c 1
 355.314 386.667 343 372.338 343 360.103 c 0
 343 262.385 l 0
 343 249.732 344.954 251 352 251 c 0
 397.635 251 433.951 250 483 250 c 0
 501.221 250 509.061 235.357 509.246 224.959 c 0
 509.524 209.375 496.131 199 481 199 c 0
 432.119 199 407.228 198 361 198 c 0
 345.146 198 343 193.097 343 182.77 c 0
 343 69.4902 l 0
 343 49.918 348.038 49.5 366 49.5 c 0
 411.592 49.5 457.955 48.5479 514 48.5479 c 0
 533.168 48.5479 541.553 35.0146 541.746 24.7109 c 0
 542.018 10.2793 529.389 0 515 0 c 0
 275 0 l 0
 131.968 0 42 98.7559 42 218 c 0
 42 345.18 139.854 436 270 436 c 0
EndSplineSet
EndChar

StartChar: breve
Encoding: 260 728 260
Width: 327
Flags: W
HStem: 444 48<151.398 247.914>
VStem: 119.303 47.9961<493.215 505>
LayerCount: 2
Fore
SplineSet
119.303 497.248 m 0
 119 505 l 1
 167.299 505 l 1
 167.299 495 l 0
 167.299 493.487 181.373 492 199.299 492 c 0
 220.017 492 230.754 494.033 231.313 495.555 c 0
 231.839 505 l 1
 279.299 505 l 1
 279.299 495 l 0
 279.299 464.203 239.354 444 199.299 444 c 0
 154.499 444 120.432 468.34 119.303 497.248 c 0
EndSplineSet
EndChar

StartChar: ogonek
Encoding: 261 731 261
Width: 1020
Flags: W
HStem: -169.998 169.998<134.647 210>
VStem: 75 232.205
LayerCount: 2
Fore
SplineSet
128.309 -1.16895 m 0
 130.509 0 l 1
 210 0 l 1
 176.644 -17.7734 l 0
 156 -30 131.468 -50.8125 134.927 -79.4336 c 1
 137.935 -98.9473 163.399 -107.752 191.622 -111.961 c 1
 226.731 -117.055 248.662 -106.761 266.9 -84.2256 c 0
 274.604 -74.708 l 1
 307.205 -111.169 l 1
 303.517 -116.531 l 0
 276.951 -155.155 241.009 -170.917 194.8 -169.998 c 1
 134.647 -169.021 75 -135.094 75 -80.5918 c 0
 75 -43.6689 94.9688 -17.0049 128.309 -1.16895 c 0
EndSplineSet
EndChar

StartChar: caron
Encoding: 263 711 263
Width: 326
Flags: W
LayerCount: 2
Fore
SplineSet
220.949 264.074 m 2
 198.621 246.446 185.865 248.984 166.751 264.074 c 1
 114.85 295 l 0
 91.8291 309.844 93.4424 319.86 100.529 329 c 0
 100.732 328.712 l 1
 100.956 329 l 0
 112.349 356.219 125.641 350.403 143.888 324.972 c 1
 193.85 294.766 l 1
 243.812 324.972 l 1
 266.739 359.188 278.353 351.259 285.969 328.709 c 1
 297.516 316.156 290.418 306.146 272.85 295 c 0
 220.949 264.074 l 2
EndSplineSet
EndChar

StartChar: dotaccent
Encoding: 264 729 264
Width: 209
Flags: W
HStem: 409 88<140.342 215.658>
VStem: 134 88<415.342 490.658>
LayerCount: 2
Fore
SplineSet
178 409 m 0
 151.025 409 134 431.061 134 453 c 0
 134 479.975 156.061 497 178 497 c 0
 204.975 497 222 474.939 222 453 c 0
 222 426.025 199.939 409 178 409 c 0
EndSplineSet
EndChar

StartChar: Lslash
Encoding: 266 321 266
Width: 526
Flags: W
HStem: 1 61<213.648 479.187> 631 20G<143.792 195.331>
VStem: 119.187 94.4615<61.9859 302.787 406.987 644.607>
LayerCount: 2
Fore
SplineSet
29.0732 305.422 m 1
 20.7402 324.279 43.0332 330.527 46.0342 331.821 c 2
 119.187 365.05 l 1
 119.187 624.627 l 0
 119.187 633.848 120.683 640.279 125.365 644.821 c 0
 132.718 652.174 141.398 651 146.187 651 c 0
 183.187 651 l 0
 207.476 651 213.648 635.141 213.648 624.887 c 0
 213.648 406.987 l 1
 282.072 434.36 l 1
 292.763 438.943 310.855 443.099 318.611 429.801 c 1
 327.62 412.638 l 1
 340.733 388.595 312.356 384.008 309.688 382.991 c 1
 213.648 344.992 l 1
 213.648 66.8359 l 0
 213.648 60.6133 218.722 62 238.469 62 c 0
 446.187 62 l 0
 457.357 62 479.187 59.1025 479.187 40 c 0
 479.187 23 l 0
 479.187 -3.41016 445.632 1 441.187 1 c 0
 146.187 1 l 0
 126.841 1 119.187 14.166 119.187 27.1865 c 0
 119.187 302.787 l 1
 70.0986 280.116 l 1
 69.6973 279.971 l 0
 62.0186 277.178 46.1191 271.375 39.1992 284.798 c 1
 29.0732 305.422 l 1
EndSplineSet
EndChar

StartChar: lslash
Encoding: 267 322 267
Width: 217
Flags: W
HStem: 0 52<136.087 209.988> 358.787 54.4814<192.289 227.661> 692 20G<70.2031 117.752>
VStem: 50.0869 86<53.3026 308.254 395.02 711.513>
LayerCount: 2
Fore
SplineSet
-17.627 347.135 m 0
 -17.2588 347.277 l 1
 50.0869 367.615 l 1
 50.0869 684 l 0
 50.0869 703.977 63.3193 712 77.0869 712 c 0
 109.087 712 l 0
 126.417 712 136.087 699.009 136.087 684 c 0
 136.087 395.02 l 1
 192.289 413.179 l 1
 192.661 413.269 l 0
 201.724 415.465 218.798 417.911 223.574 404.022 c 0
 230.695 383.313 l 1
 230.788 382.952 l 0
 235.874 363.234 212.972 359.684 210.197 358.787 c 1
 136.087 335.729 l 1
 136.087 72.3555 l 0
 136.087 56.8896 139.697 52 149.087 52 c 0
 189.087 52 l 0
 210.587 52 210.087 29.668 210.087 27 c 0
 210.087 20.5195 210.795 0 193.087 0 c 0
 111.087 0 l 0
 69.3594 0 50.0869 33.3789 50.0869 63.1533 c 0
 50.0869 308.254 l 1
 1.2041 292.933 l 1
 -8.57617 289.766 -24.1289 286.733 -30.1045 300.28 c 0
 -30.2949 300.714 l 1
 -37.4873 322.675 l 1
 -43.0557 341.611 -20.9766 345.833 -17.627 347.135 c 0
EndSplineSet
EndChar

StartChar: notequal
Encoding: 268 8800 268
Width: 399
Flags: W
HStem: 203 53<42.7744 108 228.003 361.774> 311 53<42.7744 195.59 314.455 361.774>
LayerCount: 2
Fore
SplineSet
146.761 256 m 1
 195.59 311 l 1
 42.7744 311 l 1
 42.7744 364 l 1
 243.638 364 l 1
 320.693 454 l 1
 387.455 454 l 1
 314.455 364 l 1
 361.774 364 l 1
 361.774 311 l 1
 275.787 311 l 1
 228.003 256 l 1
 361.774 256 l 1
 361.774 203 l 1
 179.927 203 l 1
 96.8311 107 l 1
 30 107 l 1
 108 203 l 1
 42.7744 203 l 1
 42.7744 256 l 1
 146.761 256 l 1
EndSplineSet
EndChar

StartChar: infinity
Encoding: 269 8734 269
Width: 980
Flags: W
HStem: 46 76<622.176 776.316> 46 46<166.595 328.488> 360.001 56.999<156.422 306.173> 370 47<599.579 762.885>
VStem: 24 61<172.531 299.016> 843 62<179.069 294.479>
LayerCount: 2
Fore
SplineSet
237.931 92 m 0x6c
 327.591 92 377.154 140.092 415.596 198.857 c 1
 357.072 285.788 319.105 360.883 238.06 360.001 c 0
 156.704 359.015 85 304.52 85 241 c 0
 85 170.591 155.374 92 237.931 92 c 0x6c
689.005 370 m 0x9c
 604.75 370 555.961 325.638 516.534 271.896 c 1
 573.916 191.313 607.995 122 689.005 122 c 0
 771.289 122 843 172.389 843 232.119 c 0
 843 296.278 771.557 370 689.005 370 c 0x9c
259.572 417 m 1x6c
 377.913 417 443.919 362.16 490.114 301.249 c 1
 531.645 366.305 581.783 417 667.364 417 c 1
 828.944 416.008 905 320.257 905 231.025 c 0
 905 128.773 823.127 46 667.328 46 c 0x9c
 554.426 46 488.633 102.267 441.854 163.14 c 1
 398.766 98.4102 346.431 46 259.641 46 c 1
 99.4775 45.0098 24 132.362 24 231.025 c 0
 24 323.571 102.318 416.034 259.572 417 c 1x6c
EndSplineSet
EndChar

StartChar: lessequal
Encoding: 270 8804 270
Width: 342
Flags: W
HStem: 48 48<82.876 321.716>
LayerCount: 2
Fore
SplineSet
286.796 48 m 0
 117.796 48 l 2
 88.8975 48 82.7959 58.5898 82.7959 72 c 0
 82.7959 89.8984 94.9668 96 117.796 96 c 0
 286.796 96 l 0
 315.694 96 321.796 85.4102 321.796 72 c 0
 321.796 54.1016 309.625 48 286.796 48 c 0
62.7246 300.071 m 0
 69.8574 307.203 82.6787 316.447 249.36 456.654 c 0
 262.238 467.498 271.046 470.595 279.548 468.296 c 0
 289.308 465.656 292.8 458.56 294.516 456.363 c 1
 298.616 451.714 302.772 447.02 303.452 440.351 c 0
 304.685 428.243 295.198 420.055 287.219 413.335 c 1
 128.351 280.445 l 1
 127.607 279.776 128.346 280.367 129.126 279.742 c 1
 287.219 147.664 l 1
 299.538 137.291 303.805 129.912 303.535 121.755 c 0
 303.178 110.916 296.567 106.275 294.689 103.86 c 0
 294.512 103.633 l 1
 294.321 103.415 l 0
 283.883 91.4854 268.462 87.418 248.37 104.338 c 1
 66.3623 256.345 l 1
 46.6348 273.036 54.4912 291.838 62.7246 300.071 c 0
EndSplineSet
EndChar

StartChar: greaterequal
Encoding: 271 8805 271
Width: 342
Flags: W
HStem: 48 48<60.0801 95 102.712 298.92> 92.4512 3.54883<102.712 111.037>
LayerCount: 2
Fore
SplineSet
299 72 m 0x80
 299 54.1016 286.829 48 264 48 c 2
 95 48 l 0
 66.1016 48 60 58.5898 60 72 c 0
 60 89.8984 72.1709 96 95 96 c 0
 264 96 l 0
 292.898 96 299 85.4102 299 72 c 0x80
101.823 468.272 m 0
 113.669 471.588 123.741 463.613 132.343 456.731 c 0
 306.208 310.482 309.777 309.365 319.071 300.071 c 0
 331.689 287.452 329.219 268.969 315.757 256.629 c 0
 315.587 256.473 l 1
 133.329 104.257 l 1
 119.605 93.2783 111.037 90.5361 102.712 92.4512 c 0x40
 92.9062 94.708 89.4316 101.178 87.5 103.386 c 1
 83.2432 108.175 78.415 113.623 77.915 120.858 c 0
 77.0781 132.97 86.5889 140.938 94.5732 147.661 c 1
 252.67 279.742 l 1
 253.294 280.242 237.001 294.202 94.5732 413.338 c 1
 81.9023 424.009 77.0107 431.739 77.9756 440.662 c 0
 79.0615 450.706 86.1494 455.288 87.4863 456.628 c 1
 91.2646 461.495 95.5107 466.506 101.823 468.272 c 0
EndSplineSet
EndChar

StartChar: partialdiff
Encoding: 272 8706 272
Width: 538
Flags: W
HStem: -6 47<203.612 333.229> 412 46<205.092 335.24> 669.145 36.6338<112.545 175.64>
VStem: 42 87<127.217 322.559> 409 85.998<129.475 316.282>
LayerCount: 2
Fore
SplineSet
269.045 41 m 0
 346.312 41 409 122.479 409 226.013 c 0
 409 305.17 363.591 412 269.045 412 c 0
 191.855 412 129 329.596 129 226.013 c 0
 129 118.251 195.047 41 269.045 41 c 0
151.094 705.778 m 1
 418.747 653.372 498.999 414.901 494.998 224.34 c 0
 492.889 107.441 403.987 -6 267.941 -6 c 0
 135.701 -6 42 101.124 42 226 c 0
 42 356 139.592 458 267.941 458 c 0
 305.865 458 339.133 449.401 367.168 437.354 c 1
 321.723 543.282 244.168 632.512 138.41 669.145 c 0
 122.926 674.87 110.354 680.658 112.199 693.009 c 0
 115.093 712.368 143.738 707.267 151.094 705.778 c 1
EndSplineSet
EndChar

StartChar: summation
Encoding: 273 8721 273
Width: 718
Flags: W
HStem: 0 40<62 124.133 202.857 480.35> 618 40<62 125.328 268.741 518.853>
VStem: 595.006 34.1797<451 482.003>
LayerCount: 2
Fore
SplineSet
634.11 217 m 1
 574.628 0 l 1
 62 0 l 1
 62 40 l 1
 98 40 l 0
 106.507 40 111.721 47.5996 121.929 57.4668 c 0
 131.843 67.0488 134.96 73.8906 141.396 84.5557 c 1
 285.216 305.587 l 1
 285.216 352.413 l 1
 141.397 573.443 l 1
 132.871 587.57 130.834 592.894 122.929 600.533 c 0
 109.653 613.364 105.283 618 95 618 c 0
 62 618 l 1
 62 658 l 1
 605.939 658 l 1
 629.186 451 l 1
 595.006 451 l 1
 586.25 489.779 l 1
 575.34 537.382 556.108 563.632 525.206 592.662 c 1
 499.861 615.02 506.785 618 454.404 618 c 0
 297.985 618 l 0
 282.75 618 274.204 611.704 268.47 604.817 c 1
 262.376 595.624 263.853 589.83 267.956 583 c 1
 267.769 582.907 294.46 543.341 400.72 384.275 c 0
 404.078 379.249 l 1
 199.652 74.6777 l 1
 194.164 66.1328 196.278 58.752 202.558 50.1943 c 0
 208.894 41.5625 217.883 40 230.948 40 c 0
 415.034 40 l 0
 457.878 40 476.341 54.6025 505.88 79.4922 c 1
 545.927 113.972 559.572 135.857 576.723 178.731 c 1
 592.269 217 l 1
 634.11 217 l 1
EndSplineSet
EndChar

StartChar: product
Encoding: 274 8719 274
Width: 701
Flags: W
HStem: 0 44<45 132.708 235.261 322 386 473.708 576.283 664> 617 44<45 132.623 235.186 473.623 576.15 664>
VStem: 133 102<44.2373 616.751> 474 102<44.2474 616.772>
LayerCount: 2
Fore
SplineSet
449 617 m 0
 260 617 l 2
 250.856 617 247.489 614.186 242.525 608.704 c 0
 235.705 601.172 235 597.289 235 590.91 c 0
 235 70.0898 l 0
 235 61.625 237.472 57.876 242.525 52.2959 c 0
 249.102 45.0342 252.958 44 260 44 c 0
 322 44 l 1
 322 0 l 1
 45 0 l 1
 45 44 l 1
 108 44 l 0
 115.467 44 120.503 47.8193 124.44 52.2578 c 1
 131.873 60.4658 133 64.2549 133 70.0898 c 0
 133 590.91 l 0
 133 598.49 129.901 602.712 124.438 608.744 c 1
 118.824 615.073 113.382 617 108 617 c 0
 45 617 l 1
 45 661 l 1
 664 661 l 1
 664 617 l 1
 601 617 l 0
 593.276 617 589.011 613.831 583.305 608.464 c 1
 576.257 600.419 576 597.24 576 590.91 c 0
 576 70.0898 l 0
 576 61.6387 578.735 57.752 583.305 52.5361 c 1
 592.022 44.3369 595.076 44 601 44 c 0
 664 44 l 1
 664 0 l 1
 386 0 l 1
 386 44 l 1
 449 44 l 0
 456.467 44 461.503 47.8193 465.44 52.2578 c 1
 472.873 60.4658 474 64.2549 474 70.0898 c 0
 474 590.91 l 0
 474 598.49 470.901 602.712 465.438 608.744 c 1
 459.824 615.073 454.382 617 449 617 c 0
EndSplineSet
EndChar

StartChar: pi
Encoding: 275 960 275
Width: 597
Flags: W
HStem: 400 72<106.581 196.282 242.013 357.707 401.872 515.249>
VStem: 196.282 47.8998<320.708 400> 357.707 45.8962<235.322 400>
LayerCount: 2
Fore
SplineSet
480.064 472 m 0
 503.366 472 520.61 453.748 518.02 433.022 c 1
 516.394 410.258 495.651 400 480.064 400 c 0
 403.604 400 l 1
 394.567 316.99 406.449 263.767 447.061 187.068 c 1
 472.264 137.229 517.06 116.234 537.386 67.3398 c 1
 546.599 44.3145 548.635 17.709 527.172 2.08203 c 1
 497.993 -19.5273 474.636 20.835 468.355 28.3096 c 1
 425.644 75.9219 407.925 113.646 385.844 170.292 c 0
 351.819 257.617 345.23 319.515 357.707 400 c 1
 244.182 400 l 1
 235.204 313.893 223.004 262.244 196.162 178.365 c 1
 176.73 120.209 175.94 80.3018 137.399 29.1152 c 1
 133.804 23.8232 130.259 18.9551 127.54 15.6172 c 0
 116.177 1.66797 97.1396 -12.125 77.957 2.08105 c 1
 53.7148 19.7324 60.2764 48.6797 67.7422 67.3398 c 1
 87.7646 115.503 108.706 147.71 129.753 197.811 c 1
 162.637 276.772 178.824 326.412 196.282 400 c 1
 143.064 400 l 0
 123.141 400 113.185 387.827 99.0889 369.033 c 1
 83.7207 348.176 76.7275 340.119 70.6309 320.088 c 0
 67.3096 309.177 l 1
 28 327.045 l 1
 29.1865 334.56 l 0
 32.6895 356.742 41.6787 381.448 56.7158 404.505 c 1
 80.376 439.996 112.08 472 148.069 472 c 0
 480.064 472 l 0
EndSplineSet
EndChar

StartChar: integral
Encoding: 276 8747 276
Width: 313
Flags: W
HStem: -192 48<-75.42 9.10848> 646 47.9971<240.734 322.905>
LayerCount: 2
Fore
SplineSet
272.682 693.997 m 1
 295.731 695.149 311.285 690.048 323.479 675.636 c 0
 332.279 666.159 332.401 655.659 328.967 648.51 c 0
 321.689 633.36 303.521 633.738 291.238 640.203 c 1
 280.763 646.023 278.458 646.728 270.9 646.041 c 0
 270.449 646 l 1
 269.995 646 l 0
 246.147 646 230.619 614.197 226.913 586.146 c 2
 139.638 -17.4121 l 1
 128.907 -92.5693 66.1309 -190.939 -23.9424 -192 c 1
 -45.8037 -192 -61.0322 -188.213 -74.4775 -173.647 c 1
 -82.7275 -164.023 -82.5508 -154.083 -79.6201 -147.373 c 0
 -72.8174 -131.797 -54.4072 -130.955 -41.7236 -136.963 c 0
 -41.4316 -137.102 l 1
 -41.1484 -137.259 l 0
 -30.9297 -142.936 -27.6904 -144 -20.1611 -144 c 1
 3.70898 -143.271 19.3906 -111.077 23.0762 -83.1836 c 0
 110.404 520.388 l 1
 121.137 595.562 184.163 692.943 272.682 693.997 c 1
EndSplineSet
EndChar

StartChar: Omega
Encoding: 277 8486 277
Width: 720
Flags: W
HStem: 0 72<120.64 187 496 560.595> 717.002 41.998<249.824 423.607>
VStem: 0.000976562 112.999<370.09 572.476> 187 63<72 164.794> 429 67<72 169.609> 571.998 52.1504<97.2185 126.021>
LayerCount: 2
Fore
SplineSet
85.9443 0 m 1
 42.4971 122.122 l 1
 96.21 130.021 l 1
 120.64 72 l 1
 187 72 l 1
 187 80.7451 l 0
 187 237.936 2.08496 290.441 0.000976562 461.55 c 0
 -2.09277 647.708 158.958 759 341.188 759 c 0
 523.53 759 670.046 643.539 668 461.576 c 1
 666.944 290.056 496 234.044 496 80.7451 c 0
 496 72 l 1
 560.595 72 l 1
 571.998 137.309 l 1
 624.148 124.271 l 1
 592.79 0 l 1
 429 0 l 1
 429 97.2861 l 0
 429 253.789 563.503 323.547 555.019 454.712 c 1
 546.989 588.493 477.026 714.289 339.82 717.002 c 0
 197.043 719.793 113 590.354 113 460.164 c 0
 113 326.873 250 252.917 250 97.2861 c 0
 250 0 l 1
 85.9443 0 l 1
EndSplineSet
EndChar

StartChar: radical
Encoding: 278 8730 278
Width: 919
Flags: W
HStem: 0 21G<155.197 281.861> 0 21G<155.197 281.861> 679 67<582.855 870.265>
LayerCount: 2
Fore
SplineSet
870.265 679 m 1xa0
 582.855 679 l 1
 272.727 0 l 1
 167.062 0 l 1
 25.6768 238.323 l 1
 -7.51172 204.154 l 1
 -57 266.679 l 1
 83.6598 404.181 l 1
 251.043 110.213 l 1
 544.27 733.645 l 1
 544.27 746 l 1
 870.265 746 l 1
 870.265 679 l 1xa0
EndSplineSet
EndChar

StartChar: approxequal
Encoding: 279 8776 279
Width: 621
Flags: W
HStem: 321.002 80.9912<338.486 454.286> 370.002 78.9961<169.919 294.144> 467.002 70.9912<338.486 457.843> 512.019 72.9795<167.386 298.683>
LayerCount: 2
Fore
SplineSet
98 467 m 1x10
 101.743 478.806 l 2
 122.288 543.601 175.305 584.037 247.601 584.998 c 1x10
 314.503 586.157 362.061 537.268 389.947 537.993 c 1
 430.351 539.963 452.749 551.393 480.519 577.311 c 0
 483.4 580 l 1
 509.929 580 l 1
 507.082 568.735 l 0
 493.146 513.58 454.399 465.998 392.121 467.002 c 1x20
 299.34 469.044 285.269 512.755 243.513 512.019 c 0
 192.494 511.118 166.004 497.001 134.195 469.497 c 0
 131.308 467 l 1
 98 467 l 1x10
98 321 m 1
 101.743 333.806 l 2
 122.288 404.093 175.299 447.956 247.608 448.998 c 1x40
 314.491 450.156 362.069 401.269 389.946 401.993 c 1
 430.353 403.964 452.748 415.392 480.519 441.311 c 0
 483.4 444 l 1
 509.98 444 l 1
 507.073 431.7 l 0
 493.137 372.734 454.477 319.908 392.121 321.002 c 1x80
 299.34 323.225 285.269 370.804 243.513 370.002 c 0x40
 192.331 369.018 166.019 354.604 134.307 323.824 c 0
 131.396 321 l 1
 98 321 l 1
EndSplineSet
EndChar

StartChar: Delta
Encoding: 280 8710 280
Width: 753
Flags: W
HStem: 0 65<76.1055 548.745>
LayerCount: 2
Fore
SplineSet
0 55.7344 m 1
 335.119 692.589 l 1
 667 55.7148 l 1
 667 0 l 1
 0 0 l 1
 0 55.7344 l 1
76.1055 65 m 1
 548.745 65 l 1
 308.942 517.639 l 1
 76.1055 65 l 1
EndSplineSet
EndChar

StartChar: lozenge
Encoding: 281 9674 281
Width: 546
Flags: W
LayerCount: 2
Fore
SplineSet
246.867 -8.94824 m 1
 20 325.137 l 1
 246.586 679.364 l 1
 473.448 335.006 l 1
 246.867 -8.94824 l 1
91.4238 326.142 m 1
 245.522 95.0342 l 1
 401.007 333 l 1
 245.779 570.584 l 1
 91.4238 326.142 l 1
EndSplineSet
EndChar

StartChar: fraction
Encoding: 282 8260 282
Width: 524
Flags: W
LayerCount: 2
Fore
SplineSet
57.7969 -6.94531 m 0
 52.4307 -5.83203 47.6631 -4.57324 44.9717 -2.08301 c 0
 38.5566 9.20898 46.5771 20.3857 51.4053 29.916 c 1
 387.404 662.972 l 1
 400.196 682.525 411.812 682.345 422.93 678.945 c 1
 441.635 672.945 440.106 659.347 430.322 642.084 c 1
 94.3213 9.02734 l 1
 87.0352 -2.33008 83.2158 -7.50781 74.5371 -9.30859 c 0
 65.3223 -11.5146 60.3096 -7.76758 57.7969 -6.94531 c 0
EndSplineSet
EndChar

StartChar: fl
Encoding: 284 64258 284
Width: 429
Flags: W
HStem: 0 52<348 421.901> 382 53<144.988 255.476> 619 47<162.336 254.863> 692 20G<277.744 329.558>
VStem: 57 89.9947<1.09065 382 435 601.424> 255.476 92.5241<52.1321 382 435 613.791 655.661 711.09>
LayerCount: 2
Fore
SplineSet
154.743 435 m 0
 255.476 435 l 1
 255.476 604.634 l 1
 240.822 612.613 220.069 619 206.77 619 c 0
 173.128 619 146.995 591.656 146.995 547.902 c 1
 144.781 445.902 l 1
 144.781 433.293 146.159 435 154.743 435 c 0
255.476 655.661 m 1
 255.476 684 l 2
 255.476 703.977 270.124 712 285.364 712 c 0
 320.786 712 l 0
 338.33 712 348 699.009 348 684 c 0
 348 72.3555 l 0
 348 56.8896 351.61 52 361 52 c 0
 401 52 l 0
 422.5 52 422 29.668 422 27 c 0
 422 20.5195 422.708 0 405 0 c 0
 323 0 l 0
 276.81 0 255.476 32.6455 255.476 61.7666 c 0
 255.476 382 l 1
 164.706 382 l 0
 146.745 382 144.781 376.762 144.781 365.873 c 1
 146.995 25.6836 l 1
 146.995 6.02344 128.96 0 116 0 c 0
 84 0 l 0
 64.6543 0 57 13.0508 57 25.958 c 0
 57 498 l 0
 57 651.972 145.721 666 203.449 666 c 0
 224.77 666 244.213 660.169 255.476 655.661 c 1
EndSplineSet
Ligature2: "'liga' +ahluljBuVAhbVwAA in +MOkwxjDzZYdbVwAA lookup 1-1" f l
EndChar

StartChar: dotlessi
Encoding: 285 305 285
Width: 202
Flags: W
HStem: 0 21G<72.3149 111.573> 0 21G<72.3149 111.573> 415 20G<70.3564 117.629>
VStem: 50.0684 86<7.28885 434.555>
LayerCount: 2
Fore
SplineSet
50.0684 26.0723 m 0xb0
 50.0684 409.203 l 2
 50.0684 427.688 63.6445 435 77.0684 435 c 0
 109.068 435 l 0
 126.19 435 136.068 422.999 136.068 409.206 c 0
 136.068 26.1113 l 0
 136.068 17.3477 133.763 11.1836 129.678 7.0957 c 0
 122.698 -0.21582 114.077 0 109.068 0 c 0
 77.0684 0 l 0
 67.5615 0 60.9297 1.49609 56.248 6.17871 c 0
 48.8945 13.2041 50.0684 21.4971 50.0684 26.0723 c 0xb0
EndSplineSet
EndChar

StartChar: ring
Encoding: 286 730 286
Width: 286
Flags: W
HStem: 429 48<139.121 202.823> 520 48<139.194 202.868>
VStem: 91 48<478.477 518.766> 203 48<478.614 518.81>
LayerCount: 2
Fore
SplineSet
171 429 m 0
 125.326 429 91 461.884 91 498.938 c 0
 91 539.088 129.846 568 171 568 c 0
 216.625 568 251 535.227 251 498.938 c 0
 251 458.002 212.234 429 171 429 c 0
171 520 m 0
 151.755 520 139 509.689 139 498.841 c 0
 139 485.928 154.9 477 171 477 c 0
 189.92 477 203 487.853 203 498.841 c 0
 203 511.565 187.429 520 171 520 c 0
EndSplineSet
EndChar

StartChar: ff
Encoding: 287 64256 287
Width: 443
Flags: W
HStem: 0 21G<74.3271 122.614 284.334 327.56> 0 21G<74.3271 122.614 284.334 327.56> 382 53<145.588 259.493 348.062 435.733> 619 47<163.37 262.64> 669 46<362.033 423.583 424.07 456.569>
VStem: 57 90.6364<1.09065 382 435 601.424> 259.493 89.5065<7.41764 382 435 600.505>
LayerCount: 2
Fore
SplineSet
155.545 435 m 0x3e
 259.493 435 l 1
 259.493 547 l 0
 259.493 568.943 260.761 587.221 263.116 601.161 c 1
 246.15 613.295 227.651 619 208.649 619 c 0
 174.311 619 147.636 591.656 147.636 547.902 c 1
 145.377 445.902 l 1
 145.377 433.293 146.783 435 155.545 435 c 0x3e
438.255 709.07 m 1
 449.58 704.661 463.108 695.846 455.394 676.559 c 1
 449.22 658.035 427.854 665.479 424.574 666.299 c 0
 424.07 666.425 l 1
 423.583 666.602 l 0
 414.177 670.022 403.756 669 393 669 c 0
 370.308 669 349 641.884 349 596.966 c 1
 348 445.966 l 1
 348 432.49 348.629 435 356 435 c 0
 404.591 435 397.334 434 410 434 c 0
 428.221 434 436.061 419.357 436.246 408.959 c 0
 436.524 393.375 423.131 383 408 383 c 0
 402.316 383 406.885 382 365 382 c 0
 350.075 382 348 376.895 348 365.872 c 0
 349 25.6729 l 2
 349 6.21191 333.12 0 322 0 c 0
 290 0 l 0
 278.668 0 271.343 2.80469 266.715 7.0957 c 0
 258.927 13.9502 259.493 21.6943 259.493 25.9922 c 0
 259.493 382 l 1
 165.714 382 l 0
 147.381 382 145.377 376.762 145.377 365.873 c 1
 147.636 25.6836 l 1
 147.636 6.02344 129.229 0 116 0 c 0
 84 0 l 0xbe
 64.6543 0 57 13.0508 57 25.958 c 0
 57 498 l 0
 57 651.972 146.337 666 205.26 666 c 0
 237.143 666 263.17 654.923 278.029 646.339 c 1
 307.241 710.686 359.742 715 390 715 c 0
 402.954 715 428.581 713.809 438.255 709.07 c 1
EndSplineSet
Ligature2: "'liga' +ahluljBuVAhbVwAA in +MOkwxjDzZYdbVwAA lookup 1-1" f f
LCarets2: 1 0 
EndChar

StartChar: Aogonek
Encoding: 288 260 288
Width: 703
VWidth: 0
Flags: W
HStem: 0 21G<87.7593 118.498 595.44 635.512> 0 21G<87.7593 118.498 595.44 635.512> 189 65<248.402 453.684>
LayerCount: 2
Fore
SplineSet
240.833 189 m 2xa0
 228.717 189 215.549 178.511 213.797 174.165 c 2
 143.849 15.0527 l 1
 143.688 14.748 l 2
 136.268 0.65332 122.253 0 114.743 0 c 2
 98.7432 0 l 2
 76.7754 0 78.4648 21.1367 80.2568 26.3506 c 2
 80.3457 26.6104 l 1
 80.4492 26.8643 l 2
 166.502 237.043 340.894 642.818 343.644 649.518 c 2
 343.727 649.728 l 1
 343.822 649.939 l 2
 347.709 658.552 353.231 663.739 359.355 666 c 0
 375.992 672.143 385.994 656.53 389.693 646.494 c 2
 652.058 29.7188 l 2
 654.695 23.0684 655.051 19.8545 655.058 16.959 c 0
 655.094 0.947266 638.405 0 632.618 0 c 2
 595.44 0.927734 l 1
 592.069 -1.2832 590.531 -2.85059 589.325 -4.05566 c 0
 578.039 -15.3379 573.586 -32.8584 575.599 -48.7822 c 0
 577.847 -65.8633 598.863 -74.3818 621.388 -78.1357 c 0
 649.355 -82.7979 666.312 -73.3662 680.583 -53.2197 c 2
 688.258 -42.3848 l 1
 716.874 -78.1562 l 1
 713.342 -84.1055 l 2
 691.8 -120.385 661.044 -135.936 623.494 -134.997 c 0
 571.926 -133.739 520.922 -101.663 520.922 -50 c 0
 520.922 -19.834 533.624 1.38281 556.56 16.2773 c 1
 553.623 21.5352 l 1
 553.412 21.9189 l 1
 485.863 178.744 l 2
 481.942 187.679 470.545 189 460.903 189 c 2
 240.833 189 l 2xa0
352.051 496.052 m 1
 349.841 493.581 347.228 488.671 345.368 484.265 c 2
 249.557 257.286 l 2
 248.371 254.473 248.411 254.05 248.402 254.017 c 2
 249.257 254 l 1
 447.215 254 l 2
 452.356 254 453.48 254.821 453.695 254.909 c 0
 453.658 255.051 453.564 255.489 453.225 256.306 c 2
 357.391 486.341 l 2
 354.771 492.626 353.117 494.728 352.051 496.052 c 1
EndSplineSet
EndChar

StartChar: Scedilla
Encoding: 290 350 290
Width: 540
VWidth: 0
Flags: W
HStem: -156 43.0723<221.096 278.094> -54 93<247.4 327.031> 614 52<238.183 382.238>
VStem: 92 98<431.784 561.661> 329.11 64.8855<-101.778 -57.1868> 399 99<96.2843 230.58>
LayerCount: 2
Fore
SplineSet
464.766 550.787 m 1
 458.387 545.369 456.454 544.743 452.209 542.924 c 0
 426.746 530.193 418.289 553.87 416.551 556.651 c 1
 392.044 594.879 354.633 614 316.603 614 c 0
 229.238 614 190 555.461 190 489.998 c 0
 190 422.945 247.189 400.619 314.442 374.832 c 0
 411.911 335.728 498 300.498 498 185.806 c 0
 498 88.3066 431.151 17.1191 345.231 -6.31055 c 1
 375.776 -17.4395 393.159 -37.4326 393.995 -61.6826 c 1
 396.256 -139.72 341.131 -154.021 275.868 -156 c 1
 221.096 -156 l 1
 221.096 -112.928 l 1
 278.094 -108.037 l 1
 310.228 -105.863 329.11 -99.082 329.11 -77 c 0
 329.11 -62.5469 310.429 -54 290.452 -54 c 0
 247.247 -54 l 1
 247.247 -14.2061 l 1
 178.42 -7.47754 131.409 25.4502 99.6172 75.5469 c 1
 92.1406 86.7607 93.3145 100.201 103.588 108.54 c 1
 113.271 116.817 117.06 117.838 122.039 120.683 c 0
 122.642 121.027 l 1
 123.286 121.285 l 0
 135.421 126.139 143.603 118.255 146.809 114.247 c 0
 147.08 113.908 l 1
 147.32 113.547 l 0
 150.551 108.701 152.126 105.106 152.468 104.425 c 1
 174.224 77.3916 211.838 39 260.89 39 c 0
 351.538 39 399 95.4756 399 164.981 c 0
 399 251.416 329.83 271.581 245.854 304.469 c 1
 166.311 339.057 92 376.488 92 480.904 c 0
 92 590.927 193.714 666 313.192 666 c 0
 360.358 666 417.872 653.443 465.705 592.38 c 0
 477.069 579.393 477.411 560.147 464.766 550.787 c 1
EndSplineSet
EndChar

StartChar: aogonek
Encoding: 294 261 294
Width: 491
VWidth: 0
Flags: W
HStem: 0 21G<69.6602 91.0708> 0 21G<69.6602 91.0708> 108 50<157.826 296.965>
LayerCount: 2
Fore
SplineSet
158.297 167.06 m 0x20
 156.364 160.78 157.561 158.746 157.826 158 c 2
 296.965 158 l 1
 225.668 337.564 l 1
 222.363 345.679 219.746 347.982 218.887 348.751 c 1
 217.008 346.668 215.681 343.705 214.685 340.262 c 1
 158.297 167.06 l 0x20
320.188 99.2188 m 1
 318.744 102.92 306.821 108 300.867 108 c 2
 149.739 108 l 0
 145.43 108 137.75 100.347 137.314 98.9521 c 1
 111.295 23.8438 l 1
 107.557 12.4395 99.4023 0 82.7393 0 c 0xa0
 56.5811 0 56.251 24.0723 59.1729 33.3867 c 1
 177.176 397.707 l 1
 184.743 419.726 200.486 431.415 215.887 436.63 c 0
 248.576 447.698 285.187 433.517 295.763 409.758 c 1
 448.077 36.8887 l 1
 450.146 31.9443 450.258 28.4814 450.332 26.4072 c 0
 450.844 12.0547 440.133 0 424.739 0 c 0
 396.551 0 l 1x60
 393.589 -1.96582 392.374 -3.18457 391.428 -4.07422 c 0
 379.476 -15.3203 374.517 -33.2422 376.65 -48.7598 c 0
 379.003 -65.8828 400.856 -74.3818 423.383 -78.1357 c 0
 451.351 -82.7979 468.309 -73.3662 482.578 -53.2197 c 0
 490.253 -42.3848 l 1
 518.87 -78.1562 l 1
 515.337 -84.1055 l 0
 493.797 -120.385 463.035 -136.04 425.489 -134.997 c 1
 372.814 -133.879 319.559 -101.663 319.559 -50 c 0
 319.559 -20.8281 332.589 -0.155273 355.655 14.2637 c 1
 351.726 20.4678 352.698 19.5576 352.026 21.2822 c 1
 339.183 53.2393 329.625 77.6934 320.188 99.2188 c 1
EndSplineSet
EndChar

StartChar: scedilla
Encoding: 296 351 296
Width: 390
VWidth: 0
Flags: W
HStem: -156 43.0723<110 160.131> -54 105<133 186.671> 0 51<61.3816 133 187 236.778> 387 48<146.704 309.778>
VStem: 47 83<281.141 370.016> 205 58.9951<-104.283 -56.8564> 257 85<69.9232 161.897>
LayerCount: 2
Fore
SplineSet
210.793 255.403 m 1xba
 280.931 236.77 342 209.936 342 119.809 c 0
 342 46.3896 266.64 0 198 0 c 0
 187 0 l 0xba
 225.888 0 262.799 -26.9873 263.995 -61.6826 c 1
 266.257 -139.72 215.572 -154.021 158.173 -156 c 1
 110 -156 l 1
 110 -112.928 l 1
 160.131 -108.037 l 1
 188.394 -105.863 205 -99.082 205 -77 c 0
 205 -62.5469 188.57 -54 171 -54 c 0
 133 -54 l 1xdc
 133 0 l 1
 88 0 l 0
 71.832 0 61 12.2139 61 25 c 0
 61 40.2549 73.0098 51 87 51 c 0
 194 51 l 0
 230.301 51 257 86.918 257 122.287 c 0
 257 158.509 218.343 177.367 176.237 189.191 c 1
 106.506 207.711 47 233.587 47 305.732 c 0
 47 377.385 108.176 435 179 435 c 0
 281 435 l 0
 294.334 435 310 427.554 310 412 c 0
 310 396.369 297.571 387 285 387 c 0
 193 387 l 0
 155.99 387 130 354.442 130 320.439 c 0
 130 283.526 169.098 267.39 210.793 255.403 c 1xba
EndSplineSet
EndChar

StartChar: Eogonek
Encoding: 305 280 305
Width: 576
VWidth: 0
Flags: W
HStem: 0 61<201.068 405.377 449.3 537.068> 301 61<201.08 510.048> 589 61<201.068 526.068>
VStem: 110.068 91<61 301 362 589> 389.457 56.682<-70.6092 -0.595932>
LayerCount: 2
Fore
SplineSet
201.068 584.211 m 0
 201.068 374.451 l 2
 201.068 368.037 210.602 362 217.068 362 c 0
 472.068 362 l 0
 482.031 362 510.068 363.924 510.068 341 c 0
 510.068 324 l 0
 510.068 300.626 482.562 301 477.068 301 c 0
 223.068 301 l 0
 205.657 301 201.245 296.006 201.068 294.771 c 1
 201.068 65.7998 l 0
 201.068 59.623 205.566 61 223.068 61 c 0
 504.068 61 l 0
 514.739 61 537.068 57.4326 537.068 39 c 0
 537.068 21 l 0
 537.068 -5.89746 501.365 0 498.068 0 c 0
 465.897 0 l 1
 461.676 -2.82324 459.082 -5.67383 457.24 -7.90918 c 0
 447.717 -19.4688 444.304 -35.3125 446.139 -48.7598 c 0
 448.476 -65.8828 470.187 -74.3818 492.713 -78.1357 c 0
 520.681 -82.7979 537.639 -73.3662 551.908 -53.2197 c 0
 559.583 -42.3848 l 1
 588.2 -78.1562 l 1
 584.667 -84.1055 l 0
 563.126 -120.385 532.366 -136.04 494.819 -134.997 c 1
 442.331 -133.879 389.457 -101.663 389.457 -50 c 0
 389.457 -28.8916 395.686 -12.6572 405.377 0 c 1
 137.068 0 l 0
 127.562 0 120.93 1.49609 116.248 6.17871 c 0
 108.895 13.3105 110.068 21.7285 110.068 26.373 c 0
 110.068 623.813 l 0
 110.068 642.576 123.645 650 137.068 650 c 0
 488.068 650 l 0
 498.954 650 526.068 650.487 526.068 628 c 0
 526.068 611 l 0
 526.068 587.259 497.595 589 493.068 589 c 0
 223.068 589 l 0
 217.506 589 214.558 589.183 212.366 589.188 c 0
 199.976 589.212 201.068 588.396 201.068 584.211 c 0
EndSplineSet
EndChar

StartChar: Tcedilla
Encoding: 315 354 315
Width: 487
VWidth: 0
Flags: W
HStem: -156 43.0723<186.963 243.245> -54 54<273.411 293.522> 589 61<49 210.481 312.706 472>
VStem: 210.54 102.166<0.880615 589.095> 293.62 65.3755<-101.778 -56.8564>
LayerCount: 2
Fore
SplineSet
212.785 10.3076 m 1xe8
 208.436 20.9521 210.54 21.1865 210.54 24.5566 c 2
 210.54 584.15 l 0
 210.54 589.136 210.481 589.082 210.481 589.097 c 1
 205.125 588.942 206.515 589 204.926 589 c 0
 82 589 l 0
 70.8291 589 49 591.897 49 611 c 0
 49 628 l 0
 49 654.618 83.7578 650 88 650 c 0
 434 650 l 0
 444.885 650 472 650.487 472 628 c 0
 472 611 l 0
 472 587.285 443.734 589 440 589 c 0
 337.405 589 l 0
 331.16 589 327.85 589.183 325.389 589.188 c 0
 311.479 589.212 312.706 588.388 312.706 584.164 c 0
 312.706 26.1133 l 0xf0
 312.706 10.1924 299.935 0 282.393 0 c 0
 273.411 0 l 0
 317.07 0 357.799 -26.9873 358.995 -61.6826 c 1
 361.256 -139.72 305.49 -154.021 241.047 -156 c 1
 186.963 -156 l 1
 186.963 -112.928 l 1
 243.245 -108.037 l 1
 274.976 -105.863 293.62 -99.082 293.62 -77 c 0
 293.62 -62.5469 275.174 -54 255.448 -54 c 0
 212.785 -54 l 1
 212.785 10.3076 l 1xe8
EndSplineSet
EndChar

StartChar: eogonek
Encoding: 321 281 321
Width: 400
Flags: W
HStem: 0 52<137 217.733 266.254 355.265> 198 53<137.002 322.733> 385 51<137.705 363.096>
VStem: 50 87<53.2111 198.001 250.983 381.939> 200.148 62.6142<-70.5602 -0.595932>
LayerCount: 2
Fore
SplineSet
124.179 435.998 m 1
 202.025 434.98 254.978 436 332 436 c 0
 351.804 436 363.087 423.477 363.495 410.822 c 0
 364.03 394.202 348.436 385 333 385 c 0
 270.948 385 234.575 383.022 164.918 384 c 1
 149.314 384 137 369.952 137 357.958 c 0
 137 262.161 l 0
 137 249.758 138.954 251 146 251 c 0
 196.09 251 239.884 250 297 250 c 0
 315.221 250 323.061 235.357 323.246 224.959 c 0
 323.524 209.375 310.131 199 295 199 c 0
 237.675 199 207.658 198 155 198 c 0
 139.146 198 137 193.18 137 183.025 c 0
 137 71.6543 l 0
 137 52.4111 142.038 52 160 52 c 0
 212.92 52 268.83 51 328 51 c 0
 347.168 51 355.553 36.7832 355.746 25.959 c 0
 356.018 10.7988 343.389 0 329 0 c 0
 284.588 0 l 1
 279.925 -2.82324 277.058 -5.67383 275.025 -7.90918 c 0
 264.505 -19.4688 260.735 -35.3125 262.762 -48.7598 c 0
 265.343 -65.8838 289.118 -74.3818 311.644 -78.1357 c 0
 339.612 -82.7979 356.569 -73.3662 370.84 -53.2197 c 0
 378.515 -42.3848 l 1
 407.131 -78.1562 l 1
 403.599 -84.1055 l 0
 382.058 -120.385 351.297 -136.04 313.75 -134.997 c 1
 258.554 -133.879 200.148 -101.663 200.148 -50 c 0
 200.148 -28.8916 207.029 -12.6572 217.733 0 c 1
 126 0 l 0
 80.8936 0 50 25.3721 50 65.9736 c 0
 50 356.641 l 0
 50 399.8 74.04 437.063 124.179 435.998 c 1
EndSplineSet
EndChar

StartChar: dcroat
Encoding: 324 273 324
Width: 521
Flags: W
HStem: 0 52<241.473 381> 383 52<230.63 379.065> 540 58<201.415 379.068 467 521> 692 20G<402.042 449.769>
VStem: 54 91<142.457 298.34> 379.068 87.9324<52.0054 383 435 540 598 711.21>
LayerCount: 2
Fore
SplineSet
379.068 443 m 0
 379.068 540 l 1
 231.024 540 l 0
 220.072 540 201.415 542.357 201.415 558 c 0
 201.415 580 l 0
 201.415 602.248 228.423 598 231.024 598 c 0
 379.068 598 l 1
 379.068 684 l 0
 379.068 705.08 396.085 712 408 712 c 0
 440 712 l 0
 459.538 712 467 698.023 467 684 c 0
 467 598 l 1
 494 598 l 0
 502.749 598 521 596.12 521 580 c 0
 521 558 l 0
 521 536.637 497.065 540 494 540 c 0
 467 540 l 1
 467 41.4639 l 0
 467 10.3301 458.297 0 423 0 c 0
 305 0 l 0
 144.416 0 54 98.6152 54 227.538 c 0
 54 360.579 182.403 435 316.56 435 c 0
 369.198 435 l 0
 377.605 435 379.068 439.047 379.068 443 c 0
381 71.8037 m 0
 379.068 373.569 l 2
 379.068 381.185 375.717 383 365.908 383 c 0
 311.077 383 l 0
 218.656 383 145 308.899 145 219.857 c 0
 145 132.354 225.806 52 317 52 c 0
 368 52 l 0
 378.993 52 381 59.4111 381 71.8037 c 0
EndSplineSet
EndChar

StartChar: tcedilla
Encoding: 331 355 331
Width: 398
VWidth: 0
Flags: W
HStem: -156 43.0723<139 197.632> 383 52<33 160.412 259 378>
VStem: 160.412 98.5882<7.01339 383> 253.059 59.9363<-101.778 -57.0787>
LayerCount: 2
Fore
SplineSet
164.118 7.4834 m 1xd0
 159.601 14.7852 160.412 18.9893 160.412 22.499 c 2
 160.412 378.219 l 0
 160.412 383.544 160.455 383 154.235 383 c 0
 66 383 l 0
 54.8291 383 33 385.897 33 405 c 0
 33 413 l 0
 33 439.618 67.7578 435 72 435 c 0
 340 435 l 0
 350.885 435 378 435.487 378 413 c 0
 378 405 l 0
 378 381.285 349.734 383 346 383 c 0
 282 383 l 0
 276.552 383 273.56 383.178 271.35 383.187 c 0
 258.147 383.235 259 382.11 259 378.252 c 0
 259 25.0312 l 0xe0
 259 17.166 256.981 11.0488 252.189 6.81348 c 0
 246.167 1.20605 239.077 0.285156 236.917 -0.147461 c 1
 278.667 -2.61426 311.854 -28.5986 312.995 -61.6826 c 1
 315.256 -139.72 264.573 -154.021 195.214 -156 c 1
 139 -156 l 1
 139 -112.928 l 1
 197.632 -108.037 l 1
 232.545 -105.863 253.059 -99.082 253.059 -77 c 0
 253.059 -62.5469 232.763 -54 211.059 -54 c 0
 164.118 -54 l 1
 164.118 7.4834 l 1xd0
EndSplineSet
EndChar

StartChar: Hbar
Encoding: 335 294 335
Width: 702
Flags: W
HStem: 0 21G<141.247 186.27 576.289 620.504> 0 21G<141.247 186.27 576.289 620.504> 301 61<211.441 552.57> 523.917 56.252<39 119 211.429 552.571 645 702> 630 20G<139.288 188.987 573.932 626.561>
VStem: 119 92.4286<8.36034 300.986 362 523.917 580.169 641.954> 552.571 92.4286<7.29175 301 362 523.922 580.172 649.424>
LayerCount: 2
Fore
SplineSet
211.429 530 m 1x3e
 211.429 375 l 2
 211.429 368.303 221.466 362 228.275 362 c 0
 540.989 362 l 0
 552.605 362 552.571 362.778 552.571 373 c 0
 552.571 530 l 1
 211.429 530 l 1x3e
211.429 623 m 0
 211.429 578 l 1
 552.571 578 l 1
 552.571 623 l 0
 552.571 642.346 566.865 650 581 650 c 0
 618 650 l 0
 635.122 650 645 637.817 645 623.814 c 0
 645 580.172 l 1
 675 580.172 l 0
 683.749 580.172 702 578.349 702 562.715 c 0
 702 541.379 l 0
 702 520.66 678.065 523.922 675 523.922 c 0
 645 523.922 l 1
 645 26.3994 l 0
 645 17.5029 642.693 11.2451 638.608 7.0957 c 0
 631.63 -0.21582 623.009 0 618 0 c 0
 581 0 l 0
 571.577 0 564.97 1.53418 560.189 5.54492 c 0
 551.765 12.3789 552.571 21.334 552.571 26.2979 c 0
 552.571 292.295 l 0
 552.571 297.089 550.035 301 535.725 301 c 0
 234.593 301 l 0
 216.26 301 211.614 295.969 211.429 294.727 c 1
 211.429 26.376 l 0
 211.429 20.2422 211.779 13.5635 207.271 8.10352 c 0
 200.307 -0.619141 189.541 0 183 0 c 0
 146 0 l 0xbe
 136.493 0 129.861 1.49609 125.179 6.17871 c 0
 117.826 13.3105 119 21.7285 119 26.373 c 0
 119 523.917 l 1
 66 523.917 l 0
 56.0127 523.917 39 526.203 39 541.374 c 0
 39 562.712 l 0
 39 584.289 63.6279 580.169 66 580.169 c 0
 119 580.169 l 1
 119 623.813 l 0
 119 642.576 132.575 650 146 650 c 0
 183 650 l 0
 194.974 650 201.85 647.096 206.097 642.327 c 0
 213.194 634.36 211.429 626.531 211.429 623 c 0
EndSplineSet
EndChar

StartChar: hbar
Encoding: 336 295 336
Width: 490
Flags: W
HStem: 0 21G<72.2466 111.706 372.165 416.012> 0 21G<72.2466 111.706 372.165 416.012> 198 53<137.131 347.214> 415 20G<369.746 417.872> 520 58<0 50 138.177 317.546> 692 20G<70.1162 118.364>
VStem: 50 88.1774<7.28808 198 251 520 578 711.26> 347.823 89.1774<5.86123 197.093 251.001 434.332>
LayerCount: 2
Fore
SplineSet
347.823 255.742 m 0xbf
 347.823 409.392 l 2
 347.823 427.74 362.493 435 377 435 c 0
 409 435 l 0
 426.744 435 437 423.3 437 409.187 c 0
 437 25.8135 l 0
 437 7.13477 423.023 0 409 0 c 0
 377 0 l 0
 367.329 0 360.548 1.53418 355.64 5.54492 c 0
 346.995 12.2607 347.823 21.0625 347.823 25.9404 c 0
 347.823 191.346 l 0
 347.823 196.037 347.484 196.541 347.324 197.12 c 1
 344.992 197.82 340.986 198 338.097 198 c 0
 156.548 198 l 0
 138.447 198 137.097 193.427 137.097 182.825 c 1
 138.177 26.0381 l 1
 138.177 17.2646 135.692 11.168 131.27 7.0957 c 0
 123.729 -0.21582 114.413 0 109 0 c 0
 77 0 l 0
 67.4932 0 60.8613 1.49609 56.1787 6.17871 c 0
 48.8262 13.2559 50 21.6113 50 26.2197 c 0
 50 520 l 1
 27 520 l 0
 17.0127 520 0 522.357 0 538 c 0
 0 560 l 0
 0 582.248 24.6279 578 27 578 c 0
 50 578 l 1
 50 684 l 0
 50 703.977 63.2324 712 77 712 c 0
 109 712 l 0
 127.728 712 138.177 699.009 138.177 684 c 0
 138.177 578 l 1
 288.387 578 l 0
 297.842 578 317.565 576.12 317.565 560 c 0
 317.565 538 l 0
 317.565 516.637 291.7 520 288.387 520 c 0
 138.138 520 l 1
 137.097 262.554 l 1
 137.097 249.726 139.208 251 146.823 251 c 0
 340.258 251 l 0
 346.202 251 346.902 250.993 347.749 251.001 c 1
 347.909 255.847 347.823 254.217 347.823 255.742 c 0xbf
EndSplineSet
EndChar

StartChar: kgreenlandic
Encoding: 341 312 341
Width: 428
Flags: W
HStem: 0 21G<72.3149 111.817 325.224 364.028> 0 21G<72.3149 111.817 325.224 364.028> 415 20G<70.1846 118.579 336.567 347.07>
VStem: 50.0684 88.6341<7.29789 208.07 219.127 434.09>
LayerCount: 2
Fore
SplineSet
138.702 219.127 m 1xb0
 139.97 221.104 141.479 223.112 143.229 225.162 c 2
 308.883 419.071 l 2
 318.48 430.729 331.066 435 342.068 435 c 0
 352.071 435 356.844 432.702 360.196 430.153 c 0
 374.755 419.576 362.45 404.917 361.067 403.232 c 0
 316.95 343.731 279.469 303.635 227.462 245.42 c 0
 220.045 237.116 221.396 232.974 223.41 230.064 c 2
 383.169 37.1387 l 2
 388.924 29.3486 391.124 24.0137 391.145 18.4932 c 0
 391.214 -0.0869141 368.988 0 359.068 0 c 2
 334.068 0 l 2
 316.379 0 302.783 6.31836 293.399 18.0732 c 2
 143.082 202.014 l 2
 141.399 204.073 139.938 206.088 138.702 208.07 c 1
 138.702 27 l 2
 138.702 17.8271 136.172 11.375 131.688 7.0957 c 0
 124.028 -0.21582 114.566 0 109.068 0 c 2
 77.0684 0 l 2
 67.5615 0 60.9297 1.49609 56.248 6.17871 c 0
 48.8945 13.2041 50.0684 21.4971 50.0684 26.0723 c 2
 50.0684 408.248 l 2
 50.0684 427.334 63.3008 435 77.0684 435 c 2
 109.068 435 l 2
 128.09 435 138.702 422.009 138.702 407 c 2
 138.702 219.127 l 1xb0
EndSplineSet
EndChar

StartChar: Tbar
Encoding: 347 358 347
Width: 487
Flags: W
HStem: 0 21G<246.761 300.333> 0 21G<246.761 300.333> 340 58<100 210.54 312.706 422> 589 61<49 210.481 312.706 472>
VStem: 210.54 102.166<171.1 340 398 589.097> 217.562 108.147<6.51426 195.128>
LayerCount: 2
Fore
SplineSet
217.562 26.3945 m 0xb4
 210.54 340 l 1
 127 340 l 0
 117.013 340 100 342.357 100 358 c 0
 100 380 l 0
 100 402.248 124.628 398 127 398 c 0
 210.54 398 l 1
 210.54 584.249 l 0
 210.54 589.135 210.481 589.082 210.481 589.097 c 1
 205.125 588.942 206.515 589 204.926 589 c 0
 82 589 l 0
 70.8291 589 49 591.897 49 611 c 0
 49 628 l 0
 49 654.618 83.7578 650 88 650 c 0
 434 650 l 0
 444.885 650 472 650.487 472 628 c 0
 472 611 l 0
 472 587.285 443.734 589 440 589 c 0
 337.405 589 l 0
 331.16 589 327.85 589.183 325.389 589.188 c 0
 311.479 589.212 312.706 588.401 312.706 584.249 c 0
 312.706 398 l 1
 395 398 l 0
 403.749 398 422 396.12 422 380 c 0
 422 358 l 0
 422 336.637 398.065 340 395 340 c 0
 312.706 340 l 1xb8
 325.71 26.2285 l 0
 325.71 10.2373 310.665 0 290 0 c 0
 253 0 l 0
 240.522 0 231.818 1.49609 225.672 6.17871 c 0
 216.022 13.3174 217.562 21.7451 217.562 26.3945 c 0xb4
EndSplineSet
EndChar

StartChar: tbar
Encoding: 353 359 353
Width: 398
Flags: W
HStem: -1 21G<187.893 229.263> -1 21G<187.893 229.263> 192 58<43 160.412 259 365> 383 52<33 160.412 259 378>
VStem: 160.412 98.5882<7.01325 192 250 383>
LayerCount: 2
Fore
SplineSet
160.412 24.9424 m 0xb8
 160.412 192 l 1
 70 192 l 0
 60.0127 192 43 194.357 43 210 c 0
 43 232 l 0
 43 254.248 67.6279 250 70 250 c 0
 160.412 250 l 1
 160.412 378.35 l 0
 160.412 383.529 160.455 383 154.235 383 c 0
 66 383 l 0
 54.8291 383 33 385.897 33 405 c 0
 33 413 l 0
 33 439.618 67.7578 435 72 435 c 0
 340 435 l 0
 350.885 435 378 435.487 378 413 c 0
 378 405 l 0
 378 381.285 349.734 383 346 383 c 0
 282 383 l 0
 276.552 383 273.56 383.178 271.35 383.187 c 0
 258.147 383.234 259 382.132 259 378.35 c 0
 259 250 l 1
 338 250 l 0
 346.749 250 365 248.12 365 232 c 0
 365 210 l 0
 365 188.637 341.065 192 338 192 c 0
 259 192 l 1
 259 25.0166 l 0
 259 17.1582 256.981 11.0459 252.189 6.81348 c 0
 243.863 -0.938477 232.643 -1 225.882 -1 c 0
 193.765 -1 l 0
 182.021 -1 173.829 0.496094 168.044 5.17871 c 0
 158.962 12.1582 160.412 20.3975 160.412 24.9424 c 0xb8
EndSplineSet
EndChar

StartChar: Eng
Encoding: 354 330 354
Width: 699
Flags: W
HStem: 0 21G<129.302 174.587> 0 21G<129.302 174.587> 630 20G<131.413 138.555 175.025 191.317 591.417 631.542>
VStem: 119 68<0 526.957> 553.522 89.4779<-165.319 72.6191> 576.82 66.1799<186.852 650>
LayerCount: 2
Fore
SplineSet
553.522 72.6191 m 1xb8
 199.042 513.944 l 2
 193.374 521.416 189.981 525.018 187.76 527.191 c 1
 187.08 522.181 187 517.484 187 513 c 0
 187 27 l 0
 187 11.9775 181.174 0 168 0 c 0
 138 0 l 0
 120.604 0 119 16.3555 119 26.1943 c 0
 119 623.806 l 0
 119 638.381 124.826 650 138 650 c 0
 138.278 650 l 1
 138.555 649.984 l 0
 157.487 648.933 167.051 650 183 650 c 0
 199.634 650 208.755 639.181 214.525 632.585 c 0
 214.74 632.34 l 1
 574.848 186.821 l 1
 574.94 186.691 l 1
 576.292 190.091 576.82 195.501 576.82 200 c 0
 576.82 623 l 0
 576.82 639.156 584.835 650 598 650 c 0
 623 650 l 0
 640.083 650 643 632.937 643 623.662 c 0xb4
 643 -146 l 0
 643 -165.346 629.425 -173 616 -173 c 0
 583.174 -173 l 0
 572.191 -173 564.68 -170.729 559.787 -165.657 c 0
 552.836 -158.454 553.522 -150.521 553.522 -146 c 0
 553.522 72.6191 l 1xb8
EndSplineSet
EndChar

StartChar: eng
Encoding: 355 331 355
Width: 462
Flags: W
HStem: 415 20G<375.871 393.373>
VStem: 50 53<1.72969 357.868> 323 87<-168.7 64.4639> 358 52<158.548 434.671>
LayerCount: 2
Fore
SplineSet
50 23 m 2xe0
 50 381 l 0
 50 402.698 61.0322 417.571 75.583 426.114 c 0
 105.626 444.781 148.638 435.108 172.769 403.943 c 1
 358 158.548 l 1
 358 405 l 0
 358 422.252 367.741 435 384 435 c 0
 402.745 435 410 419.31 410 405 c 0xd0
 410 -156 l 0
 410 -168.181 396.425 -173 383 -173 c 0
 351 -173 l 0
 340.629 -173 333.536 -171.738 328.916 -168.922 c 0
 322.353 -164.187 323 -158.973 323 -156 c 0
 323 64.4639 l 1
 114.548 348.267 l 1
 109.62 354.444 106.096 356.838 104.25 357.903 c 1
 103.366 357.153 103 355.983 103 355 c 0
 103 23 l 0
 103 9.2998 88.874 1.38965 75.7461 1.19531 c 0
 58.8799 0.945312 50 11.8164 50 23 c 2xe0
EndSplineSet
EndChar

StartChar: Iogonek
Encoding: 356 302 356
Width: 267
Flags: W
HStem: 630 20G<139.288 191.561>
VStem: 97 51.9229<-70.6092 -0.273144> 119 91<10.1802 649.548>
LayerCount: 2
Fore
SplineSet
119 24.8613 m 0xa0
 119 623.75 l 2
 119 642.559 132.575 650 146 650 c 0
 183 650 l 0
 200.122 650 210 637.812 210 623.806 c 0
 210 26.1943 l 0xa0
 210 7.42578 196.425 0 183 0 c 0
 167.022 0 l 1
 163.499 -2.57129 161.452 -4.95312 159.992 -6.75684 c 0
 150.685 -18.2578 147.177 -34.79 148.923 -48.7598 c 0
 151.063 -65.8838 171.118 -74.3818 193.644 -78.1357 c 0
 221.612 -82.7979 238.569 -73.3662 252.84 -53.2197 c 0
 260.515 -42.3848 l 1
 289.131 -78.1562 l 1
 285.599 -84.1055 l 0
 264.058 -120.385 233.297 -136.04 195.75 -134.997 c 1
 145.434 -133.879 97 -101.663 97 -50 c 0xc0
 97 -24.1475 106.785 -4.27344 121.802 9.79395 c 1
 117.917 18.1104 119 21.5625 119 24.8613 c 0xa0
EndSplineSet
EndChar

StartChar: Uogonek
Encoding: 361 370 361
Width: 648
Flags: W
HStem: -10.7715 57.7715<369.512 453.669> 630 20G<139.288 192.053 544.427 581.542>
VStem: 119 92.5517<132.847 649.307> 314.126 54.9162<-70.6092 -11.3329> 529.851 63.1494<122.339 650>
LayerCount: 2
Fore
SplineSet
376.517 47 m 0
 466.795 47 529.851 115.013 529.851 204.768 c 2
 529.851 623.867 l 0
 529.851 639.504 537.854 650 551 650 c 0
 573 650 l 0
 590.083 650 593 633.021 593 623.793 c 0
 593 203.514 l 0
 593 98.46 544.354 -2.41309 377.955 -10.7715 c 1
 370.016 -22.7158 367.619 -36.7119 369.043 -48.8271 c 1
 371.289 -65.8252 392.512 -74.3828 416.324 -78.1357 c 0
 445.9 -82.7979 463.832 -73.3662 478.923 -53.2197 c 0
 487.038 -42.3848 l 1
 517.299 -78.1562 l 1
 513.564 -84.1055 l 0
 490.785 -120.385 458.256 -136.04 418.552 -134.997 c 1
 365.344 -133.879 314.126 -101.663 314.126 -50 c 0
 314.126 -33.123 318.113 -19.5371 323.373 -9.71582 c 1
 176.762 4.15527 119 109.532 119 227.8 c 0
 119 623.795 l 0
 119 642.571 132.575 650 146 650 c 0
 183 650 l 0
 201.106 650 211.552 637.841 211.552 623.867 c 0
 211.552 228.965 l 0
 211.552 107.295 287.385 47 376.517 47 c 0
EndSplineSet
EndChar

